<?xml version="1.0" encoding="UTF-8"?>
<!DOCTYPE svg PUBLIC "-//W3C//DTD SVG 1.1//EN" "http://www.w3.org/Graphics/SVG/1.1/DTD/svg11.dtd">
<!-- Creator: CorelDRAW -->
<svg xmlns="http://www.w3.org/2000/svg" xml:space="preserve" width="488px" height="136px" version="1.1" style="shape-rendering:geometricPrecision; text-rendering:geometricPrecision; image-rendering:optimizeQuality; fill-rule:evenodd; clip-rule:evenodd"
viewBox="0 0 488 136.52"
 xmlns:xlink="http://www.w3.org/1999/xlink"
 xmlns:xodm="http://www.corel.com/coreldraw/odm/2003">
 <defs>
  <style type="text/css">
   <![CDATA[
    .fil1 {fill:none}
    .fil0 {fill:#4A4A4A;fill-rule:nonzero}
   ]]>
  </style>
   <clipPath id="id0">
    <path d="M0 136.52l488 0 0 -136.52 -488 0 0 136.52z"/>
   </clipPath>
 </defs>
 <g id="Capa_x0020_1">
  <metadata id="CorelCorpID_0Corel-Layer"/>
  <g>
  </g>
  <g style="clip-path:url(#id0)">
   <g id="_3108845535552">
    <path class="fil0" d="M408.21 61.06c4.19,-4.19 9.25,-6.29 15.19,-6.29 5.94,0 11,2.1 15.19,6.29 4.19,4.19 6.29,9.25 6.29,15.19 0,5.94 -2.1,11 -6.29,15.19 -4.19,4.19 -9.25,6.29 -15.19,6.29 -5.94,0 -11,-2.1 -15.19,-6.29 -4.19,-4.19 -6.28,-9.25 -6.28,-15.19 0,-5.94 2.09,-11 6.28,-15.19zm46.58 -3.46l0 -15.48 -5.75 0.08 0 -3.41 14.98 0 -0.08 3.33 -5.41 0.08 -0.08 15.4 -3.66 0zm12.31 0l0 -18.81 5.08 0 5.25 13.57 0.16 0 5.33 -13.57 5 0 0.08 18.81 -3.58 0 0 -9.99 0.17 -3.74 -0.17 0 -5.58 13.73 -2.58 0 -5.66 -13.73 -0.17 0 0.25 3.74 -0.08 9.99 -3.5 0zm-419.8 -18.81l0 7.91 -16.32 0 0 50.36 -8.16 0 0 -50.36 -16.31 0 0 -7.91 40.79 0zm8.32 10.9c-1.44,0 -2.64,-0.48 -3.58,-1.45 -0.94,-0.97 -1.41,-2.15 -1.41,-3.54 0,-1.39 0.47,-2.57 1.41,-3.54 0.94,-0.97 2.14,-1.46 3.58,-1.46 1.39,0 2.55,0.49 3.5,1.46 0.94,0.97 1.41,2.15 1.41,3.54 0,1.39 -0.47,2.57 -1.41,3.54 -0.95,0.97 -2.11,1.45 -3.5,1.45zm-4.08 47.37l0 -41.62 8.16 0 0 41.62 -8.16 0zm97.4 0l0 -21.89c0,-6.77 -1.67,-11.87 -5,-15.28 -3.33,-3.41 -7.77,-5.12 -13.32,-5.12 -5.54,0 -9.98,1.71 -13.31,5.12 -3.33,3.41 -5,8.51 -5,15.28l0 21.89 8.16 0 0 -21.89c0,-8.33 3.38,-12.49 10.15,-12.49 6.78,0 10.16,4.16 10.16,12.49l0 21.89 8.16 0zm115.38 0.67c-4.55,0 -8.41,-1.18 -11.57,-3.54 -3.17,-2.36 -4.75,-5.56 -4.75,-9.62l7.83 0c0,1.78 0.81,3.19 2.45,4.25 1.64,1.05 3.71,1.58 6.2,1.58 2.56,0 4.53,-0.5 5.91,-1.5 1.39,-1 2.09,-2.33 2.09,-3.99 0,-1.72 -0.82,-3.03 -2.46,-3.92 -1.64,-0.88 -3.62,-1.56 -5.95,-2.04 -2.33,-0.47 -4.66,-1.02 -6.99,-1.66 -2.34,-0.64 -4.32,-1.85 -5.96,-3.62 -1.64,-1.78 -2.45,-4.16 -2.45,-7.16 0,-3.44 1.47,-6.26 4.41,-8.45 2.94,-2.19 6.6,-3.29 10.99,-3.29 4.44,0 8.09,1.11 10.94,3.33 2.86,2.22 4.29,5.27 4.29,9.16l-7.82 0c0,-1.56 -0.74,-2.82 -2.21,-3.79 -1.47,-0.97 -3.26,-1.46 -5.37,-1.46 -2.05,0 -3.74,0.48 -5.08,1.42 -1.33,0.94 -2,2.16 -2,3.66 0,1.5 0.81,2.65 2.42,3.46 1.61,0.8 3.58,1.43 5.91,1.87 2.33,0.44 4.66,1.01 6.99,1.71 2.33,0.69 4.32,1.94 5.96,3.74 1.63,1.81 2.48,4.21 2.53,7.2 0.06,4.11 -1.43,7.25 -4.45,9.41 -3.03,2.16 -6.98,3.25 -11.86,3.25zm42.54 0l0 -7.91c3.21,0 5.71,-1.02 7.49,-3.04 1.77,-2.03 2.66,-4.9 2.66,-8.62l0 -39.37 8.16 0 0 39.37c0,6.33 -1.68,11.17 -5.04,14.53 -3.35,3.36 -7.78,5.04 -13.27,5.04zm59.93 -42.29l-8.15 0 0 21.89c0,8.33 -3.39,12.49 -10.16,12.49 -6.77,0 -10.16,-4.16 -10.16,-12.49l0 -21.89 -8.15 0 0 21.89c0,6.77 1.66,11.86 4.99,15.28 3.33,3.41 7.77,5.12 13.32,5.12 5.55,0 9.99,-1.71 13.32,-5.12 3.33,-3.42 4.99,-8.51 4.99,-15.28l0 -21.89zm13.99 41.62l-8.16 0 0 -58.27 8.16 0 0 58.27zm11.65 -47.37c-1.44,0 -2.63,-0.48 -3.58,-1.45 -0.94,-0.97 -1.41,-2.15 -1.41,-3.54 0,-1.39 0.47,-2.57 1.41,-3.54 0.95,-0.97 2.14,-1.46 3.58,-1.46 1.39,0 2.56,0.49 3.5,1.46 0.94,0.97 1.42,2.15 1.42,3.54 0,1.39 -0.48,2.57 -1.42,3.54 -0.94,0.97 -2.11,1.45 -3.5,1.45zm-4.07 47.37l0 -41.62 8.15 0 0 41.62 -8.15 0zm-317.05 -5.58c-4.13,-4.16 -6.2,-9.21 -6.2,-15.15 0,-5.94 2.04,-11.02 6.12,-15.23 4.08,-4.22 9.09,-6.33 15.02,-6.33 5.67,0 10.61,1.9 14.82,5.7 4.22,3.81 6.44,8.81 6.66,15.03 0,1.39 -0.08,2.64 -0.25,3.75l-33.63 0c0.34,3.1 1.65,5.64 3.96,7.61 2.3,1.97 5.12,2.96 8.44,2.96 4.11,0 7.44,-1.39 9.99,-4.16l9.74 0.08c-1.83,3.61 -4.49,6.51 -7.99,8.7 -3.49,2.19 -7.32,3.29 -11.49,3.29 -5.99,0 -11.05,-2.08 -15.19,-6.25zm2.54 -18.89l25.14 0c-0.78,-2.89 -2.32,-5.26 -4.62,-7.12 -2.3,-1.86 -4.92,-2.79 -7.87,-2.79 -3.16,0 -5.86,0.91 -8.11,2.75 -2.25,1.83 -3.76,4.21 -4.54,7.16zm122.54 3.66c0,5.94 -2.08,11 -6.24,15.19 -4.17,4.19 -9.22,6.29 -15.16,6.29 -5.93,0 -11,-2.1 -15.19,-6.29 -4.19,-4.19 -6.28,-9.25 -6.28,-15.19 0,-5.94 2.09,-11 6.28,-15.19 4.19,-4.19 9.26,-6.29 15.19,-6.29 5.39,0 9.77,2 13.16,6l0 -21.98 8.24 0 0 37.46zm-21.4 -13.57c-3.77,0 -6.93,1.3 -9.48,3.91 -2.56,2.61 -3.83,5.83 -3.83,9.66 0,3.83 1.26,7.05 3.78,9.66 2.53,2.6 5.71,3.91 9.53,3.91 3.78,0 6.94,-1.31 9.49,-3.91 2.56,-2.61 3.83,-5.83 3.83,-9.66 0,-3.78 -1.29,-6.98 -3.87,-9.62 -2.58,-2.63 -5.73,-3.95 -9.45,-3.95zm47.46 35.05c-5.94,0 -11.01,-2.1 -15.2,-6.29 -4.19,-4.19 -6.28,-9.25 -6.28,-15.19 0,-5.94 2.09,-11 6.28,-15.19 4.19,-4.19 9.26,-6.29 15.2,-6.29 5.93,0 10.98,2.1 15.15,6.29 4.16,4.19 6.24,9.25 6.24,15.19l0 20.81 -8.16 0 0 -6.58c-1,2.06 -2.73,3.78 -5.2,5.17 -2.47,1.38 -5.15,2.08 -8.03,2.08zm-9.45 -11.87c2.58,2.64 5.76,3.96 9.53,3.96 3.77,0 6.92,-1.31 9.45,-3.91 2.52,-2.61 3.78,-5.83 3.78,-9.66 0,-3.83 -1.26,-7.05 -3.78,-9.66 -2.53,-2.61 -5.68,-3.91 -9.45,-3.91 -3.83,0 -7.02,1.3 -9.57,3.91 -2.56,2.61 -3.83,5.83 -3.83,9.66 0,3.77 1.29,6.98 3.87,9.61zm210.48 -23.18c-3.82,0 -7.02,1.3 -9.57,3.91 -2.55,2.61 -3.83,5.83 -3.83,9.66 0,3.77 1.29,6.98 3.87,9.61 2.58,2.64 5.76,3.96 9.53,3.96 3.78,0 6.93,-1.31 9.45,-3.91 2.53,-2.61 3.79,-5.83 3.79,-9.66 0,-3.83 -1.26,-7.05 -3.79,-9.66 -2.52,-2.61 -5.67,-3.91 -9.45,-3.91z"/>
   </g>
  </g>
  <polygon class="fil1" points="0,136.52 488,136.52 488,0 0,0 "/>
 </g>
</svg>
