<?xml version="1.0" encoding="UTF-8"?>
<!DOCTYPE svg PUBLIC "-//W3C//DTD SVG 1.1//EN" "http://www.w3.org/Graphics/SVG/1.1/DTD/svg11.dtd">
<!-- Creator: CorelDRAW -->
<svg xmlns="http://www.w3.org/2000/svg" xml:space="preserve" width="126px" height="86px" version="1.1" style="shape-rendering:geometricPrecision; text-rendering:geometricPrecision; image-rendering:optimizeQuality; fill-rule:evenodd; clip-rule:evenodd"
viewBox="0 0 62.65 42.76"
 xmlns:xlink="http://www.w3.org/1999/xlink"
 xmlns:xodm="http://www.corel.com/coreldraw/odm/2003">
 <defs>
  <style type="text/css">
   <![CDATA[
    .fil1 {fill:none}
    .fil0 {fill:#027DFD}
   ]]>
  </style>
   <clipPath id="id0">
    <path d="M0 0l62.65 0 0 42.76 -62.65 0 0 -42.76z"/>
   </clipPath>
 </defs>
 <g id="Capa_x0020_1">
  <metadata id="CorelCorpID_0Corel-Layer"/>
  <g>
  </g>
  <g style="clip-path:url(#id0)">
   <g id="_3107913267392">
    <path class="fil0" d="M6.14 39.28c-2.86,0.02 -5.21,-2.31 -5.23,-5.16l-0.14 -25.21c-0.01,-2.85 2.31,-5.2 5.17,-5.22 12.76,-0.07 25.52,-0.14 38.29,-0.21 1.08,-0.01 2.16,0.4 2.99,1.23l13.42 13.48c1.64,1.65 1.66,4.36 0.04,6.02l-13.26 13.61c-0.81,0.83 -1.89,1.25 -2.97,1.25 -12.77,0.07 -25.54,0.14 -38.31,0.21zm46.46 -18.05c0.01,2.17 -1.73,3.94 -3.9,3.95 -2.17,0.01 -3.93,-1.74 -3.95,-3.9 -0.01,-2.17 1.74,-3.94 3.91,-3.95 2.16,-0.01 3.93,1.74 3.94,3.9zm-46.44 15.17l-0.01 -2.74 0.57 0 0.01 2.74 -0.57 0zm28.31 -28.99c0.3,-0.31 0.67,-0.46 1.11,-0.46 0.43,-0.01 0.8,0.15 1.11,0.45 0.31,0.3 0.46,0.67 0.46,1.11 0.01,0.43 -0.15,0.8 -0.45,1.11 -0.3,0.3 -0.67,0.46 -1.11,0.46 -0.43,0 -0.8,-0.15 -1.11,-0.45 -0.31,-0.3 -0.46,-0.67 -0.46,-1.11 0,-0.43 0.15,-0.8 0.45,-1.11zm3.4 -0.27l-0.01 -1.13 -0.42 0.01 0 -0.25 1.1 -0.01 -0.01 0.25 -0.39 0.01 0 1.12 -0.27 0zm0.9 0l-0.01 -1.38 0.37 0 0.39 0.99 0.01 0 0.38 -0.99 0.37 0 0.01 1.37 -0.26 0 0 -0.73 0.01 -0.27 -0.01 0 -0.41 1 -0.18 0 -0.42 -1 -0.02 0 0.02 0.28 0 0.73 -0.25 0zm-30.65 -1.21l0 0.58 -1.19 0 0.02 3.68 -0.59 0 -0.02 -3.67 -1.19 0 -0.01 -0.57 2.98 -0.02zm0.61 0.79c-0.1,0 -0.19,-0.03 -0.26,-0.1 -0.07,-0.07 -0.1,-0.16 -0.1,-0.26 0,-0.1 0.03,-0.19 0.1,-0.26 0.07,-0.07 0.15,-0.11 0.26,-0.11 0.1,0 0.18,0.04 0.25,0.11 0.07,0.07 0.11,0.16 0.11,0.26 0,0.1 -0.03,0.18 -0.1,0.26 -0.07,0.07 -0.16,0.1 -0.26,0.1zm-0.28 3.46l-0.01 -3.04 0.59 0 0.02 3.04 -0.6 0zm7.11 -0.04l-0.01 -1.59c0,-0.5 -0.12,-0.87 -0.37,-1.12 -0.24,-0.25 -0.57,-0.37 -0.97,-0.37 -0.41,0.01 -0.73,0.13 -0.97,0.38 -0.24,0.25 -0.36,0.63 -0.36,1.12l0.01 1.6 0.59 -0.01 0 -1.59c-0.01,-0.61 0.24,-0.92 0.73,-0.92 0.5,0 0.74,0.3 0.75,0.91l0.01 1.6 0.59 -0.01zm8.42 0.01c-0.33,0 -0.61,-0.09 -0.84,-0.26 -0.23,-0.17 -0.35,-0.4 -0.35,-0.7l0.57 0c0,0.13 0.06,0.23 0.18,0.31 0.12,0.07 0.27,0.11 0.45,0.11 0.19,0 0.33,-0.04 0.43,-0.11 0.1,-0.07 0.15,-0.17 0.15,-0.29 0,-0.13 -0.06,-0.22 -0.18,-0.29 -0.12,-0.06 -0.26,-0.11 -0.43,-0.14 -0.17,-0.04 -0.34,-0.08 -0.51,-0.12 -0.17,-0.05 -0.32,-0.14 -0.44,-0.27 -0.12,-0.12 -0.18,-0.3 -0.18,-0.52 0,-0.25 0.1,-0.45 0.32,-0.61 0.21,-0.17 0.48,-0.25 0.8,-0.25 0.32,0 0.59,0.08 0.8,0.24 0.21,0.16 0.31,0.38 0.31,0.67l-0.57 0c0,-0.11 -0.05,-0.21 -0.16,-0.28 -0.11,-0.07 -0.24,-0.1 -0.39,-0.1 -0.15,0 -0.27,0.04 -0.37,0.1 -0.1,0.07 -0.15,0.16 -0.15,0.27 0,0.11 0.06,0.2 0.18,0.25 0.12,0.06 0.26,0.11 0.43,0.14 0.17,0.03 0.34,0.07 0.51,0.12 0.18,0.05 0.32,0.14 0.44,0.27 0.12,0.13 0.18,0.31 0.19,0.53 0,0.3 -0.1,0.53 -0.32,0.68 -0.22,0.16 -0.51,0.24 -0.87,0.25zm3.11 -0.02l-0.01 -0.58c0.24,0 0.42,-0.07 0.55,-0.22 0.13,-0.15 0.19,-0.36 0.19,-0.63l-0.01 -2.88 0.59 0 0.02 2.87c0,0.47 -0.12,0.82 -0.36,1.07 -0.25,0.24 -0.57,0.37 -0.97,0.37zm4.36 -3.11l-0.6 0 0.01 1.6c0,0.61 -0.24,0.91 -0.74,0.91 -0.49,0.01 -0.74,-0.29 -0.74,-0.9l-0.01 -1.6 -0.6 0 0.01 1.6c0,0.5 0.13,0.87 0.37,1.11 0.25,0.25 0.57,0.37 0.98,0.37 0.4,0 0.72,-0.13 0.97,-0.38 0.24,-0.25 0.36,-0.62 0.35,-1.11l0 -1.6zm1.03 3.03l-0.59 0 -0.03 -4.25 0.6 0 0.02 4.25zm0.83 -3.46c-0.1,0 -0.19,-0.04 -0.26,-0.11 -0.07,-0.07 -0.1,-0.15 -0.1,-0.25 0,-0.1 0.03,-0.19 0.1,-0.26 0.07,-0.07 0.16,-0.11 0.26,-0.11 0.1,0 0.19,0.03 0.26,0.1 0.07,0.08 0.1,0.16 0.1,0.26 0,0.1 -0.03,0.19 -0.1,0.26 -0.07,0.07 -0.15,0.11 -0.26,0.11zm-0.27 3.46l-0.02 -3.04 0.59 0 0.02 3.03 -0.59 0.01zm-23.15 -0.28c-0.3,-0.3 -0.45,-0.67 -0.45,-1.11 -0.01,-0.43 0.14,-0.8 0.44,-1.11 0.29,-0.31 0.66,-0.47 1.09,-0.47 0.41,0 0.77,0.14 1.08,0.41 0.31,0.28 0.48,0.64 0.5,1.1 0,0.1 -0.01,0.19 -0.02,0.27l-2.46 0.01c0.03,0.23 0.13,0.41 0.3,0.56 0.17,0.14 0.37,0.21 0.61,0.21 0.3,0 0.55,-0.1 0.73,-0.31l0.71 0c-0.13,0.27 -0.32,0.48 -0.58,0.64 -0.25,0.16 -0.53,0.25 -0.83,0.25 -0.44,0 -0.81,-0.15 -1.12,-0.45zm0.18 -1.38l1.84 -0.01c-0.06,-0.21 -0.17,-0.39 -0.34,-0.52 -0.17,-0.14 -0.36,-0.2 -0.58,-0.2 -0.23,0 -0.43,0.07 -0.59,0.2 -0.16,0.14 -0.27,0.31 -0.33,0.53zm8.95 0.22c0,0.43 -0.15,0.8 -0.45,1.11 -0.3,0.3 -0.67,0.46 -1.11,0.46 -0.43,0 -0.8,-0.15 -1.11,-0.45 -0.3,-0.31 -0.46,-0.67 -0.46,-1.11 0,-0.43 0.15,-0.8 0.45,-1.11 0.3,-0.31 0.67,-0.46 1.11,-0.46 0.39,-0.01 0.71,0.14 0.96,0.43l-0.01 -1.61 0.6 0 0.02 2.74zm-1.57 -0.99c-0.28,0.01 -0.51,0.1 -0.69,0.29 -0.19,0.19 -0.28,0.43 -0.28,0.71 0,0.28 0.1,0.51 0.28,0.7 0.19,0.19 0.42,0.29 0.7,0.28 0.28,0 0.51,-0.09 0.69,-0.29 0.19,-0.19 0.28,-0.42 0.28,-0.7 0,-0.28 -0.1,-0.51 -0.29,-0.7 -0.19,-0.19 -0.42,-0.29 -0.69,-0.29zm3.48 2.54c-0.44,0.01 -0.81,-0.15 -1.11,-0.45 -0.31,-0.3 -0.47,-0.67 -0.47,-1.11 0,-0.43 0.15,-0.8 0.45,-1.11 0.31,-0.31 0.68,-0.46 1.11,-0.46 0.43,-0.01 0.8,0.15 1.11,0.45 0.3,0.3 0.46,0.67 0.46,1.11l0.01 1.52 -0.6 0 0 -0.48c-0.07,0.15 -0.2,0.27 -0.38,0.38 -0.18,0.1 -0.37,0.15 -0.58,0.15zm-0.7 -0.86c0.19,0.19 0.42,0.29 0.7,0.29 0.28,-0.01 0.5,-0.1 0.69,-0.29 0.18,-0.2 0.27,-0.43 0.27,-0.71 0,-0.28 -0.09,-0.51 -0.28,-0.7 -0.18,-0.19 -0.42,-0.29 -0.69,-0.29 -0.28,0.01 -0.51,0.1 -0.7,0.29 -0.18,0.2 -0.28,0.43 -0.27,0.71 0,0.28 0.09,0.51 0.28,0.7zm15.36 -1.78c-0.28,0.01 -0.52,0.1 -0.7,0.29 -0.19,0.2 -0.28,0.43 -0.28,0.71 0,0.28 0.1,0.51 0.29,0.7 0.19,0.19 0.42,0.29 0.7,0.29 0.27,-0.01 0.5,-0.1 0.69,-0.29 0.18,-0.2 0.27,-0.43 0.27,-0.71 0,-0.28 -0.1,-0.51 -0.28,-0.7 -0.19,-0.19 -0.42,-0.29 -0.69,-0.29zm-24.05 22.93l5.84 -0.03 -0.1 -17.99 -5.84 0.04 0.1 17.98zm7.54 -0.04l2.87 -0.02 -0.1 -17.98 -2.87 0.02 0.1 17.98zm4.99 -0.03l2.87 -0.02 -0.1 -17.98 -2.87 0.02 0.1 17.98zm6.05 -0.03l2.87 -0.02 -0.1 -17.98 -2.87 0.01 0.1 17.99zm4.46 -0.03l5.84 -0.03 -0.1 -17.98 -5.84 0.03 0.1 17.98zm-29.3 0.16l2.86 -0.01 -0.1 -17.98 -2.86 0.01 0.1 17.98zm0.02 3.44l0 -0.54 2.26 -0.02 0.01 0.55 -2.27 0.01zm2.64 2.47l-0.01 -2.16 0.56 0 0.01 2.16 -0.56 0zm0.27 -2.39c-0.1,0 -0.18,-0.04 -0.25,-0.11 -0.08,-0.07 -0.11,-0.15 -0.11,-0.25 0,-0.1 0.03,-0.19 0.1,-0.26 0.07,-0.06 0.16,-0.1 0.26,-0.1 0.09,0 0.18,0.03 0.25,0.1 0.07,0.07 0.1,0.15 0.1,0.25 0,0.1 -0.03,0.19 -0.1,0.26 -0.07,0.07 -0.15,0.1 -0.25,0.11zm1.85 2.45c-0.21,0 -0.41,-0.05 -0.58,-0.15 -0.17,-0.1 -0.31,-0.23 -0.4,-0.4 -0.1,-0.17 -0.15,-0.37 -0.15,-0.59 0,-0.2 0.04,-0.4 0.14,-0.57 0.09,-0.18 0.22,-0.32 0.39,-0.42 0.16,-0.11 0.36,-0.16 0.57,-0.17 0.23,0 0.43,0.05 0.58,0.15 0.16,0.1 0.28,0.23 0.37,0.39 0.08,0.17 0.12,0.35 0.12,0.55 0,0.04 0,0.08 0,0.12 0,0.03 -0.01,0.05 -0.01,0.07l-1.85 0.01 -0.01 -0.4 1.34 0c-0.01,-0.05 -0.02,-0.1 -0.05,-0.15 -0.02,-0.05 -0.06,-0.1 -0.1,-0.14 -0.05,-0.04 -0.1,-0.08 -0.17,-0.1 -0.06,-0.03 -0.13,-0.04 -0.21,-0.04 -0.11,0 -0.21,0.03 -0.3,0.08 -0.09,0.06 -0.16,0.14 -0.21,0.24 -0.05,0.1 -0.07,0.22 -0.07,0.36 0,0.14 0.03,0.26 0.08,0.36 0.06,0.1 0.13,0.18 0.22,0.23 0.09,0.05 0.2,0.08 0.31,0.08 0.13,0 0.24,-0.03 0.33,-0.09 0.09,-0.06 0.16,-0.13 0.21,-0.22l0.45 0.22c-0.1,0.17 -0.23,0.32 -0.39,0.42 -0.17,0.1 -0.37,0.16 -0.61,0.16zm1.48 -0.08l-0.02 -2.16 0.52 0 0.01 0.27 0.03 0c0.06,-0.1 0.15,-0.19 0.27,-0.25 0.12,-0.06 0.25,-0.09 0.39,-0.09 0.26,0 0.46,0.08 0.59,0.24 0.14,0.16 0.21,0.37 0.21,0.64l0 1.34 -0.55 0 -0.01 -1.27c0,-0.14 -0.03,-0.25 -0.11,-0.32 -0.07,-0.08 -0.17,-0.11 -0.29,-0.11 -0.1,0 -0.19,0.02 -0.26,0.08 -0.08,0.06 -0.14,0.13 -0.18,0.22 -0.04,0.09 -0.06,0.2 -0.06,0.31l0.01 1.1 -0.55 0zm3.46 0.05c-0.2,0 -0.38,-0.05 -0.54,-0.14 -0.16,-0.1 -0.28,-0.23 -0.37,-0.4 -0.1,-0.18 -0.14,-0.37 -0.15,-0.6 0,-0.23 0.05,-0.43 0.14,-0.6 0.09,-0.17 0.21,-0.31 0.37,-0.4 0.16,-0.1 0.34,-0.15 0.53,-0.15 0.11,0 0.2,0.01 0.29,0.04 0.08,0.03 0.16,0.07 0.22,0.12 0.06,0.05 0.11,0.11 0.14,0.16l0.04 0 -0.04 -0.3 0 -0.83 0.55 0 0.01 3.03 -0.51 0 0 -0.26 -0.04 0c-0.03,0.06 -0.08,0.11 -0.14,0.16 -0.06,0.05 -0.14,0.09 -0.22,0.12 -0.09,0.03 -0.18,0.05 -0.28,0.05zm0.09 -0.51c0.1,0 0.2,-0.03 0.29,-0.08 0.08,-0.06 0.16,-0.13 0.21,-0.23 0.05,-0.09 0.08,-0.2 0.08,-0.33 0,-0.13 -0.03,-0.24 -0.08,-0.33 -0.06,-0.1 -0.13,-0.17 -0.22,-0.22 -0.09,-0.05 -0.19,-0.08 -0.29,-0.08 -0.1,0 -0.2,0.03 -0.29,0.08 -0.08,0.06 -0.16,0.13 -0.21,0.22 -0.06,0.1 -0.08,0.21 -0.08,0.34 0,0.12 0.03,0.23 0.08,0.33 0.06,0.1 0.13,0.17 0.22,0.22 0.09,0.05 0.18,0.08 0.29,0.08zm2.29 0.5c-0.15,0 -0.29,-0.03 -0.41,-0.09 -0.11,-0.06 -0.21,-0.15 -0.28,-0.26 -0.06,-0.11 -0.1,-0.23 -0.1,-0.38 0,-0.15 0.04,-0.27 0.12,-0.38 0.07,-0.11 0.18,-0.19 0.31,-0.25 0.13,-0.06 0.27,-0.09 0.43,-0.09 0.09,-0.01 0.17,0 0.24,0.01 0.08,0.01 0.14,0.02 0.2,0.03 0.05,0.02 0.1,0.03 0.14,0.05l0 -0.09c-0.01,-0.12 -0.05,-0.21 -0.14,-0.29 -0.09,-0.07 -0.21,-0.11 -0.36,-0.11 -0.1,0 -0.2,0.03 -0.29,0.07 -0.1,0.05 -0.17,0.11 -0.24,0.19l-0.35 -0.28c0.07,-0.09 0.15,-0.17 0.24,-0.23 0.09,-0.06 0.2,-0.11 0.31,-0.15 0.11,-0.03 0.23,-0.05 0.36,-0.05 0.33,0 0.58,0.08 0.75,0.23 0.17,0.15 0.26,0.37 0.26,0.66l0.01 1.33 -0.55 0.01 0 -0.22 -0.03 0c-0.04,0.05 -0.09,0.09 -0.15,0.14 -0.06,0.04 -0.13,0.08 -0.21,0.11 -0.07,0.02 -0.16,0.04 -0.26,0.04zm0.13 -0.44c0.11,0 0.2,-0.02 0.28,-0.07 0.08,-0.05 0.14,-0.12 0.18,-0.19 0.04,-0.08 0.06,-0.17 0.06,-0.25 -0.06,-0.03 -0.13,-0.06 -0.21,-0.08 -0.08,-0.02 -0.16,-0.02 -0.25,-0.02 -0.16,0 -0.27,0.03 -0.33,0.09 -0.06,0.06 -0.1,0.14 -0.09,0.23 0,0.09 0.03,0.16 0.09,0.21 0.06,0.06 0.15,0.09 0.27,0.08zm2.38 0.42c-0.19,0 -0.34,-0.02 -0.48,-0.07 -0.13,-0.06 -0.23,-0.13 -0.32,-0.21 -0.08,-0.09 -0.14,-0.19 -0.18,-0.29l0.49 -0.22c0.05,0.1 0.12,0.18 0.2,0.23 0.08,0.05 0.18,0.08 0.29,0.08 0.09,0 0.17,-0.02 0.24,-0.05 0.08,-0.03 0.11,-0.08 0.11,-0.16 0,-0.06 -0.02,-0.1 -0.06,-0.14 -0.03,-0.03 -0.08,-0.05 -0.14,-0.07 -0.05,-0.02 -0.11,-0.03 -0.17,-0.04l-0.26 -0.06c-0.1,-0.02 -0.2,-0.06 -0.29,-0.12 -0.1,-0.05 -0.17,-0.13 -0.23,-0.22 -0.06,-0.08 -0.09,-0.19 -0.09,-0.3 0,-0.13 0.04,-0.24 0.11,-0.34 0.08,-0.1 0.18,-0.17 0.31,-0.23 0.12,-0.05 0.26,-0.08 0.42,-0.08 0.14,0 0.27,0.02 0.39,0.05 0.11,0.03 0.22,0.08 0.3,0.15 0.09,0.07 0.15,0.16 0.2,0.27l-0.47 0.21c-0.04,-0.09 -0.1,-0.15 -0.17,-0.18 -0.08,-0.04 -0.15,-0.05 -0.24,-0.05 -0.09,0 -0.17,0.02 -0.22,0.06 -0.06,0.03 -0.09,0.08 -0.09,0.13 0,0.05 0.03,0.1 0.09,0.14 0.05,0.03 0.12,0.06 0.2,0.08l0.32 0.08c0.21,0.05 0.38,0.13 0.49,0.24 0.1,0.11 0.16,0.25 0.16,0.41 0,0.14 -0.04,0.26 -0.12,0.37 -0.08,0.1 -0.19,0.19 -0.33,0.24 -0.14,0.06 -0.29,0.09 -0.46,0.09zm2.16 -0.01c-0.24,0 -0.45,-0.06 -0.63,-0.19 -0.18,-0.13 -0.3,-0.31 -0.37,-0.54l0.52 -0.21c0.04,0.13 0.1,0.23 0.18,0.3 0.08,0.07 0.18,0.1 0.3,0.1 0.13,0 0.23,-0.04 0.31,-0.13 0.07,-0.08 0.11,-0.2 0.11,-0.35l-0.02 -2.08 0.57 0 0.02 2.07c0,0.22 -0.05,0.41 -0.13,0.57 -0.09,0.15 -0.21,0.26 -0.36,0.34 -0.15,0.08 -0.31,0.12 -0.5,0.12zm2.3 -0.01c-0.27,0 -0.47,-0.08 -0.6,-0.24 -0.14,-0.17 -0.2,-0.39 -0.21,-0.67l0 -1.31 0.55 -0.01 0.01 1.25c0,0.15 0.04,0.26 0.11,0.34 0.07,0.09 0.16,0.13 0.28,0.13 0.11,0 0.2,-0.03 0.27,-0.09 0.08,-0.05 0.14,-0.13 0.18,-0.22 0.04,-0.09 0.06,-0.2 0.06,-0.31l-0.01 -1.1 0.56 0 0.01 2.15 -0.52 0.01 0 -0.27 -0.04 0c-0.04,0.06 -0.09,0.12 -0.16,0.18 -0.07,0.05 -0.14,0.09 -0.23,0.12 -0.08,0.02 -0.17,0.04 -0.26,0.04zm1.75 -0.08l-0.01 -3.03 0.55 0 0.02 3.03 -0.56 0zm1.14 0l-0.01 -2.16 0.55 -0.01 0.01 2.16 -0.55 0.01zm0.26 -2.4c-0.09,0 -0.18,-0.03 -0.25,-0.11 -0.07,-0.06 -0.11,-0.15 -0.11,-0.25 0,-0.1 0.04,-0.18 0.11,-0.25 0.07,-0.07 0.15,-0.1 0.25,-0.11 0.1,0 0.18,0.04 0.25,0.11 0.07,0.07 0.11,0.15 0.11,0.25 0,0.1 -0.04,0.18 -0.1,0.25 -0.07,0.07 -0.16,0.11 -0.26,0.11zm1.88 2.45c-0.23,0 -0.43,-0.05 -0.6,-0.15 -0.17,-0.09 -0.31,-0.23 -0.41,-0.4 -0.1,-0.18 -0.15,-0.37 -0.15,-0.59 0,-0.22 0.05,-0.41 0.14,-0.59 0.1,-0.17 0.24,-0.31 0.41,-0.41 0.17,-0.1 0.37,-0.15 0.6,-0.15 0.22,0 0.42,0.05 0.59,0.15 0.18,0.1 0.31,0.23 0.41,0.41 0.1,0.17 0.15,0.36 0.15,0.58 0,0.22 -0.05,0.41 -0.14,0.59 -0.1,0.17 -0.23,0.31 -0.41,0.41 -0.17,0.1 -0.37,0.15 -0.59,0.15zm0 -0.51c0.1,-0.01 0.2,-0.03 0.29,-0.08 0.09,-0.05 0.16,-0.12 0.21,-0.22 0.06,-0.09 0.09,-0.21 0.09,-0.34 -0.01,-0.13 -0.03,-0.24 -0.09,-0.34 -0.05,-0.09 -0.13,-0.16 -0.22,-0.21 -0.09,-0.05 -0.18,-0.08 -0.29,-0.08 -0.1,0.01 -0.2,0.03 -0.29,0.08 -0.1,0.05 -0.17,0.13 -0.22,0.22 -0.06,0.09 -0.08,0.21 -0.08,0.34 0,0.13 0.03,0.24 0.08,0.34 0.06,0.09 0.13,0.16 0.22,0.21 0.09,0.05 0.19,0.08 0.3,0.08zm1.9 0.46c-0.1,0 -0.19,-0.04 -0.26,-0.11 -0.07,-0.07 -0.11,-0.16 -0.11,-0.26 0,-0.1 0.04,-0.19 0.11,-0.26 0.07,-0.07 0.16,-0.1 0.26,-0.1 0.1,0 0.19,0.03 0.26,0.1 0.07,0.07 0.11,0.16 0.11,0.26 0,0.1 -0.04,0.19 -0.11,0.26 -0.07,0.07 -0.16,0.11 -0.26,0.11zm1.89 0.03c-0.22,0 -0.41,-0.05 -0.58,-0.14 -0.17,-0.1 -0.31,-0.23 -0.41,-0.41 -0.1,-0.17 -0.15,-0.37 -0.15,-0.59 0,-0.22 0.05,-0.42 0.15,-0.59 0.09,-0.17 0.23,-0.31 0.4,-0.41 0.17,-0.1 0.36,-0.15 0.58,-0.15 0.24,0 0.45,0.05 0.62,0.15 0.17,0.1 0.3,0.24 0.37,0.43l-0.5 0.22c-0.05,-0.1 -0.11,-0.17 -0.19,-0.22 -0.09,-0.04 -0.18,-0.07 -0.3,-0.07 -0.11,0 -0.2,0.03 -0.29,0.08 -0.09,0.06 -0.16,0.13 -0.21,0.22 -0.05,0.1 -0.07,0.21 -0.07,0.34 0,0.13 0.02,0.24 0.08,0.33 0.05,0.1 0.12,0.17 0.2,0.22 0.09,0.05 0.19,0.08 0.3,0.08 0.13,0 0.23,-0.03 0.31,-0.09 0.08,-0.05 0.15,-0.13 0.2,-0.22l0.49 0.21c-0.08,0.19 -0.21,0.33 -0.38,0.44 -0.17,0.11 -0.38,0.17 -0.62,0.17zm2.42 -0.01c-0.22,0 -0.42,-0.05 -0.6,-0.15 -0.17,-0.1 -0.31,-0.23 -0.4,-0.41 -0.1,-0.17 -0.15,-0.37 -0.15,-0.58 0,-0.22 0.04,-0.42 0.14,-0.59 0.1,-0.17 0.23,-0.31 0.4,-0.41 0.18,-0.1 0.38,-0.15 0.6,-0.16 0.23,0 0.43,0.05 0.6,0.15 0.17,0.1 0.31,0.24 0.4,0.41 0.1,0.17 0.15,0.37 0.15,0.59 0,0.21 -0.04,0.41 -0.14,0.58 -0.1,0.18 -0.23,0.31 -0.4,0.41 -0.17,0.11 -0.37,0.16 -0.6,0.16zm0 -0.52c0.11,0 0.21,-0.02 0.29,-0.07 0.09,-0.05 0.16,-0.13 0.22,-0.22 0.05,-0.1 0.08,-0.21 0.08,-0.34 0,-0.13 -0.03,-0.25 -0.09,-0.34 -0.05,-0.09 -0.12,-0.16 -0.21,-0.21 -0.09,-0.06 -0.19,-0.08 -0.29,-0.08 -0.11,0 -0.21,0.03 -0.3,0.08 -0.09,0.05 -0.16,0.12 -0.22,0.22 -0.05,0.09 -0.08,0.2 -0.08,0.33 0,0.14 0.03,0.25 0.08,0.34 0.06,0.1 0.13,0.17 0.23,0.22 0.09,0.05 0.19,0.07 0.29,0.07zm1.53 0.44l-0.01 -2.16 0.52 0 0 0.27 0.03 0c0.05,-0.07 0.1,-0.13 0.17,-0.18 0.06,-0.05 0.14,-0.09 0.22,-0.12 0.08,-0.03 0.17,-0.04 0.27,-0.04 0.16,0 0.29,0.03 0.4,0.11 0.11,0.07 0.19,0.16 0.24,0.27 0.06,-0.11 0.15,-0.2 0.27,-0.27 0.12,-0.08 0.27,-0.12 0.45,-0.12 0.25,0 0.44,0.08 0.57,0.23 0.12,0.15 0.19,0.35 0.19,0.61l0.01 1.38 -0.55 0.01 -0.01 -1.29c0,-0.14 -0.04,-0.24 -0.1,-0.31 -0.07,-0.08 -0.15,-0.11 -0.26,-0.11 -0.1,0 -0.18,0.03 -0.25,0.08 -0.08,0.05 -0.13,0.12 -0.17,0.22 -0.04,0.09 -0.05,0.2 -0.05,0.32l0 1.09 -0.55 0 -0.01 -1.28c0,-0.14 -0.03,-0.25 -0.1,-0.32 -0.07,-0.07 -0.16,-0.1 -0.28,-0.1 -0.09,0 -0.17,0.02 -0.24,0.08 -0.07,0.05 -0.12,0.12 -0.16,0.22 -0.03,0.09 -0.05,0.2 -0.05,0.32l0 1.09 -0.55 0z"/>
   </g>
  </g>
  <polygon class="fil1" points="0,0 62.65,0 62.65,42.76 0,42.76 "/>
 </g>
</svg>
