<?xml version="1.0" encoding="UTF-8"?>
<!DOCTYPE svg PUBLIC "-//W3C//DTD SVG 1.1//EN" "http://www.w3.org/Graphics/SVG/1.1/DTD/svg11.dtd">
<!-- Creator: CorelDRAW -->
<svg xmlns="http://www.w3.org/2000/svg" xml:space="preserve" width="136px" height="136px" version="1.1" style="shape-rendering:geometricPrecision; text-rendering:geometricPrecision; image-rendering:optimizeQuality; fill-rule:evenodd; clip-rule:evenodd"
viewBox="0 0 7.07 7.07"
 xmlns:xlink="http://www.w3.org/1999/xlink"
 xmlns:xodm="http://www.corel.com/coreldraw/odm/2003">
 <defs>
  <style type="text/css">
   <![CDATA[
    .fil1 {fill:none}
    .fil0 {fill:white}
   ]]>
  </style>
   <clipPath id="id0">
    <path d="M0 0l7.07 0 0 7.07 -7.07 0 0 -7.07z"/>
   </clipPath>
 </defs>
 <g id="Capa_x0020_1">
  <metadata id="CorelCorpID_0Corel-Layer"/>
  <g>
  </g>
  <g style="clip-path:url(#id0)">
   <g id="_3107913273968">
    <path class="fil0" d="M3.43 6.87c-0.26,0.26 -0.69,0.26 -0.95,0l-2.29 -2.29c-0.25,-0.26 -0.25,-0.68 0,-0.94 1.16,-1.16 2.32,-2.32 3.48,-3.48 0.1,-0.1 0.24,-0.16 0.39,-0.16l2.44 0.02c0.3,0 0.55,0.25 0.55,0.55l0.02 2.44c0,0.15 -0.06,0.28 -0.16,0.38 -1.16,1.16 -2.32,2.32 -3.48,3.48zm2.61 -5.85c0.2,0.2 0.2,0.52 0,0.72 -0.19,0.19 -0.51,0.19 -0.71,0 -0.2,-0.2 -0.2,-0.52 0,-0.72 0.2,-0.19 0.52,-0.19 0.71,0zm-2.87 5.59l-0.25 -0.25 0.05 -0.06 0.25 0.25 -0.05 0.06zm-0.03 -5.21c0,-0.06 0.02,-0.1 0.06,-0.14 0.04,-0.04 0.08,-0.06 0.14,-0.06 0.05,0 0.1,0.02 0.14,0.06 0.04,0.04 0.06,0.08 0.06,0.14 0,0.06 -0.02,0.1 -0.06,0.14 -0.04,0.04 -0.09,0.06 -0.14,0.06 -0.06,0 -0.1,-0.02 -0.14,-0.06 -0.04,-0.04 -0.06,-0.08 -0.06,-0.14zm0.28 -0.33l-0.1 -0.1 -0.04 0.03 -0.02 -0.02 0.1 -0.1 0.02 0.02 -0.03 0.04 0.1 0.1 -0.03 0.03zm0.08 -0.08l-0.12 -0.13 0.03 -0.03 0.13 0.05 0 0 -0.06 -0.12 0.04 -0.04 0.12 0.13 -0.02 0.02 -0.07 -0.06 -0.02 -0.03 0 0 0.05 0.13 -0.01 0.02 -0.13 -0.06 0 0 0.02 0.03 0.07 0.06 -0.03 0.03zm-2.9 2.66l0.05 0.05 -0.11 0.11 0.33 0.33 -0.05 0.05 -0.33 -0.33 -0.11 0.11 -0.05 -0.05 0.27 -0.27zm0.12 0.01c-0.01,0.01 -0.02,0.02 -0.03,0.02 -0.01,0 -0.02,-0.01 -0.03,-0.02 -0.01,-0.01 -0.02,-0.02 -0.02,-0.03 0,-0.01 0.01,-0.02 0.02,-0.03 0.01,-0.01 0.02,-0.02 0.03,-0.02 0.01,0 0.02,0.01 0.03,0.02 0.01,0.01 0.02,0.02 0.02,0.03 0,0.01 -0.01,0.02 -0.02,0.03zm0.29 0.34l-0.28 -0.27 0.06 -0.06 0.27 0.28 -0.05 0.05zm0.65 -0.64l-0.15 -0.15c-0.04,-0.04 -0.09,-0.06 -0.13,-0.07 -0.05,0 -0.09,0.02 -0.13,0.06 -0.03,0.04 -0.05,0.08 -0.05,0.12 0,0.05 0.02,0.09 0.07,0.14l0.14 0.14 0.06 -0.05 -0.15 -0.15c-0.05,-0.05 -0.06,-0.1 -0.01,-0.15 0.04,-0.04 0.09,-0.04 0.15,0.02l0.14 0.14 0.06 -0.05zm0.77 -0.76c-0.03,0.03 -0.07,0.05 -0.1,0.05 -0.04,0.01 -0.07,0 -0.1,-0.03l0.05 -0.05c0.01,0.01 0.03,0.01 0.05,0.01 0.01,-0.01 0.03,-0.02 0.05,-0.03 0.02,-0.02 0.03,-0.04 0.03,-0.05 0,-0.02 0,-0.03 -0.01,-0.04 -0.02,-0.01 -0.03,-0.02 -0.05,-0.01 -0.01,0 -0.03,0.01 -0.05,0.02 -0.02,0.02 -0.04,0.03 -0.06,0.04 -0.02,0.01 -0.04,0.02 -0.06,0.02 -0.02,-0.01 -0.04,-0.02 -0.06,-0.04 -0.03,-0.02 -0.04,-0.05 -0.03,-0.08 0,-0.04 0.02,-0.07 0.05,-0.1 0.03,-0.03 0.06,-0.04 0.09,-0.05 0.04,0 0.07,0.01 0.09,0.04l-0.05 0.05c-0.01,-0.01 -0.02,-0.02 -0.04,-0.01 -0.01,0 -0.03,0.01 -0.04,0.02 -0.02,0.02 -0.03,0.03 -0.03,0.05 0,0.01 0,0.02 0.01,0.03 0.01,0.01 0.03,0.02 0.04,0.01 0.02,0 0.04,-0.01 0.05,-0.03 0.02,-0.01 0.04,-0.02 0.06,-0.03 0.02,-0.01 0.04,-0.02 0.07,-0.02 0.02,0.01 0.04,0.02 0.06,0.04 0.03,0.02 0.04,0.05 0.03,0.09 0,0.03 -0.02,0.06 -0.05,0.1zm0.28 -0.28l-0.05 -0.06c0.02,-0.02 0.03,-0.04 0.03,-0.07 -0.01,-0.02 -0.02,-0.05 -0.04,-0.07l-0.27 -0.26 0.06 -0.06 0.26 0.26c0.04,0.05 0.06,0.09 0.06,0.13 0,0.05 -0.02,0.09 -0.05,0.13zm0.12 -0.68l-0.06 0.05 0.15 0.15c0.05,0.05 0.06,0.1 0.01,0.15 -0.04,0.04 -0.09,0.04 -0.15,-0.02l-0.14 -0.14 -0.06 0.05 0.15 0.15c0.04,0.04 0.09,0.06 0.13,0.06 0.05,0 0.09,-0.01 0.12,-0.05 0.04,-0.04 0.06,-0.08 0.06,-0.12 0,-0.05 -0.02,-0.09 -0.07,-0.14l-0.14 -0.14zm0.36 0.18l-0.05 0.05 -0.39 -0.38 0.06 -0.06 0.38 0.39zm-0.23 -0.39c-0.01,0.01 -0.02,0.01 -0.04,0.01 -0.01,0 -0.02,0 -0.03,-0.01 -0.01,-0.01 -0.01,-0.02 -0.01,-0.03 0,-0.02 0,-0.03 0.01,-0.04 0.01,-0.01 0.02,-0.01 0.03,-0.01 0.02,0 0.03,0 0.04,0.01 0.01,0.01 0.01,0.02 0.01,0.04 0,0.01 0,0.02 -0.01,0.03zm0.28 0.34l-0.27 -0.28 0.05 -0.05 0.28 0.28 -0.06 0.05zm-2.14 2.07c-0.05,0 -0.1,-0.02 -0.14,-0.06 -0.04,-0.04 -0.06,-0.09 -0.06,-0.15 0,-0.05 0.02,-0.1 0.06,-0.14 0.04,-0.03 0.08,-0.05 0.14,-0.06 0.05,0 0.1,0.02 0.14,0.06 0.01,0.01 0.02,0.02 0.02,0.02l-0.22 0.23c0.02,0.02 0.05,0.02 0.08,0.02 0.03,0 0.05,-0.01 0.07,-0.03 0.03,-0.03 0.04,-0.06 0.04,-0.1l0.07 -0.06c0.01,0.03 0.01,0.07 0,0.11 -0.01,0.04 -0.03,0.07 -0.05,0.1 -0.04,0.04 -0.09,0.06 -0.15,0.06zm-0.1 -0.15l0.16 -0.16c-0.02,-0.02 -0.05,-0.02 -0.07,-0.02 -0.03,0 -0.06,0.01 -0.08,0.03 -0.02,0.02 -0.03,0.05 -0.03,0.08 0,0.02 0,0.05 0.02,0.07zm0.83 -0.78c0.04,0.03 0.06,0.08 0.06,0.14 0,0.05 -0.02,0.1 -0.06,0.14 -0.04,0.04 -0.08,0.06 -0.14,0.06 -0.05,0 -0.1,-0.02 -0.14,-0.06 -0.04,-0.04 -0.06,-0.09 -0.06,-0.14 0,-0.06 0.02,-0.11 0.06,-0.15 0.03,-0.03 0.08,-0.05 0.13,-0.04l-0.15 -0.15 0.05 -0.05 0.25 0.25zm-0.23 0.05c-0.02,0.02 -0.04,0.05 -0.04,0.09 0,0.03 0.02,0.06 0.04,0.09 0.03,0.02 0.06,0.03 0.09,0.03 0.04,0 0.07,-0.01 0.09,-0.03 0.03,-0.03 0.04,-0.06 0.04,-0.09 0,-0.04 -0.02,-0.07 -0.04,-0.09 -0.03,-0.03 -0.06,-0.04 -0.09,-0.04 -0.03,0 -0.06,0.01 -0.09,0.04zm0.55 -0.09c-0.04,0.04 -0.09,0.06 -0.14,0.06 -0.06,0 -0.11,-0.02 -0.15,-0.06 -0.04,-0.03 -0.06,-0.08 -0.06,-0.14 0,-0.05 0.02,-0.1 0.06,-0.14 0.04,-0.04 0.09,-0.06 0.15,-0.06 0.05,0 0.1,0.02 0.14,0.06l0.14 0.14 -0.06 0.05 -0.04 -0.04c0,0.02 0,0.04 0,0.07 -0.01,0.02 -0.02,0.05 -0.04,0.06zm-0.14 -0.01c0.03,0 0.06,-0.01 0.09,-0.04 0.02,-0.02 0.03,-0.05 0.03,-0.09 0,-0.03 -0.01,-0.06 -0.04,-0.09 -0.02,-0.02 -0.05,-0.03 -0.08,-0.03 -0.04,-0.01 -0.07,0.01 -0.09,0.03 -0.03,0.03 -0.04,0.06 -0.04,0.09 0,0.04 0.01,0.07 0.04,0.09 0.02,0.03 0.05,0.04 0.09,0.04zm1.24 -1.55c-0.03,0.02 -0.04,0.05 -0.04,0.09 0,0.03 0.01,0.06 0.04,0.09 0.03,0.02 0.05,0.04 0.09,0.04 0.03,0 0.06,-0.02 0.09,-0.04 0.02,-0.03 0.04,-0.06 0.04,-0.09 0,-0.03 -0.02,-0.06 -0.04,-0.09 -0.03,-0.02 -0.06,-0.04 -0.09,-0.04 -0.04,0 -0.07,0.01 -0.09,0.04zm-0.13 4.27l0.53 -0.53 -1.63 -1.64 -0.53 0.53 1.63 1.64zm0.69 -0.69l0.26 -0.26 -1.63 -1.63 -0.27 0.26 1.64 1.63zm0.45 -0.45l0.26 -0.26 -1.63 -1.64 -0.26 0.26 1.63 1.64zm0.55 -0.55l0.26 -0.26 -1.63 -1.64 -0.26 0.26 1.63 1.64zm0.41 -0.41l0.53 -0.53 -1.64 -1.63 -0.53 0.53 1.64 1.63zm-2.67 2.67l0.27 -0.27 -1.64 -1.63 -0.26 0.26 1.63 1.64zm0.32 0.31l-0.05 -0.05 0.2 -0.21 0.05 0.05 -0.2 0.21zm0.46 -0.02l-0.19 -0.19 0.05 -0.05 0.19 0.19 -0.05 0.05zm-0.19 -0.24c-0.01,0.01 -0.02,0.01 -0.03,0.01 -0.02,0 -0.03,0 -0.04,-0.01 0,-0.01 -0.01,-0.02 -0.01,-0.03 0,-0.01 0.01,-0.02 0.01,-0.03 0.01,-0.01 0.02,-0.02 0.04,-0.02 0.01,0 0.02,0.01 0.03,0.02 0.01,0.01 0.01,0.02 0.01,0.03 0,0.01 0,0.02 -0.01,0.03zm0.39 0.06c-0.02,0.02 -0.04,0.03 -0.07,0.04 -0.02,0 -0.04,0 -0.07,0 -0.02,-0.01 -0.05,-0.02 -0.07,-0.04 -0.01,-0.02 -0.03,-0.04 -0.03,-0.07 -0.01,-0.02 -0.01,-0.05 -0.01,-0.07 0.01,-0.03 0.02,-0.05 0.04,-0.07 0.02,-0.02 0.04,-0.03 0.07,-0.04 0.02,0 0.04,0 0.07,0 0.02,0.01 0.04,0.03 0.06,0.04 0,0.01 0,0.01 0.01,0.01 0,0.01 0,0.01 0,0.01l-0.17 0.17 -0.03 -0.04 0.12 -0.12c-0.01,0 -0.01,0 -0.02,-0.01 0,0 -0.01,0 -0.02,0 -0.01,0 -0.02,0 -0.02,0.01 -0.01,0 -0.02,0 -0.03,0.01 -0.01,0.01 -0.01,0.02 -0.02,0.04 0,0.01 0,0.02 0.01,0.04 0,0.01 0.01,0.02 0.02,0.04 0.01,0.01 0.03,0.02 0.04,0.02 0.02,0.01 0.03,0.01 0.04,0 0.02,0 0.03,-0.01 0.04,-0.02 0.01,-0.01 0.02,-0.02 0.02,-0.04 0,-0.01 0,-0.02 0,-0.04l0.06 -0.02c0.01,0.03 0.01,0.05 0,0.08 0,0.02 -0.02,0.05 -0.04,0.07zm0.13 -0.14l-0.2 -0.2 0.05 -0.05 0.02 0.03 0.01 0c-0.01,-0.02 -0.01,-0.04 0,-0.05 0.01,-0.02 0.01,-0.03 0.03,-0.04 0.02,-0.03 0.05,-0.04 0.07,-0.04 0.03,0.01 0.05,0.02 0.08,0.04l0.12 0.13 -0.05 0.05 -0.12 -0.12c-0.01,-0.01 -0.02,-0.02 -0.03,-0.02 -0.02,0 -0.03,0.01 -0.04,0.02 -0.01,0.01 -0.02,0.02 -0.02,0.03 0,0.01 0,0.02 0.01,0.03 0,0.02 0.01,0.03 0.02,0.04l0.1 0.1 -0.05 0.05zm0.32 -0.31c-0.02,0.02 -0.04,0.03 -0.06,0.03 -0.03,0.01 -0.05,0.01 -0.07,0 -0.03,-0.01 -0.05,-0.02 -0.07,-0.04 -0.02,-0.02 -0.03,-0.04 -0.04,-0.07 -0.01,-0.02 -0.01,-0.04 0,-0.07 0,-0.02 0.01,-0.04 0.03,-0.06 0.01,-0.01 0.02,-0.02 0.03,-0.02 0.01,-0.01 0.02,-0.01 0.03,-0.01 0.01,0 0.02,0 0.03,0l0 0 -0.03 -0.03 -0.07 -0.07 0.05 -0.05 0.27 0.27 -0.05 0.05 -0.02 -0.02 0 0c0,0.01 0,0.02 0,0.03 0,0.01 0,0.02 -0.01,0.03 0,0.01 -0.01,0.02 -0.02,0.03zm-0.04 -0.06c0.01,-0.01 0.02,-0.02 0.02,-0.03 0,-0.01 0,-0.03 0,-0.04 0,-0.01 -0.01,-0.03 -0.02,-0.04 -0.01,-0.01 -0.03,-0.02 -0.04,-0.02 -0.01,0 -0.03,0 -0.04,0 -0.01,0 -0.02,0.01 -0.03,0.02 -0.01,0.01 -0.02,0.02 -0.02,0.03 -0.01,0.02 -0.01,0.03 0,0.04 0,0.02 0.01,0.03 0.02,0.04 0.01,0.01 0.02,0.02 0.04,0.02 0.01,0.01 0.02,0.01 0.04,0 0.01,0 0.02,-0.01 0.03,-0.02zm0.26 -0.16c-0.02,0.02 -0.03,0.03 -0.05,0.03 -0.02,0.01 -0.03,0.01 -0.05,0 -0.01,0 -0.03,-0.01 -0.04,-0.02 -0.02,-0.02 -0.02,-0.03 -0.03,-0.05 0,-0.01 0,-0.03 0.01,-0.05 0.01,-0.02 0.02,-0.03 0.03,-0.05 0.01,0 0.02,-0.01 0.02,-0.02 0.01,0 0.02,-0.01 0.02,-0.01 0.01,0 0.02,-0.01 0.02,-0.01l-0.01 -0.01c-0.01,-0.01 -0.02,-0.01 -0.03,-0.01 -0.02,0 -0.03,0.01 -0.05,0.02 -0.01,0.01 -0.01,0.02 -0.02,0.03 0,0.02 0,0.03 0,0.04l-0.06 0.01c0,-0.02 0,-0.03 0,-0.04 0,-0.02 0.01,-0.03 0.02,-0.05 0,-0.01 0.01,-0.02 0.02,-0.03 0.03,-0.03 0.06,-0.05 0.09,-0.05 0.03,0 0.06,0.01 0.09,0.04l0.12 0.12 -0.05 0.05 -0.02 -0.02 0 0c0,0.01 0,0.02 0,0.03 -0.01,0.01 -0.01,0.02 -0.01,0.03 -0.01,0 -0.02,0.01 -0.02,0.02zm-0.03 -0.05c0.01,-0.01 0.01,-0.02 0.02,-0.03 0,-0.01 0,-0.02 0,-0.03 -0.01,-0.02 -0.01,-0.02 -0.02,-0.03 -0.01,0 -0.02,0 -0.03,0.01 -0.01,0.01 -0.01,0.01 -0.02,0.02 -0.02,0.01 -0.02,0.03 -0.02,0.04 0,0.01 0,0.02 0.01,0.03 0.01,0.01 0.02,0.01 0.03,0.01 0.01,0 0.02,-0.01 0.03,-0.02zm0.25 -0.18c-0.01,0.02 -0.03,0.03 -0.05,0.04 -0.01,0.01 -0.03,0.01 -0.05,0.01 -0.01,0 -0.02,0 -0.04,-0.01l0.03 -0.06c0.01,0 0.02,0 0.04,0 0.01,0 0.02,-0.01 0.03,-0.02 0.01,-0.01 0.01,-0.02 0.02,-0.03 0,-0.01 0,-0.01 -0.01,-0.02 0,-0.01 -0.01,-0.01 -0.01,-0.01 -0.01,0 -0.02,0.01 -0.02,0.01 -0.01,0 -0.02,0.01 -0.02,0.01l-0.03 0.02c-0.01,0.01 -0.03,0.01 -0.04,0.01 -0.01,0.01 -0.03,0.01 -0.04,0 -0.01,0 -0.03,0 -0.04,-0.02 -0.01,-0.01 -0.01,-0.02 -0.02,-0.04 0,-0.01 0,-0.03 0.01,-0.04 0.01,-0.02 0.02,-0.04 0.03,-0.05 0.01,-0.01 0.03,-0.02 0.04,-0.03 0.02,-0.01 0.03,-0.01 0.04,-0.01 0.02,-0.01 0.03,0 0.05,0l-0.03 0.06c-0.01,0 -0.02,0 -0.03,0 -0.01,0.01 -0.02,0.01 -0.03,0.02 -0.01,0.01 -0.01,0.02 -0.01,0.03 0,0 0,0.01 0,0.01 0.01,0.01 0.01,0.01 0.02,0.01 0.01,0 0.02,-0.01 0.03,-0.01l0.03 -0.02c0.03,-0.02 0.05,-0.02 0.07,-0.02 0.02,0 0.04,0 0.05,0.02 0.02,0.01 0.02,0.03 0.03,0.04 0,0.02 -0.01,0.04 -0.01,0.05 -0.01,0.02 -0.02,0.04 -0.04,0.05zm0.2 -0.19c-0.02,0.02 -0.05,0.03 -0.07,0.04 -0.03,0 -0.06,0 -0.09,-0.02l0.03 -0.06c0.02,0 0.03,0.01 0.04,0.01 0.02,0 0.03,-0.01 0.04,-0.02 0.01,-0.01 0.02,-0.03 0.02,-0.04 0,-0.01 -0.01,-0.03 -0.02,-0.04l-0.19 -0.19 0.05 -0.05 0.19 0.19c0.02,0.02 0.03,0.04 0.04,0.06 0,0.02 0,0.04 -0.01,0.06 0,0.02 -0.01,0.04 -0.03,0.06zm0.21 -0.21c-0.03,0.02 -0.05,0.03 -0.08,0.03 -0.03,0 -0.05,-0.02 -0.08,-0.04l-0.12 -0.12 0.05 -0.05 0.12 0.11c0.01,0.02 0.02,0.02 0.04,0.02 0.01,0.01 0.02,0 0.03,-0.01 0.01,-0.01 0.02,-0.02 0.02,-0.03 0,-0.01 0,-0.03 0,-0.04 -0.01,-0.01 -0.01,-0.02 -0.02,-0.03l-0.1 -0.1 0.05 -0.05 0.19 0.19 -0.04 0.05 -0.03 -0.02 0 0c0,0.01 0,0.02 0,0.03 0,0.01 -0.01,0.02 -0.01,0.03 -0.01,0.01 -0.01,0.02 -0.02,0.03zm0.15 -0.17l-0.27 -0.27 0.05 -0.05 0.27 0.27 -0.05 0.05zm0.1 -0.1l-0.19 -0.2 0.05 -0.05 0.2 0.2 -0.06 0.05zm-0.19 -0.24c-0.01,0.01 -0.02,0.01 -0.03,0.01 -0.01,0 -0.02,0 -0.03,-0.01 -0.01,-0.01 -0.02,-0.02 -0.02,-0.03 0,-0.02 0.01,-0.03 0.02,-0.04 0.01,-0.01 0.02,-0.01 0.03,-0.01 0.01,0 0.02,0 0.03,0.01 0.01,0.01 0.02,0.02 0.02,0.04 0,0.01 -0.01,0.02 -0.02,0.03zm0.4 0.05c-0.02,0.02 -0.05,0.04 -0.07,0.04 -0.03,0.01 -0.05,0.01 -0.08,0 -0.02,0 -0.04,-0.02 -0.06,-0.04 -0.02,-0.02 -0.04,-0.04 -0.04,-0.06 -0.01,-0.03 -0.01,-0.05 0,-0.08 0,-0.02 0.02,-0.05 0.04,-0.07 0.02,-0.02 0.04,-0.03 0.07,-0.04 0.02,0 0.04,0 0.07,0 0.02,0.01 0.05,0.02 0.07,0.04 0.02,0.02 0.03,0.05 0.04,0.07 0,0.03 0,0.05 0,0.07 -0.01,0.03 -0.02,0.05 -0.04,0.07zm-0.05 -0.04c0.01,-0.01 0.02,-0.03 0.02,-0.04 0,-0.01 0,-0.02 0,-0.04 0,-0.01 -0.01,-0.02 -0.02,-0.04 -0.02,-0.01 -0.03,-0.02 -0.04,-0.02 -0.02,0 -0.03,0 -0.04,0 -0.01,0 -0.03,0.01 -0.04,0.02 -0.01,0.01 -0.01,0.02 -0.02,0.03 0,0.02 0,0.03 0,0.04 0.01,0.02 0.02,0.03 0.03,0.04 0.01,0.01 0.02,0.02 0.04,0.03 0.01,0 0.02,0 0.04,0 0.01,-0.01 0.02,-0.01 0.03,-0.02zm0.21 -0.13c0,0.01 -0.02,0.01 -0.03,0.01 -0.01,0 -0.02,0 -0.03,-0.01 -0.01,-0.01 -0.02,-0.02 -0.02,-0.04 0,-0.01 0.01,-0.02 0.02,-0.03 0.01,-0.01 0.02,-0.01 0.03,-0.01 0.01,0 0.03,0 0.03,0.01 0.01,0.01 0.02,0.02 0.02,0.03 0,0.02 -0.01,0.03 -0.02,0.04zm0.18 -0.17c-0.02,0.02 -0.04,0.03 -0.07,0.04 -0.02,0 -0.04,0 -0.07,0 -0.02,-0.01 -0.05,-0.02 -0.07,-0.04 -0.02,-0.02 -0.03,-0.05 -0.04,-0.07 0,-0.02 0,-0.05 0,-0.07 0.01,-0.03 0.02,-0.05 0.04,-0.07 0.02,-0.02 0.05,-0.04 0.07,-0.04 0.03,-0.01 0.05,-0.01 0.08,0l-0.03 0.07c-0.01,-0.01 -0.03,-0.01 -0.04,0 -0.01,0 -0.02,0.01 -0.03,0.02 -0.01,0.01 -0.02,0.02 -0.02,0.03 0,0.01 0,0.03 0,0.04 0,0.01 0.01,0.02 0.02,0.04 0.02,0.01 0.03,0.02 0.04,0.02 0.01,0 0.03,0 0.04,0 0.01,0 0.02,-0.01 0.03,-0.02 0.02,-0.01 0.02,-0.02 0.02,-0.03 0.01,-0.02 0.01,-0.03 0,-0.04l0.07 -0.03c0.01,0.03 0.01,0.05 0,0.08 0,0.02 -0.02,0.05 -0.04,0.07zm0.22 -0.22c-0.02,0.02 -0.04,0.03 -0.07,0.04 -0.02,0.01 -0.05,0.01 -0.07,0 -0.03,-0.01 -0.05,-0.02 -0.07,-0.04 -0.02,-0.02 -0.03,-0.04 -0.04,-0.07 -0.01,-0.02 -0.01,-0.05 0,-0.07 0.01,-0.03 0.02,-0.05 0.04,-0.07 0.02,-0.02 0.05,-0.03 0.07,-0.04 0.02,-0.01 0.05,-0.01 0.07,0 0.03,0.01 0.05,0.02 0.07,0.04 0.02,0.02 0.03,0.04 0.04,0.07 0.01,0.02 0.01,0.05 0,0.07 -0.01,0.02 -0.02,0.05 -0.04,0.07zm-0.05 -0.05c0.01,-0.01 0.02,-0.02 0.02,-0.03 0.01,-0.01 0.01,-0.03 0,-0.04 0,-0.02 -0.01,-0.03 -0.02,-0.04 -0.01,-0.01 -0.02,-0.02 -0.04,-0.02 -0.01,-0.01 -0.02,-0.01 -0.04,0 -0.01,0 -0.02,0.01 -0.03,0.02 -0.01,0.01 -0.02,0.02 -0.02,0.03 0,0.01 0,0.03 0,0.04 0,0.01 0.01,0.03 0.02,0.04 0.01,0.01 0.03,0.02 0.04,0.02 0.01,0.01 0.03,0 0.04,0 0.01,0 0.02,-0.01 0.03,-0.02zm0.18 -0.1l-0.19 -0.19 0.04 -0.05 0.03 0.02 0 0c0,-0.01 0,-0.02 0,-0.03 0,-0.01 0.01,-0.02 0.01,-0.03 0.01,-0.01 0.01,-0.02 0.02,-0.03 0.01,-0.01 0.03,-0.02 0.05,-0.03 0.01,0 0.03,0 0.04,0.01 0,-0.02 0,-0.03 0,-0.05 0.01,-0.02 0.02,-0.04 0.03,-0.05 0.03,-0.03 0.05,-0.04 0.08,-0.03 0.02,0 0.05,0.01 0.07,0.04l0.12 0.12 -0.05 0.05 -0.11 -0.12c-0.01,-0.01 -0.03,-0.01 -0.04,-0.02 -0.01,0 -0.02,0.01 -0.03,0.02 -0.01,0.01 -0.02,0.02 -0.02,0.03 0,0.01 0,0.02 0.01,0.03 0,0.02 0.01,0.03 0.02,0.04l0.1 0.1 -0.05 0.05 -0.12 -0.12c-0.01,-0.01 -0.02,-0.02 -0.04,-0.02 -0.01,0 -0.02,0.01 -0.03,0.02 -0.01,0 -0.01,0.01 -0.02,0.03 0,0.01 0,0.02 0.01,0.03 0,0.01 0.01,0.02 0.02,0.03l0.1 0.1 -0.05 0.05z"/>
   </g>
  </g>
  <polygon class="fil1" points="0,0 7.07,0 7.07,7.07 0,7.07 "/>
 </g>
</svg>
