<?xml version="1.0" encoding="UTF-8"?>
<!DOCTYPE svg PUBLIC "-//W3C//DTD SVG 1.1//EN" "http://www.w3.org/Graphics/SVG/1.1/DTD/svg11.dtd">
<!-- Creator: CorelDRAW -->
<svg xmlns="http://www.w3.org/2000/svg" xml:space="preserve" width="126px" height="86px" version="1.1" style="shape-rendering:geometricPrecision; text-rendering:geometricPrecision; image-rendering:optimizeQuality; fill-rule:evenodd; clip-rule:evenodd"
viewBox="0 0 62.65 42.76"
 xmlns:xlink="http://www.w3.org/1999/xlink"
 xmlns:xodm="http://www.corel.com/coreldraw/odm/2003">
 <defs>
  <style type="text/css">
   <![CDATA[
    .fil1 {fill:none}
    .fil0 {fill:#027DFD}
   ]]>
  </style>
   <clipPath id="id0">
    <path d="M0 0l62.65 0 0 42.76 -62.65 0 0 -42.76z"/>
   </clipPath>
 </defs>
 <g id="Capa_x0020_1">
  <metadata id="CorelCorpID_0Corel-Layer"/>
  <g>
  </g>
  <g style="clip-path:url(#id0)">
   <g id="_3108845170608">
    <path class="fil0" d="M20.79 40.17c-1.46,1.46 -3.85,1.46 -5.32,0l-12.88 -12.89c-1.46,-1.46 -1.46,-3.85 0,-5.31 6.52,-6.53 13.05,-13.05 19.58,-19.58 0.55,-0.55 1.31,-0.9 2.16,-0.89l13.76 0.11c1.68,0.01 3.06,1.39 3.07,3.07l0.11 13.74c0.01,0.84 -0.33,1.61 -0.89,2.16 -6.53,6.53 -13.06,13.06 -19.59,19.59zm14.71 -32.91c1.11,1.11 1.11,2.9 0,4.01 -1.11,1.11 -2.9,1.11 -4.01,0 -1.11,-1.11 -1.11,-2.9 0,-4.01 1.11,-1.11 2.9,-1.11 4.01,0zm-16.16 31.41l-1.41 -1.4 0.3 -0.29 1.4 1.4 -0.29 0.29zm-0.19 -29.3c0,-0.31 0.11,-0.58 0.33,-0.8 0.22,-0.22 0.49,-0.33 0.8,-0.33 0.32,0 0.58,0.11 0.8,0.33 0.23,0.22 0.34,0.49 0.34,0.8 0,0.32 -0.11,0.58 -0.34,0.81 -0.22,0.22 -0.48,0.33 -0.8,0.33 -0.31,0 -0.58,-0.11 -0.8,-0.33 -0.22,-0.23 -0.33,-0.49 -0.33,-0.81zm1.61 -1.86l-0.58 -0.58 -0.21 0.22 -0.13 -0.13 0.56 -0.56 0.12 0.13 -0.2 0.2 0.57 0.58 -0.13 0.14zm0.46 -0.46l-0.7 -0.71 0.18 -0.19 0.71 0.32 0 -0.01 -0.3 -0.71 0.18 -0.18 0.71 0.7 -0.14 0.13 -0.37 -0.37 -0.13 -0.15 -0.01 0.01 0.31 0.72 -0.1 0.09 -0.72 -0.3 -0.01 0.01 0.15 0.13 0.37 0.38 -0.13 0.13zm-16.37 14.96l0.29 0.3 -0.61 0.61 1.88 1.88 -0.3 0.3 -1.88 -1.88 -0.61 0.61 -0.3 -0.29 1.53 -1.53zm0.71 0.1c-0.05,0.05 -0.11,0.08 -0.18,0.08 -0.07,0 -0.14,-0.03 -0.19,-0.08 -0.05,-0.05 -0.08,-0.11 -0.08,-0.19 0,-0.07 0.03,-0.13 0.08,-0.18 0.05,-0.06 0.12,-0.08 0.19,-0.08 0.07,0 0.13,0.03 0.18,0.08 0.05,0.05 0.08,0.11 0.08,0.18 0,0.08 -0.02,0.14 -0.08,0.19zm1.62 1.92l-1.55 -1.55 0.3 -0.31 1.55 1.55 -0.3 0.31zm3.64 -3.64l-0.82 -0.81c-0.25,-0.26 -0.51,-0.38 -0.76,-0.39 -0.25,0 -0.48,0.1 -0.69,0.31 -0.2,0.21 -0.31,0.44 -0.3,0.69 0,0.25 0.13,0.5 0.38,0.75l0.82 0.82 0.3 -0.3 -0.81 -0.82c-0.31,-0.31 -0.34,-0.59 -0.09,-0.85 0.25,-0.25 0.53,-0.22 0.84,0.09l0.82 0.82 0.31 -0.31zm4.33 -4.28c-0.17,0.17 -0.36,0.27 -0.57,0.3 -0.2,0.03 -0.38,-0.03 -0.53,-0.18l0.29 -0.29c0.06,0.06 0.15,0.09 0.25,0.07 0.1,-0.03 0.2,-0.08 0.29,-0.18 0.09,-0.09 0.15,-0.18 0.16,-0.27 0.02,-0.09 0,-0.17 -0.07,-0.23 -0.06,-0.06 -0.14,-0.08 -0.24,-0.05 -0.09,0.02 -0.19,0.07 -0.29,0.14 -0.11,0.07 -0.22,0.14 -0.33,0.2 -0.11,0.06 -0.23,0.09 -0.35,0.09 -0.13,-0.01 -0.25,-0.07 -0.36,-0.18 -0.13,-0.13 -0.18,-0.29 -0.15,-0.48 0.02,-0.19 0.12,-0.37 0.28,-0.53 0.17,-0.17 0.35,-0.26 0.54,-0.29 0.19,-0.02 0.35,0.04 0.5,0.19l-0.29 0.29c-0.06,-0.06 -0.14,-0.08 -0.23,-0.06 -0.09,0.02 -0.17,0.07 -0.25,0.14 -0.08,0.08 -0.12,0.16 -0.14,0.25 -0.01,0.08 0.01,0.15 0.06,0.21 0.06,0.05 0.13,0.07 0.22,0.04 0.09,-0.03 0.19,-0.08 0.29,-0.15 0.11,-0.07 0.21,-0.14 0.33,-0.2 0.11,-0.06 0.23,-0.09 0.36,-0.08 0.13,0 0.25,0.06 0.36,0.17 0.16,0.15 0.22,0.32 0.19,0.52 -0.03,0.19 -0.14,0.38 -0.32,0.56zm1.58 -1.59l-0.29 -0.29c0.12,-0.12 0.17,-0.25 0.17,-0.39 -0.01,-0.15 -0.09,-0.29 -0.23,-0.42l-1.47 -1.47 0.31 -0.31 1.47 1.47c0.23,0.24 0.35,0.48 0.35,0.73 0,0.25 -0.1,0.48 -0.31,0.68zm0.66 -3.81l-0.3 0.3 0.82 0.82c0.31,0.31 0.34,0.59 0.08,0.85 -0.25,0.25 -0.53,0.22 -0.84,-0.09l-0.82 -0.82 -0.3 0.31 0.81 0.81c0.26,0.26 0.51,0.38 0.76,0.39 0.25,0 0.48,-0.1 0.69,-0.31 0.2,-0.21 0.31,-0.44 0.3,-0.69 0,-0.25 -0.13,-0.5 -0.38,-0.75l-0.82 -0.82zm2.08 1.03l-0.31 0.31 -2.17 -2.18 0.3 -0.3 2.18 2.17zm-1.33 -2.2c-0.06,0.05 -0.12,0.08 -0.19,0.08 -0.07,0 -0.14,-0.03 -0.19,-0.08 -0.05,-0.05 -0.08,-0.12 -0.08,-0.19 0,-0.07 0.03,-0.13 0.08,-0.19 0.05,-0.05 0.12,-0.07 0.19,-0.07 0.07,0 0.13,0.03 0.18,0.08 0.05,0.05 0.08,0.11 0.08,0.18 0,0.07 -0.02,0.14 -0.07,0.19zm1.61 1.92l-1.55 -1.56 0.3 -0.3 1.56 1.55 -0.31 0.31zm-12.04 11.62c-0.31,0 -0.58,-0.11 -0.8,-0.33 -0.22,-0.22 -0.33,-0.49 -0.34,-0.8 0,-0.31 0.11,-0.57 0.33,-0.8 0.21,-0.21 0.46,-0.32 0.76,-0.34 0.3,-0.01 0.57,0.09 0.81,0.32 0.05,0.05 0.1,0.1 0.13,0.15l-1.25 1.25c0.13,0.1 0.27,0.15 0.43,0.14 0.16,-0.01 0.3,-0.08 0.43,-0.21 0.15,-0.15 0.22,-0.33 0.21,-0.53l0.37 -0.36c0.07,0.21 0.07,0.42 0.03,0.63 -0.05,0.21 -0.15,0.39 -0.31,0.55 -0.22,0.22 -0.49,0.33 -0.8,0.33zm-0.61 -0.8l0.94 -0.94c-0.14,-0.07 -0.28,-0.11 -0.44,-0.09 -0.16,0.02 -0.29,0.08 -0.4,0.19 -0.12,0.12 -0.18,0.25 -0.2,0.41 -0.01,0.15 0.02,0.29 0.1,0.43zm4.71 -4.43c0.22,0.22 0.33,0.48 0.33,0.8 0,0.31 -0.11,0.57 -0.33,0.8 -0.22,0.22 -0.49,0.33 -0.8,0.33 -0.31,0 -0.58,-0.11 -0.8,-0.33 -0.22,-0.23 -0.33,-0.49 -0.33,-0.81 0,-0.31 0.11,-0.58 0.33,-0.8 0.2,-0.2 0.44,-0.29 0.71,-0.26l-0.82 -0.82 0.31 -0.31 1.4 1.4zm-1.31 0.29c-0.14,0.14 -0.21,0.31 -0.2,0.5 0,0.19 0.07,0.36 0.21,0.5 0.15,0.14 0.31,0.22 0.51,0.22 0.19,0 0.35,-0.07 0.5,-0.21 0.14,-0.14 0.21,-0.31 0.21,-0.5 -0.01,-0.19 -0.08,-0.36 -0.22,-0.5 -0.14,-0.14 -0.31,-0.21 -0.51,-0.22 -0.19,0 -0.36,0.07 -0.5,0.21zm3.08 -0.46c-0.22,0.22 -0.48,0.33 -0.8,0.33 -0.31,0 -0.58,-0.11 -0.8,-0.33 -0.22,-0.23 -0.33,-0.49 -0.33,-0.81 0,-0.31 0.11,-0.58 0.33,-0.8 0.22,-0.22 0.49,-0.33 0.8,-0.33 0.31,0 0.58,0.11 0.8,0.34l0.78 0.77 -0.31 0.31 -0.24 -0.25c0.04,0.11 0.04,0.24 0,0.39 -0.04,0.14 -0.12,0.27 -0.23,0.38zm-0.79 -0.09c0.19,0 0.36,-0.07 0.5,-0.21 0.14,-0.14 0.21,-0.31 0.21,-0.5 0,-0.19 -0.08,-0.36 -0.22,-0.5 -0.14,-0.15 -0.31,-0.22 -0.5,-0.22 -0.19,-0.01 -0.36,0.06 -0.5,0.2 -0.14,0.15 -0.21,0.31 -0.21,0.51 0,0.19 0.07,0.36 0.22,0.5 0.14,0.14 0.3,0.21 0.5,0.22zm6.99 -8.73c-0.14,0.15 -0.21,0.31 -0.21,0.51 0,0.19 0.07,0.36 0.22,0.5 0.14,0.14 0.3,0.21 0.5,0.21 0.19,0.01 0.36,-0.06 0.5,-0.2 0.14,-0.14 0.21,-0.31 0.21,-0.5 0,-0.19 -0.08,-0.36 -0.22,-0.5 -0.14,-0.15 -0.31,-0.22 -0.5,-0.22 -0.19,-0.01 -0.36,0.06 -0.5,0.2zm-0.71 24.02l2.99 -2.99 -9.2 -9.19 -2.98 2.98 9.19 9.2zm3.86 -3.86l1.47 -1.46 -9.2 -9.2 -1.47 1.47 9.2 9.19zm2.55 -2.55l1.47 -1.46 -9.2 -9.2 -1.46 1.47 9.19 9.19zm3.1 -3.09l1.46 -1.47 -9.19 -9.19 -1.47 1.46 9.2 9.2zm2.28 -2.28l2.98 -2.99 -9.19 -9.19 -2.99 2.98 9.2 9.2zm-14.99 14.98l1.47 -1.46 -9.2 -9.2 -1.46 1.47 9.19 9.19zm1.76 1.76l-0.28 -0.28 1.16 -1.16 0.28 0.28 -1.16 1.16zm2.62 -0.08l-1.11 -1.1 0.29 -0.28 1.1 1.1 -0.28 0.28zm-1.08 -1.36c-0.05,0.05 -0.12,0.07 -0.19,0.07 -0.07,0 -0.13,-0.02 -0.18,-0.07 -0.05,-0.05 -0.08,-0.11 -0.08,-0.19 0,-0.07 0.03,-0.13 0.08,-0.18 0.05,-0.05 0.11,-0.07 0.18,-0.07 0.07,0 0.13,0.02 0.18,0.07 0.05,0.05 0.08,0.11 0.08,0.18 0,0.08 -0.02,0.14 -0.07,0.19zm2.2 0.31c-0.12,0.12 -0.24,0.19 -0.38,0.23 -0.14,0.03 -0.27,0.03 -0.41,-0.01 -0.14,-0.03 -0.26,-0.11 -0.38,-0.22 -0.1,-0.11 -0.17,-0.23 -0.21,-0.37 -0.05,-0.14 -0.05,-0.27 -0.02,-0.41 0.03,-0.14 0.1,-0.27 0.21,-0.38 0.12,-0.12 0.25,-0.19 0.38,-0.22 0.13,-0.03 0.26,-0.02 0.38,0.02 0.13,0.04 0.24,0.11 0.35,0.22 0.02,0.02 0.04,0.04 0.05,0.06 0.02,0.02 0.03,0.03 0.03,0.04l-0.94 0.95 -0.2 -0.21 0.68 -0.68c-0.03,-0.02 -0.06,-0.04 -0.1,-0.05 -0.04,-0.01 -0.08,-0.02 -0.13,-0.02 -0.04,0 -0.09,0.01 -0.13,0.03 -0.05,0.02 -0.09,0.05 -0.13,0.09 -0.06,0.06 -0.09,0.12 -0.11,0.2 -0.02,0.07 -0.01,0.15 0.01,0.22 0.03,0.08 0.07,0.15 0.15,0.22 0.07,0.08 0.15,0.13 0.22,0.15 0.08,0.02 0.16,0.03 0.23,0.01 0.08,-0.02 0.14,-0.06 0.2,-0.12 0.07,-0.07 0.11,-0.14 0.13,-0.22 0.01,-0.07 0.01,-0.14 -0.01,-0.22l0.34 -0.11c0.04,0.14 0.05,0.28 0.02,0.42 -0.04,0.13 -0.11,0.26 -0.23,0.38zm0.71 -0.78l-1.1 -1.11 0.27 -0.26 0.14 0.14 0.01 -0.02c-0.02,-0.09 -0.01,-0.18 0.02,-0.27 0.03,-0.09 0.08,-0.17 0.15,-0.24 0.13,-0.14 0.27,-0.2 0.43,-0.18 0.15,0.01 0.29,0.09 0.43,0.22l0.68 0.69 -0.28 0.28 -0.65 -0.65c-0.08,-0.07 -0.15,-0.11 -0.22,-0.11 -0.08,0 -0.15,0.03 -0.21,0.09 -0.05,0.06 -0.08,0.12 -0.09,0.18 -0.01,0.07 -0.01,0.14 0.02,0.2 0.03,0.07 0.07,0.13 0.12,0.19l0.57 0.56 -0.29 0.29zm1.81 -1.74c-0.1,0.1 -0.22,0.17 -0.35,0.2 -0.13,0.03 -0.26,0.03 -0.4,-0.01 -0.13,-0.05 -0.26,-0.12 -0.37,-0.24 -0.12,-0.11 -0.2,-0.24 -0.24,-0.38 -0.04,-0.13 -0.04,-0.26 -0.01,-0.39 0.03,-0.13 0.09,-0.25 0.2,-0.35 0.05,-0.05 0.11,-0.09 0.16,-0.12 0.06,-0.03 0.12,-0.05 0.18,-0.05 0.06,-0.01 0.11,0 0.16,0.01l0.01 -0.02 -0.17 -0.14 -0.42 -0.42 0.28 -0.28 1.55 1.55 -0.27 0.26 -0.13 -0.13 -0.02 0.01c0.01,0.05 0.02,0.1 0.01,0.16 -0.01,0.06 -0.02,0.11 -0.05,0.17 -0.03,0.06 -0.07,0.12 -0.12,0.17zm-0.22 -0.31c0.06,-0.05 0.09,-0.11 0.11,-0.19 0.02,-0.07 0.02,-0.14 0,-0.22 -0.02,-0.08 -0.07,-0.15 -0.13,-0.21 -0.06,-0.07 -0.14,-0.11 -0.21,-0.13 -0.08,-0.02 -0.15,-0.02 -0.22,0 -0.08,0.02 -0.14,0.05 -0.19,0.11 -0.06,0.05 -0.09,0.11 -0.11,0.18 -0.02,0.07 -0.02,0.15 0,0.22 0.02,0.08 0.06,0.15 0.13,0.22 0.07,0.06 0.14,0.1 0.21,0.13 0.08,0.02 0.16,0.02 0.23,0 0.07,-0.02 0.13,-0.06 0.18,-0.11zm1.44 -0.91c-0.08,0.08 -0.17,0.14 -0.26,0.16 -0.09,0.03 -0.18,0.04 -0.27,0.02 -0.09,-0.03 -0.17,-0.07 -0.25,-0.15 -0.07,-0.07 -0.12,-0.16 -0.13,-0.25 -0.02,-0.1 -0.01,-0.19 0.03,-0.29 0.04,-0.1 0.1,-0.19 0.18,-0.27 0.04,-0.05 0.08,-0.08 0.13,-0.12 0.04,-0.03 0.08,-0.05 0.11,-0.08 0.04,-0.02 0.07,-0.03 0.1,-0.04l-0.05 -0.05c-0.06,-0.06 -0.13,-0.09 -0.21,-0.08 -0.08,0.01 -0.16,0.05 -0.24,0.13 -0.05,0.05 -0.09,0.11 -0.12,0.18 -0.02,0.08 -0.03,0.15 -0.02,0.22l-0.33 0.04c-0.01,-0.09 -0.01,-0.17 0.01,-0.25 0.01,-0.08 0.04,-0.15 0.08,-0.23 0.05,-0.07 0.1,-0.14 0.16,-0.21 0.17,-0.16 0.34,-0.25 0.5,-0.26 0.17,-0.01 0.33,0.06 0.48,0.21l0.68 0.68 -0.28 0.27 -0.12 -0.11 -0.01 0.02c0,0.05 0,0.1 -0.01,0.15 0,0.05 -0.02,0.1 -0.05,0.16 -0.03,0.05 -0.06,0.1 -0.11,0.15zm-0.16 -0.28c0.06,-0.06 0.1,-0.12 0.11,-0.19 0.02,-0.06 0.01,-0.13 -0.01,-0.19 -0.02,-0.06 -0.05,-0.11 -0.09,-0.16 -0.05,0.02 -0.1,0.04 -0.15,0.07 -0.05,0.04 -0.09,0.07 -0.14,0.11 -0.08,0.09 -0.12,0.16 -0.12,0.22 0,0.07 0.02,0.12 0.07,0.17 0.04,0.04 0.09,0.06 0.15,0.06 0.06,0 0.12,-0.03 0.18,-0.09zm1.44 -1c-0.09,0.09 -0.19,0.16 -0.28,0.2 -0.1,0.04 -0.19,0.06 -0.27,0.06 -0.09,-0.01 -0.17,-0.02 -0.25,-0.06l0.15 -0.36c0.07,0.03 0.15,0.03 0.21,0.02 0.07,-0.02 0.14,-0.05 0.19,-0.11 0.05,-0.05 0.08,-0.09 0.11,-0.15 0.02,-0.05 0.01,-0.1 -0.03,-0.14 -0.03,-0.03 -0.06,-0.04 -0.1,-0.04 -0.04,0.01 -0.07,0.02 -0.11,0.04 -0.04,0.02 -0.08,0.04 -0.11,0.06l-0.16 0.11c-0.07,0.04 -0.14,0.07 -0.21,0.09 -0.08,0.01 -0.16,0.01 -0.23,0 -0.08,-0.02 -0.14,-0.06 -0.2,-0.11 -0.07,-0.07 -0.11,-0.15 -0.12,-0.23 -0.01,-0.09 0,-0.18 0.04,-0.28 0.04,-0.09 0.1,-0.17 0.18,-0.25 0.07,-0.08 0.15,-0.14 0.22,-0.18 0.08,-0.04 0.16,-0.06 0.24,-0.07 0.08,-0.01 0.15,0 0.24,0.03l-0.14 0.35c-0.07,-0.02 -0.13,-0.02 -0.18,0 -0.06,0.02 -0.1,0.05 -0.15,0.09 -0.04,0.05 -0.07,0.1 -0.08,0.14 -0.01,0.05 -0.01,0.09 0.02,0.11 0.03,0.03 0.07,0.04 0.11,0.03 0.05,-0.01 0.1,-0.03 0.15,-0.06l0.21 -0.12c0.13,-0.08 0.25,-0.12 0.37,-0.12 0.11,0 0.21,0.04 0.29,0.12 0.07,0.08 0.11,0.16 0.13,0.26 0.01,0.09 -0.01,0.19 -0.05,0.29 -0.04,0.1 -0.1,0.19 -0.19,0.28zm1.11 -1.11c-0.13,0.13 -0.27,0.2 -0.43,0.22 -0.15,0.03 -0.31,0 -0.46,-0.08l0.16 -0.38c0.08,0.05 0.17,0.07 0.24,0.07 0.08,-0.01 0.15,-0.04 0.21,-0.1 0.07,-0.07 0.1,-0.14 0.09,-0.22 0,-0.09 -0.05,-0.17 -0.12,-0.24l-1.06 -1.06 0.29 -0.3 1.06 1.06c0.11,0.12 0.19,0.24 0.22,0.36 0.03,0.12 0.03,0.24 -0.01,0.36 -0.03,0.11 -0.1,0.22 -0.19,0.31zm1.17 -1.17c-0.14,0.14 -0.28,0.2 -0.43,0.18 -0.15,-0.01 -0.3,-0.09 -0.45,-0.24l-0.67 -0.67 0.29 -0.28 0.63 0.63c0.08,0.08 0.16,0.12 0.24,0.12 0.07,0.01 0.14,-0.02 0.2,-0.07 0.06,-0.06 0.09,-0.12 0.1,-0.19 0.01,-0.07 0,-0.13 -0.02,-0.2 -0.03,-0.07 -0.07,-0.13 -0.13,-0.19l-0.56 -0.56 0.28 -0.29 1.11 1.11 -0.27 0.26 -0.14 -0.14 -0.02 0.02c0.02,0.06 0.02,0.12 0.01,0.18 -0.01,0.06 -0.03,0.12 -0.06,0.17 -0.02,0.06 -0.06,0.11 -0.11,0.16zm0.86 -0.93l-1.54 -1.55 0.28 -0.29 1.55 1.55 -0.29 0.29zm0.58 -0.58l-1.1 -1.11 0.28 -0.28 1.11 1.1 -0.29 0.29zm-1.08 -1.37c-0.05,0.05 -0.11,0.08 -0.18,0.08 -0.07,0 -0.14,-0.03 -0.19,-0.08 -0.05,-0.05 -0.07,-0.11 -0.07,-0.18 0,-0.07 0.03,-0.14 0.08,-0.19 0.05,-0.05 0.11,-0.07 0.18,-0.07 0.07,0 0.13,0.02 0.18,0.07 0.05,0.05 0.08,0.12 0.08,0.19 0,0.07 -0.03,0.13 -0.08,0.18zm2.21 0.31c-0.11,0.11 -0.24,0.19 -0.38,0.23 -0.14,0.03 -0.28,0.03 -0.42,-0.01 -0.14,-0.03 -0.26,-0.11 -0.37,-0.22 -0.11,-0.11 -0.19,-0.24 -0.23,-0.38 -0.04,-0.13 -0.04,-0.27 0,-0.41 0.04,-0.14 0.12,-0.27 0.23,-0.39 0.12,-0.11 0.24,-0.19 0.38,-0.22 0.14,-0.04 0.28,-0.04 0.42,0 0.14,0.04 0.26,0.11 0.37,0.22 0.11,0.12 0.19,0.24 0.23,0.38 0.04,0.14 0.04,0.28 0,0.42 -0.04,0.13 -0.11,0.26 -0.23,0.38zm-0.26 -0.27c0.05,-0.05 0.09,-0.11 0.11,-0.19 0.02,-0.07 0.02,-0.14 0,-0.22 -0.02,-0.07 -0.06,-0.14 -0.13,-0.21 -0.07,-0.07 -0.14,-0.11 -0.22,-0.13 -0.07,-0.02 -0.14,-0.02 -0.22,0 -0.07,0.02 -0.13,0.05 -0.18,0.11 -0.06,0.05 -0.1,0.11 -0.12,0.19 -0.02,0.07 -0.02,0.15 0,0.22 0.02,0.08 0.06,0.15 0.13,0.22 0.07,0.06 0.14,0.11 0.22,0.13 0.07,0.02 0.15,0.02 0.22,0 0.07,-0.03 0.14,-0.06 0.19,-0.12zm1.22 -0.73c-0.06,0.05 -0.12,0.08 -0.19,0.08 -0.08,0 -0.14,-0.03 -0.19,-0.08 -0.05,-0.05 -0.08,-0.11 -0.08,-0.19 0,-0.07 0.03,-0.13 0.08,-0.18 0.05,-0.05 0.11,-0.08 0.19,-0.08 0.07,0 0.13,0.02 0.19,0.08 0.05,0.05 0.07,0.11 0.07,0.18 0,0.08 -0.02,0.14 -0.07,0.19zm0.98 -0.94c-0.11,0.11 -0.23,0.18 -0.37,0.22 -0.14,0.04 -0.28,0.04 -0.41,0 -0.14,-0.04 -0.27,-0.12 -0.38,-0.23 -0.12,-0.11 -0.19,-0.24 -0.23,-0.38 -0.04,-0.13 -0.04,-0.27 0,-0.41 0.03,-0.14 0.11,-0.26 0.22,-0.38 0.12,-0.12 0.25,-0.2 0.39,-0.23 0.14,-0.04 0.28,-0.03 0.42,0.03l-0.15 0.37c-0.07,-0.03 -0.14,-0.03 -0.21,-0.02 -0.07,0.02 -0.13,0.06 -0.19,0.12 -0.05,0.05 -0.09,0.12 -0.11,0.19 -0.01,0.07 -0.01,0.14 0.01,0.22 0.02,0.07 0.06,0.14 0.13,0.21 0.07,0.06 0.14,0.11 0.21,0.13 0.08,0.02 0.15,0.02 0.22,0.01 0.07,-0.02 0.14,-0.06 0.19,-0.12 0.07,-0.06 0.1,-0.13 0.12,-0.2 0.01,-0.06 0.01,-0.14 -0.02,-0.21l0.37 -0.14c0.05,0.13 0.06,0.27 0.02,0.42 -0.03,0.14 -0.1,0.27 -0.23,0.4zm1.24 -1.24c-0.11,0.11 -0.24,0.19 -0.38,0.23 -0.14,0.04 -0.28,0.04 -0.42,0 -0.14,-0.04 -0.26,-0.12 -0.37,-0.23 -0.11,-0.11 -0.19,-0.23 -0.23,-0.37 -0.04,-0.14 -0.04,-0.28 0,-0.42 0.04,-0.14 0.11,-0.27 0.23,-0.38 0.11,-0.12 0.24,-0.19 0.38,-0.23 0.14,-0.04 0.28,-0.04 0.42,0 0.14,0.04 0.26,0.12 0.37,0.23 0.11,0.11 0.19,0.23 0.23,0.37 0.04,0.14 0.04,0.28 0,0.42 -0.04,0.14 -0.11,0.26 -0.23,0.38zm-0.26 -0.26c0.05,-0.06 0.09,-0.12 0.11,-0.19 0.02,-0.07 0.02,-0.15 0,-0.22 -0.02,-0.08 -0.06,-0.15 -0.13,-0.22 -0.07,-0.07 -0.14,-0.11 -0.22,-0.13 -0.07,-0.02 -0.15,-0.02 -0.22,0 -0.07,0.02 -0.13,0.06 -0.19,0.11 -0.05,0.05 -0.09,0.12 -0.11,0.19 -0.02,0.07 -0.02,0.15 0,0.22 0.02,0.08 0.06,0.15 0.13,0.22 0.07,0.07 0.14,0.11 0.22,0.13 0.07,0.02 0.15,0.02 0.22,0 0.07,-0.02 0.13,-0.06 0.19,-0.11zm1.01 -0.56l-1.11 -1.1 0.27 -0.27 0.14 0.14 0.02 -0.01c-0.02,-0.06 -0.02,-0.12 -0.01,-0.18 0.01,-0.06 0.02,-0.12 0.05,-0.17 0.03,-0.06 0.07,-0.11 0.12,-0.16 0.08,-0.08 0.17,-0.13 0.26,-0.15 0.1,-0.02 0.18,-0.02 0.26,0.02 -0.02,-0.09 -0.02,-0.18 0,-0.28 0.03,-0.1 0.08,-0.2 0.17,-0.29 0.13,-0.13 0.27,-0.19 0.41,-0.17 0.14,0.01 0.28,0.08 0.41,0.21l0.71 0.71 -0.28 0.28 -0.66 -0.65c-0.07,-0.07 -0.14,-0.11 -0.21,-0.11 -0.07,-0.01 -0.13,0.02 -0.19,0.07 -0.05,0.05 -0.08,0.11 -0.09,0.17 -0.01,0.07 0,0.13 0.03,0.2 0.03,0.07 0.07,0.13 0.13,0.19l0.56 0.56 -0.28 0.28 -0.66 -0.65c-0.07,-0.07 -0.14,-0.11 -0.21,-0.11 -0.07,-0.01 -0.14,0.02 -0.2,0.08 -0.05,0.05 -0.08,0.1 -0.08,0.17 -0.01,0.06 0,0.12 0.03,0.19 0.03,0.07 0.07,0.13 0.13,0.19l0.56 0.56 -0.28 0.28z"/>
   </g>
  </g>
  <polygon class="fil1" points="0,0 62.65,0 62.65,42.76 0,42.76 "/>
 </g>
</svg>
