<?xml version="1.0" encoding="UTF-8"?>
<!DOCTYPE svg PUBLIC "-//W3C//DTD SVG 1.1//EN" "http://www.w3.org/Graphics/SVG/1.1/DTD/svg11.dtd">
<!-- Creator: CorelDRAW -->
<svg xmlns="http://www.w3.org/2000/svg" xml:space="preserve" width="126px" height="86px" version="1.1" style="shape-rendering:geometricPrecision; text-rendering:geometricPrecision; image-rendering:optimizeQuality; fill-rule:evenodd; clip-rule:evenodd"
viewBox="0 0 62.65 42.76"
 xmlns:xlink="http://www.w3.org/1999/xlink"
 xmlns:xodm="http://www.corel.com/coreldraw/odm/2003">
 <defs>
  <style type="text/css">
   <![CDATA[
    .fil1 {fill:none}
    .fil0 {fill:#027DFD}
   ]]>
  </style>
   <clipPath id="id0">
    <path d="M0 0l62.65 0 0 42.76 -62.65 0 0 -42.76z"/>
   </clipPath>
 </defs>
 <g id="Capa_x0020_1">
  <metadata id="CorelCorpID_0Corel-Layer"/>
  <g>
  </g>
  <g style="clip-path:url(#id0)">
   <g id="_3108840312064">
    <path class="fil0" d="M30.69 41.59c-1.57,1.57 -4.14,1.57 -5.71,0l-13.86 -13.86c-1.57,-1.57 -1.57,-4.15 0,-5.72 7.01,-7.01 14.03,-14.03 21.05,-21.05 0.59,-0.6 1.41,-0.97 2.32,-0.96l14.8 0.12c1.81,0.01 3.3,1.5 3.31,3.3l0.12 14.78c0,0.9 -0.36,1.73 -0.96,2.32 -7.02,7.02 -14.05,14.04 -21.07,21.07zm15.82 -35.39c1.19,1.19 1.19,3.12 0,4.31 -1.19,1.19 -3.12,1.19 -4.32,0 -1.19,-1.19 -1.19,-3.12 0,-4.31 1.2,-1.2 3.13,-1.2 4.32,0zm-17.38 33.78l-1.51 -1.51 0.31 -0.31 1.51 1.5 -0.31 0.32zm-0.2 -31.51c0,-0.34 0.11,-0.63 0.35,-0.86 0.24,-0.24 0.53,-0.36 0.87,-0.36 0.33,0 0.62,0.12 0.86,0.36 0.24,0.23 0.35,0.52 0.35,0.86 0,0.33 -0.11,0.62 -0.35,0.86 -0.24,0.24 -0.53,0.36 -0.86,0.36 -0.34,0 -0.63,-0.12 -0.87,-0.36 -0.24,-0.24 -0.35,-0.53 -0.35,-0.86zm1.73 -2.01l-0.63 -0.62 -0.22 0.23 -0.14 -0.13 0.6 -0.61 0.13 0.14 -0.21 0.22 0.61 0.62 -0.14 0.15zm0.49 -0.49l-0.75 -0.76 0.2 -0.2 0.75 0.33 0.01 -0.01 -0.33 -0.75 0.2 -0.2 0.76 0.75 -0.14 0.14 -0.4 -0.4 -0.15 -0.16 -0.01 0.01 0.33 0.77 -0.1 0.11 -0.78 -0.33 -0.01 0.01 0.16 0.14 0.4 0.41 -0.14 0.14zm-17.6 16.09l0.31 0.32 -0.65 0.65 2.02 2.02 -0.33 0.33 -2.02 -2.02 -0.65 0.65 -0.32 -0.31 1.64 -1.64zm0.77 0.1c-0.06,0.06 -0.13,0.09 -0.2,0.09 -0.08,0 -0.15,-0.03 -0.2,-0.09 -0.06,-0.05 -0.09,-0.12 -0.09,-0.2 0,-0.07 0.03,-0.14 0.09,-0.2 0.05,-0.05 0.12,-0.08 0.2,-0.08 0.07,0 0.14,0.03 0.2,0.09 0.05,0.05 0.08,0.12 0.08,0.19 0,0.08 -0.03,0.15 -0.08,0.2zm1.74 2.07l-1.68 -1.67 0.33 -0.33 1.67 1.67 -0.32 0.33zm3.9 -3.91l-0.87 -0.88c-0.28,-0.27 -0.55,-0.41 -0.82,-0.41 -0.27,-0.01 -0.52,0.1 -0.74,0.33 -0.22,0.22 -0.33,0.47 -0.33,0.74 0.01,0.27 0.14,0.54 0.42,0.81l0.87 0.88 0.33 -0.33 -0.88 -0.88c-0.33,-0.33 -0.36,-0.63 -0.09,-0.91 0.27,-0.27 0.57,-0.24 0.91,0.1l0.88 0.88 0.32 -0.33zm4.66 -4.6c-0.18,0.18 -0.38,0.29 -0.6,0.32 -0.23,0.03 -0.42,-0.04 -0.58,-0.2l0.31 -0.31c0.07,0.07 0.16,0.09 0.27,0.07 0.11,-0.02 0.21,-0.09 0.32,-0.19 0.1,-0.1 0.16,-0.2 0.17,-0.29 0.02,-0.1 -0.01,-0.18 -0.08,-0.25 -0.06,-0.07 -0.15,-0.09 -0.25,-0.06 -0.1,0.03 -0.21,0.09 -0.32,0.16 -0.11,0.08 -0.23,0.15 -0.35,0.22 -0.12,0.06 -0.25,0.09 -0.38,0.09 -0.14,-0.01 -0.27,-0.07 -0.39,-0.19 -0.14,-0.14 -0.19,-0.31 -0.16,-0.52 0.03,-0.2 0.13,-0.39 0.31,-0.57 0.18,-0.18 0.37,-0.28 0.57,-0.3 0.21,-0.03 0.38,0.04 0.54,0.19l-0.31 0.32c-0.07,-0.07 -0.15,-0.09 -0.24,-0.07 -0.1,0.02 -0.19,0.07 -0.28,0.16 -0.08,0.08 -0.13,0.17 -0.14,0.26 -0.02,0.09 0,0.17 0.06,0.23 0.06,0.06 0.14,0.07 0.24,0.04 0.09,-0.03 0.2,-0.09 0.31,-0.16 0.11,-0.08 0.23,-0.15 0.35,-0.22 0.12,-0.06 0.25,-0.09 0.39,-0.08 0.14,0 0.27,0.06 0.39,0.18 0.17,0.17 0.23,0.35 0.2,0.56 -0.04,0.21 -0.15,0.41 -0.35,0.61zm1.71 -1.71l-0.32 -0.32c0.13,-0.13 0.19,-0.27 0.18,-0.42 -0.01,-0.15 -0.09,-0.31 -0.24,-0.45l-1.58 -1.59 0.33 -0.32 1.58 1.58c0.25,0.25 0.38,0.51 0.38,0.78 0,0.27 -0.11,0.52 -0.33,0.74zm0.71 -4.11l-0.33 0.33 0.88 0.88c0.33,0.34 0.36,0.64 0.09,0.91 -0.27,0.27 -0.57,0.24 -0.91,-0.09l-0.87 -0.88 -0.33 0.32 0.88 0.88c0.27,0.28 0.54,0.41 0.81,0.42 0.27,0 0.52,-0.11 0.74,-0.33 0.22,-0.22 0.33,-0.47 0.33,-0.74 0,-0.27 -0.14,-0.54 -0.41,-0.82l-0.88 -0.88zm2.23 1.11l-0.33 0.33 -2.34 -2.34 0.33 -0.32 2.34 2.33zm-1.43 -2.36c-0.06,0.05 -0.13,0.08 -0.21,0.08 -0.07,0 -0.14,-0.03 -0.19,-0.08 -0.06,-0.06 -0.09,-0.13 -0.09,-0.2 0,-0.08 0.03,-0.15 0.09,-0.21 0.05,-0.05 0.12,-0.08 0.19,-0.08 0.08,0 0.15,0.03 0.2,0.09 0.06,0.05 0.09,0.12 0.09,0.2 0,0.07 -0.03,0.14 -0.08,0.2zm1.73 2.06l-1.67 -1.67 0.33 -0.33 1.67 1.67 -0.33 0.33zm-12.95 12.5c-0.33,0 -0.61,-0.12 -0.85,-0.36 -0.24,-0.24 -0.36,-0.52 -0.37,-0.85 0,-0.34 0.11,-0.62 0.35,-0.86 0.23,-0.23 0.5,-0.35 0.83,-0.37 0.32,-0.01 0.61,0.1 0.87,0.34 0.05,0.05 0.1,0.11 0.14,0.16l-1.35 1.35c0.13,0.11 0.29,0.16 0.46,0.15 0.17,-0.02 0.32,-0.09 0.46,-0.23 0.16,-0.16 0.24,-0.35 0.23,-0.56l0.4 -0.39c0.07,0.22 0.08,0.44 0.02,0.67 -0.05,0.23 -0.16,0.42 -0.32,0.59 -0.24,0.24 -0.53,0.36 -0.87,0.36zm-0.65 -0.86l1.01 -1.01c-0.15,-0.08 -0.31,-0.12 -0.47,-0.1 -0.17,0.02 -0.31,0.09 -0.43,0.21 -0.13,0.12 -0.2,0.27 -0.22,0.43 -0.01,0.17 0.02,0.32 0.11,0.47zm5.06 -4.77c0.24,0.24 0.36,0.52 0.36,0.86 0,0.34 -0.11,0.62 -0.35,0.86 -0.24,0.24 -0.53,0.36 -0.86,0.36 -0.34,0 -0.63,-0.12 -0.87,-0.36 -0.24,-0.24 -0.35,-0.53 -0.35,-0.86 0,-0.34 0.11,-0.63 0.35,-0.86 0.22,-0.22 0.48,-0.32 0.77,-0.29l-0.88 -0.88 0.33 -0.33 1.5 1.5zm-1.4 0.31c-0.15,0.16 -0.23,0.33 -0.22,0.54 0,0.21 0.08,0.39 0.23,0.54 0.15,0.16 0.33,0.23 0.54,0.24 0.21,0 0.39,-0.07 0.54,-0.23 0.15,-0.15 0.23,-0.33 0.22,-0.53 0,-0.21 -0.08,-0.39 -0.23,-0.55 -0.15,-0.15 -0.33,-0.22 -0.54,-0.23 -0.21,0 -0.39,0.07 -0.54,0.22zm3.31 -0.49c-0.24,0.23 -0.52,0.35 -0.86,0.35 -0.34,0 -0.62,-0.12 -0.86,-0.35 -0.24,-0.24 -0.36,-0.53 -0.36,-0.87 0,-0.33 0.12,-0.62 0.36,-0.86 0.24,-0.24 0.52,-0.36 0.86,-0.35 0.33,0 0.62,0.12 0.86,0.36l0.83 0.83 -0.32 0.33 -0.27 -0.27c0.04,0.13 0.04,0.27 0,0.42 -0.04,0.15 -0.12,0.29 -0.24,0.41zm-0.85 -0.1c0.21,0 0.39,-0.07 0.54,-0.22 0.15,-0.16 0.22,-0.34 0.22,-0.54 0,-0.21 -0.08,-0.39 -0.24,-0.54 -0.15,-0.15 -0.33,-0.23 -0.54,-0.24 -0.2,0 -0.38,0.07 -0.53,0.23 -0.16,0.15 -0.23,0.33 -0.23,0.54 0,0.2 0.08,0.39 0.24,0.54 0.15,0.15 0.33,0.23 0.54,0.23zm7.51 -9.38c-0.15,0.15 -0.23,0.33 -0.22,0.54 0,0.21 0.08,0.39 0.23,0.54 0.15,0.15 0.33,0.23 0.54,0.23 0.21,0.01 0.39,-0.07 0.54,-0.22 0.15,-0.15 0.23,-0.33 0.23,-0.54 -0.01,-0.2 -0.09,-0.38 -0.24,-0.54 -0.15,-0.15 -0.33,-0.23 -0.54,-0.23 -0.21,-0.01 -0.38,0.07 -0.54,0.22zm-0.75 25.82l3.21 -3.21 -9.89 -9.88 -3.21 3.21 9.89 9.88zm4.14 -4.14l1.58 -1.58 -9.89 -9.89 -1.58 1.58 9.89 9.89zm2.75 -2.74l1.57 -1.58 -9.89 -9.89 -1.57 1.58 9.89 9.89zm3.32 -3.33l1.58 -1.58 -9.89 -9.89 -1.57 1.58 9.88 9.89zm2.46 -2.45l3.21 -3.22 -9.89 -9.88 -3.21 3.21 9.89 9.89zm-16.12 16.11l1.58 -1.58 -9.89 -9.88 -1.58 1.57 9.89 9.89zm1.89 1.89l-0.29 -0.3 1.24 -1.25 0.3 0.3 -1.25 1.25zm2.82 -0.08l-1.19 -1.19 0.31 -0.3 1.18 1.18 -0.3 0.31zm-1.17 -1.47c-0.05,0.05 -0.12,0.08 -0.19,0.08 -0.08,0 -0.15,-0.03 -0.2,-0.08 -0.06,-0.06 -0.08,-0.12 -0.08,-0.2 0,-0.08 0.03,-0.14 0.08,-0.2 0.05,-0.05 0.12,-0.08 0.2,-0.08 0.07,0 0.14,0.03 0.19,0.08 0.06,0.06 0.08,0.12 0.08,0.2 0,0.08 -0.02,0.14 -0.08,0.2zm2.37 0.34c-0.12,0.12 -0.25,0.2 -0.4,0.24 -0.15,0.04 -0.3,0.04 -0.45,0 -0.14,-0.04 -0.28,-0.13 -0.4,-0.25 -0.11,-0.11 -0.19,-0.24 -0.23,-0.39 -0.05,-0.15 -0.05,-0.3 -0.02,-0.45 0.03,-0.15 0.11,-0.28 0.23,-0.4 0.12,-0.13 0.26,-0.21 0.4,-0.24 0.14,-0.03 0.28,-0.02 0.41,0.02 0.14,0.05 0.26,0.12 0.37,0.24 0.03,0.02 0.05,0.04 0.07,0.06 0.01,0.02 0.02,0.03 0.03,0.04l-1.02 1.02 -0.22 -0.21 0.74 -0.74c-0.03,-0.02 -0.07,-0.04 -0.11,-0.05 -0.04,-0.02 -0.08,-0.02 -0.13,-0.02 -0.05,0 -0.1,0.01 -0.15,0.03 -0.05,0.02 -0.1,0.05 -0.14,0.1 -0.06,0.06 -0.1,0.13 -0.12,0.21 -0.01,0.08 -0.01,0.16 0.02,0.24 0.02,0.08 0.08,0.16 0.15,0.24 0.08,0.08 0.16,0.13 0.25,0.16 0.08,0.02 0.16,0.02 0.24,0 0.08,-0.02 0.15,-0.06 0.21,-0.12 0.08,-0.08 0.12,-0.15 0.14,-0.24 0.02,-0.08 0.02,-0.16 0,-0.23l0.36 -0.13c0.05,0.16 0.05,0.31 0.02,0.45 -0.04,0.15 -0.12,0.29 -0.25,0.42zm0.77 -0.85l-1.18 -1.18 0.28 -0.29 0.15 0.15 0.02 -0.02c-0.02,-0.09 -0.02,-0.19 0.01,-0.29 0.04,-0.09 0.09,-0.18 0.17,-0.26 0.14,-0.14 0.3,-0.21 0.46,-0.19 0.16,0.01 0.31,0.09 0.46,0.24l0.74 0.74 -0.31 0.3 -0.7 -0.7c-0.08,-0.07 -0.15,-0.11 -0.24,-0.12 -0.08,0 -0.15,0.04 -0.22,0.1 -0.05,0.06 -0.09,0.12 -0.1,0.19 -0.01,0.08 0,0.15 0.03,0.22 0.02,0.07 0.07,0.14 0.13,0.2l0.61 0.61 -0.31 0.3zm1.94 -1.86c-0.11,0.11 -0.23,0.18 -0.37,0.21 -0.14,0.03 -0.28,0.03 -0.43,-0.02 -0.14,-0.04 -0.28,-0.12 -0.4,-0.25 -0.13,-0.12 -0.21,-0.26 -0.25,-0.4 -0.05,-0.15 -0.05,-0.29 -0.02,-0.43 0.03,-0.14 0.1,-0.26 0.21,-0.37 0.06,-0.06 0.12,-0.1 0.18,-0.13 0.07,-0.03 0.13,-0.05 0.19,-0.06 0.06,0 0.12,0 0.17,0.01l0.02 -0.02 -0.19 -0.15 -0.45 -0.45 0.3 -0.3 1.66 1.66 -0.28 0.29 -0.14 -0.15 -0.02 0.02c0.01,0.05 0.01,0.11 0.01,0.17 -0.01,0.06 -0.03,0.12 -0.06,0.19 -0.03,0.06 -0.07,0.12 -0.13,0.18zm-0.23 -0.33c0.06,-0.06 0.1,-0.13 0.12,-0.21 0.02,-0.08 0.02,-0.16 -0.01,-0.24 -0.02,-0.08 -0.06,-0.16 -0.13,-0.23 -0.07,-0.07 -0.15,-0.11 -0.23,-0.13 -0.08,-0.03 -0.16,-0.03 -0.24,-0.01 -0.08,0.02 -0.15,0.06 -0.2,0.12 -0.06,0.06 -0.1,0.12 -0.12,0.2 -0.02,0.08 -0.02,0.16 0,0.24 0.02,0.08 0.07,0.16 0.14,0.23 0.07,0.07 0.15,0.11 0.23,0.14 0.08,0.02 0.16,0.02 0.24,0 0.08,-0.02 0.15,-0.06 0.2,-0.11zm1.54 -0.98c-0.08,0.08 -0.17,0.14 -0.27,0.17 -0.1,0.03 -0.2,0.04 -0.29,0.01 -0.1,-0.02 -0.19,-0.07 -0.27,-0.15 -0.08,-0.08 -0.13,-0.18 -0.15,-0.28 -0.01,-0.1 0,-0.2 0.04,-0.31 0.04,-0.1 0.1,-0.2 0.19,-0.29 0.05,-0.04 0.1,-0.09 0.14,-0.12 0.05,-0.03 0.09,-0.06 0.13,-0.09 0.03,-0.02 0.07,-0.04 0.1,-0.05l-0.05 -0.05c-0.07,-0.06 -0.14,-0.09 -0.23,-0.08 -0.09,0 -0.18,0.05 -0.26,0.13 -0.06,0.06 -0.1,0.13 -0.12,0.2 -0.03,0.08 -0.04,0.16 -0.03,0.23l-0.35 0.05c-0.01,-0.09 -0.01,-0.18 0.01,-0.27 0.01,-0.08 0.04,-0.17 0.09,-0.25 0.04,-0.08 0.1,-0.15 0.17,-0.22 0.18,-0.18 0.36,-0.27 0.54,-0.29 0.17,-0.01 0.34,0.07 0.51,0.23l0.73 0.73 -0.3 0.3 -0.13 -0.12 -0.01 0.02c0,0.05 0,0.1 -0.01,0.16 -0.01,0.05 -0.02,0.11 -0.05,0.17 -0.03,0.06 -0.07,0.11 -0.13,0.17zm-0.16 -0.31c0.06,-0.06 0.1,-0.13 0.11,-0.2 0.02,-0.07 0.02,-0.14 -0.01,-0.2 -0.02,-0.07 -0.05,-0.13 -0.1,-0.17 -0.05,0.01 -0.1,0.04 -0.16,0.07 -0.05,0.04 -0.1,0.07 -0.14,0.12 -0.09,0.09 -0.14,0.17 -0.14,0.24 0,0.06 0.03,0.12 0.08,0.17 0.04,0.05 0.1,0.07 0.16,0.07 0.07,0 0.13,-0.04 0.2,-0.1zm1.54 -1.07c-0.1,0.1 -0.2,0.17 -0.3,0.21 -0.1,0.05 -0.2,0.07 -0.29,0.06 -0.1,0 -0.18,-0.02 -0.26,-0.06l0.15 -0.39c0.08,0.03 0.16,0.04 0.24,0.02 0.07,-0.01 0.14,-0.05 0.2,-0.11 0.05,-0.05 0.08,-0.1 0.11,-0.16 0.02,-0.06 0.01,-0.11 -0.03,-0.15 -0.03,-0.03 -0.07,-0.05 -0.11,-0.04 -0.04,0 -0.08,0.01 -0.12,0.03 -0.04,0.02 -0.08,0.05 -0.12,0.07l-0.17 0.11c-0.07,0.05 -0.14,0.08 -0.23,0.1 -0.08,0.02 -0.16,0.02 -0.24,0 -0.08,-0.01 -0.15,-0.05 -0.22,-0.12 -0.07,-0.07 -0.11,-0.15 -0.12,-0.24 -0.01,-0.1 0,-0.2 0.04,-0.3 0.04,-0.1 0.11,-0.19 0.19,-0.27 0.08,-0.08 0.16,-0.14 0.24,-0.19 0.09,-0.04 0.17,-0.07 0.25,-0.08 0.09,-0.01 0.17,0 0.26,0.03l-0.15 0.38c-0.07,-0.02 -0.13,-0.02 -0.19,0 -0.06,0.02 -0.11,0.05 -0.15,0.1 -0.06,0.05 -0.09,0.1 -0.1,0.15 -0.01,0.05 0,0.09 0.03,0.12 0.03,0.03 0.07,0.04 0.12,0.03 0.05,-0.01 0.11,-0.03 0.16,-0.06l0.22 -0.13c0.14,-0.09 0.28,-0.14 0.4,-0.14 0.12,0.01 0.22,0.05 0.31,0.14 0.08,0.07 0.12,0.17 0.14,0.27 0.01,0.1 -0.01,0.21 -0.05,0.32 -0.04,0.1 -0.11,0.2 -0.21,0.3zm1.19 -1.19c-0.13,0.13 -0.28,0.21 -0.45,0.23 -0.17,0.03 -0.34,0 -0.5,-0.08l0.17 -0.41c0.09,0.05 0.18,0.08 0.26,0.07 0.09,-0.01 0.16,-0.05 0.22,-0.11 0.08,-0.07 0.11,-0.15 0.1,-0.24 0,-0.09 -0.05,-0.17 -0.13,-0.26l-1.14 -1.14 0.31 -0.31 1.14 1.14c0.13,0.12 0.21,0.25 0.24,0.38 0.04,0.14 0.03,0.26 -0.01,0.39 -0.04,0.12 -0.11,0.24 -0.21,0.34zm1.26 -1.26c-0.14,0.14 -0.3,0.21 -0.46,0.19 -0.16,-0.02 -0.32,-0.1 -0.48,-0.26l-0.72 -0.72 0.31 -0.3 0.68 0.68c0.08,0.08 0.16,0.12 0.25,0.13 0.09,0.01 0.16,-0.02 0.22,-0.08 0.06,-0.06 0.1,-0.13 0.11,-0.2 0.01,-0.08 0,-0.15 -0.03,-0.22 -0.03,-0.08 -0.07,-0.14 -0.13,-0.21l-0.61 -0.6 0.31 -0.3 1.18 1.18 -0.28 0.29 -0.15 -0.15 -0.02 0.02c0.01,0.06 0.02,0.12 0.01,0.19 -0.01,0.06 -0.03,0.12 -0.06,0.19 -0.03,0.06 -0.07,0.11 -0.13,0.17zm0.93 -1.01l-1.66 -1.66 0.3 -0.31 1.67 1.67 -0.31 0.3zm0.63 -0.62l-1.19 -1.19 0.31 -0.3 1.18 1.18 -0.3 0.31zm-1.17 -1.47c-0.05,0.05 -0.12,0.08 -0.19,0.08 -0.08,0 -0.15,-0.03 -0.2,-0.08 -0.06,-0.06 -0.08,-0.12 -0.08,-0.2 0,-0.08 0.03,-0.14 0.08,-0.2 0.06,-0.05 0.12,-0.08 0.2,-0.08 0.07,0 0.14,0.03 0.19,0.08 0.06,0.06 0.08,0.12 0.08,0.2 0.01,0.08 -0.02,0.14 -0.08,0.2zm2.38 0.33c-0.12,0.12 -0.26,0.2 -0.41,0.24 -0.15,0.05 -0.3,0.04 -0.45,0 -0.15,-0.04 -0.28,-0.12 -0.4,-0.24 -0.12,-0.12 -0.2,-0.25 -0.24,-0.4 -0.04,-0.15 -0.05,-0.3 -0.01,-0.45 0.04,-0.15 0.13,-0.29 0.25,-0.41 0.13,-0.13 0.26,-0.21 0.41,-0.25 0.15,-0.04 0.3,-0.03 0.45,0.01 0.15,0.04 0.28,0.12 0.4,0.24 0.12,0.12 0.2,0.25 0.24,0.4 0.05,0.15 0.05,0.3 0.01,0.45 -0.04,0.15 -0.12,0.28 -0.25,0.41zm-0.28 -0.29c0.06,-0.05 0.1,-0.12 0.12,-0.2 0.02,-0.07 0.02,-0.15 0,-0.24 -0.02,-0.08 -0.07,-0.16 -0.14,-0.23 -0.08,-0.07 -0.15,-0.12 -0.23,-0.14 -0.09,-0.02 -0.17,-0.02 -0.24,0 -0.08,0.02 -0.15,0.06 -0.2,0.12 -0.06,0.06 -0.1,0.13 -0.13,0.2 -0.02,0.08 -0.02,0.16 0,0.24 0.02,0.09 0.07,0.16 0.14,0.24 0.08,0.07 0.15,0.12 0.24,0.14 0.08,0.02 0.16,0.02 0.24,0 0.07,-0.03 0.14,-0.07 0.2,-0.13zm1.31 -0.78c-0.06,0.05 -0.13,0.08 -0.21,0.08 -0.08,0 -0.14,-0.03 -0.2,-0.08 -0.06,-0.06 -0.08,-0.12 -0.08,-0.2 0,-0.08 0.03,-0.15 0.08,-0.2 0.06,-0.06 0.13,-0.09 0.2,-0.09 0.08,0 0.15,0.03 0.21,0.08 0.05,0.06 0.08,0.13 0.08,0.21 0,0.07 -0.03,0.14 -0.08,0.2zm1.06 -1.02c-0.12,0.12 -0.26,0.2 -0.4,0.24 -0.15,0.04 -0.3,0.04 -0.45,0 -0.15,-0.04 -0.28,-0.12 -0.41,-0.25 -0.12,-0.12 -0.2,-0.25 -0.24,-0.4 -0.04,-0.15 -0.04,-0.3 0,-0.45 0.04,-0.14 0.12,-0.28 0.24,-0.4 0.13,-0.13 0.27,-0.22 0.42,-0.26 0.15,-0.03 0.3,-0.02 0.45,0.04l-0.17 0.4c-0.07,-0.03 -0.15,-0.04 -0.22,-0.02 -0.07,0.02 -0.14,0.06 -0.2,0.12 -0.06,0.06 -0.1,0.13 -0.12,0.21 -0.02,0.08 -0.02,0.15 0.01,0.23 0.02,0.08 0.07,0.16 0.14,0.23 0.07,0.07 0.15,0.12 0.23,0.14 0.08,0.03 0.15,0.03 0.23,0.01 0.08,-0.02 0.15,-0.06 0.21,-0.12 0.07,-0.07 0.11,-0.14 0.12,-0.22 0.02,-0.07 0.01,-0.15 -0.01,-0.23l0.39 -0.15c0.05,0.15 0.06,0.3 0.03,0.45 -0.04,0.16 -0.12,0.3 -0.25,0.43zm1.33 -1.33c-0.12,0.13 -0.26,0.21 -0.41,0.25 -0.15,0.04 -0.3,0.04 -0.45,-0.01 -0.15,-0.04 -0.28,-0.12 -0.4,-0.24 -0.12,-0.12 -0.2,-0.25 -0.25,-0.4 -0.04,-0.15 -0.04,-0.3 0,-0.45 0.04,-0.15 0.12,-0.29 0.25,-0.41 0.12,-0.12 0.26,-0.21 0.41,-0.24 0.15,-0.04 0.3,-0.04 0.45,0 0.15,0.04 0.28,0.12 0.4,0.24 0.12,0.12 0.2,0.25 0.24,0.4 0.04,0.15 0.04,0.3 0,0.45 -0.03,0.15 -0.12,0.29 -0.24,0.41zm-0.28 -0.28c0.05,-0.06 0.09,-0.13 0.12,-0.21 0.02,-0.07 0.02,-0.15 0,-0.23 -0.03,-0.09 -0.07,-0.16 -0.15,-0.24 -0.07,-0.07 -0.15,-0.12 -0.23,-0.14 -0.08,-0.02 -0.16,-0.02 -0.23,0 -0.08,0.02 -0.15,0.06 -0.21,0.12 -0.05,0.06 -0.1,0.13 -0.12,0.21 -0.02,0.08 -0.02,0.16 0,0.24 0.02,0.08 0.07,0.16 0.14,0.23 0.07,0.07 0.15,0.12 0.23,0.14 0.09,0.02 0.17,0.02 0.24,0 0.08,-0.03 0.15,-0.07 0.21,-0.12zm1.08 -0.6l-1.18 -1.18 0.28 -0.29 0.15 0.15 0.02 -0.02c-0.01,-0.06 -0.02,-0.12 -0.01,-0.19 0.01,-0.06 0.03,-0.12 0.06,-0.18 0.03,-0.07 0.07,-0.12 0.12,-0.18 0.09,-0.08 0.18,-0.14 0.29,-0.16 0.1,-0.02 0.19,-0.01 0.27,0.02 -0.02,-0.09 -0.02,-0.19 0.01,-0.3 0.02,-0.1 0.09,-0.21 0.18,-0.3 0.14,-0.14 0.29,-0.2 0.44,-0.19 0.15,0.02 0.3,0.09 0.44,0.23l0.76 0.77 -0.3 0.3 -0.71 -0.71c-0.08,-0.08 -0.15,-0.12 -0.23,-0.12 -0.07,0 -0.14,0.03 -0.2,0.09 -0.05,0.05 -0.08,0.11 -0.1,0.18 -0.01,0.07 0,0.14 0.03,0.21 0.03,0.07 0.08,0.14 0.15,0.21l0.6 0.6 -0.31 0.3 -0.7 -0.71c-0.08,-0.07 -0.15,-0.11 -0.23,-0.11 -0.08,-0.01 -0.15,0.02 -0.21,0.09 -0.05,0.05 -0.08,0.11 -0.09,0.17 -0.01,0.07 0,0.14 0.03,0.21 0.03,0.07 0.08,0.14 0.15,0.21l0.6 0.6 -0.31 0.3z"/>
   </g>
  </g>
  <polygon class="fil1" points="0,0 62.65,0 62.65,42.76 0,42.76 "/>
 </g>
</svg>
