<?xml version="1.0" encoding="UTF-8"?>
<!DOCTYPE svg PUBLIC "-//W3C//DTD SVG 1.1//EN" "http://www.w3.org/Graphics/SVG/1.1/DTD/svg11.dtd">
<!-- Creator: CorelDRAW -->
<svg xmlns="http://www.w3.org/2000/svg" xml:space="preserve" width="1080px" height="1080px" version="1.1" style="shape-rendering:geometricPrecision; text-rendering:geometricPrecision; image-rendering:optimizeQuality; fill-rule:evenodd; clip-rule:evenodd"
viewBox="0 0 388.85 388.85"
 xmlns:xlink="http://www.w3.org/1999/xlink"
 xmlns:xodm="http://www.corel.com/coreldraw/odm/2003">
 <defs>
  <style type="text/css">
   <![CDATA[
    .fil1 {fill:none}
    .fil0 {fill:#027DFD}
   ]]>
  </style>
   <clipPath id="id0">
    <path d="M0 0l388.85 0 0 388.85 -388.85 0 0 -388.85z"/>
   </clipPath>
 </defs>
 <g id="Capa_x0020_1">
  <metadata id="CorelCorpID_0Corel-Layer"/>
  <g>
  </g>
  <g style="clip-path:url(#id0)">
   <g id="_3107920676080">
    <path class="fil0" d="M188.63 378.07c-14.29,14.29 -37.66,14.29 -51.94,0l-125.98 -125.97c-14.28,-14.28 -14.28,-37.66 0,-51.94 63.8,-63.79 127.59,-127.58 191.38,-191.38 5.38,-5.43 12.86,-8.78 21.12,-8.71l134.53 1.04c16.41,0.13 29.94,13.66 30.07,30.07l1.04 134.27c0.06,8.26 -3.27,15.73 -8.69,21.1 -63.85,63.84 -127.68,127.68 -191.53,191.52zm143.81 -321.7c10.82,10.84 10.83,28.4 0,39.23 -10.84,10.83 -28.4,10.83 -39.23,0 -10.83,-10.83 -10.83,-28.39 0,-39.23 10.83,-10.83 28.39,-10.83 39.23,0zm-158.01 307.09l-13.7 -13.7 2.86 -2.86 13.7 13.71 -2.86 2.85zm-1.83 -286.42c0,-3.06 1.08,-5.67 3.25,-7.84 2.16,-2.17 4.78,-3.25 7.83,-3.25 3.06,0 5.67,1.08 7.84,3.25 2.17,2.17 3.25,4.78 3.25,7.84 0,3.05 -1.08,5.66 -3.25,7.83 -2.17,2.17 -4.78,3.25 -7.84,3.25 -3.05,0 -5.67,-1.08 -7.83,-3.25 -2.17,-2.17 -3.25,-4.78 -3.25,-7.83zm15.73 -18.26l-5.65 -5.65 -2.06 2.13 -1.25 -1.25 5.47 -5.46 1.18 1.24 -1.94 2.01 5.59 5.65 -1.34 1.33zm4.5 -4.49l-6.87 -6.87 1.85 -1.85 6.87 3.04 0.06 -0.06 -3.01 -6.9 1.82 -1.82 6.9 6.83 -1.31 1.31 -3.64 -3.64 -1.31 -1.43 -0.06 0.06 2.98 7.05 -0.94 0.94 -7.08 -2.95 -0.06 0.06 1.46 1.28 3.61 3.67 -1.27 1.28zm-160.03 146.3l2.88 2.88 -5.95 5.95 18.37 18.38 -2.97 2.98 -18.38 -18.38 -5.95 5.95 -2.88 -2.88 14.88 -14.88zm7.01 0.94c-0.52,0.52 -1.14,0.78 -1.83,0.77 -0.7,-0.01 -1.3,-0.27 -1.81,-0.77 -0.51,-0.51 -0.77,-1.11 -0.78,-1.81 -0.01,-0.7 0.25,-1.31 0.78,-1.84 0.51,-0.5 1.11,-0.75 1.81,-0.74 0.69,0.01 1.3,0.27 1.8,0.77 0.51,0.51 0.77,1.11 0.78,1.81 0.01,0.7 -0.24,1.3 -0.75,1.81zm15.8 18.77l-15.19 -15.19 2.98 -2.97 15.18 15.18 -2.97 2.98zm35.53 -35.54l-7.99 -7.98c-2.47,-2.47 -4.93,-3.73 -7.39,-3.76 -2.46,-0.03 -4.7,0.97 -6.73,3 -2.02,2.02 -3.02,4.26 -2.99,6.72 0.03,2.46 1.28,4.93 3.75,7.4l7.99 7.99 2.97 -2.98 -7.98 -7.99c-3.04,-3.03 -3.32,-5.79 -0.85,-8.26 2.47,-2.47 5.22,-2.19 8.26,0.85l7.99 7.99 2.97 -2.98zm42.34 -41.85c-1.66,1.66 -3.5,2.64 -5.51,2.93 -2.02,0.3 -3.76,-0.3 -5.24,-1.77l2.85 -2.86c0.65,0.65 1.47,0.87 2.45,0.65 0.98,-0.21 1.93,-0.77 2.84,-1.68 0.93,-0.93 1.47,-1.83 1.61,-2.71 0.14,-0.87 -0.09,-1.61 -0.7,-2.21 -0.63,-0.63 -1.4,-0.81 -2.32,-0.53 -0.93,0.27 -1.9,0.75 -2.92,1.42 -1.02,0.68 -2.08,1.33 -3.16,1.95 -1.08,0.62 -2.25,0.9 -3.49,0.85 -1.25,-0.05 -2.42,-0.62 -3.51,-1.72 -1.26,-1.25 -1.75,-2.82 -1.47,-4.69 0.27,-1.87 1.21,-3.61 2.81,-5.21 1.62,-1.62 3.35,-2.55 5.21,-2.78 1.85,-0.23 3.48,0.36 4.9,1.78l-2.85 2.85c-0.57,-0.56 -1.3,-0.76 -2.19,-0.57 -0.89,0.18 -1.72,0.65 -2.49,1.42 -0.75,0.75 -1.2,1.54 -1.34,2.37 -0.14,0.83 0.06,1.52 0.61,2.07 0.55,0.54 1.26,0.67 2.14,0.38 0.88,-0.3 1.83,-0.79 2.84,-1.48 1.01,-0.68 2.07,-1.33 3.17,-1.92 1.11,-0.6 2.29,-0.87 3.54,-0.81 1.26,0.06 2.44,0.63 3.56,1.7 1.51,1.48 2.12,3.17 1.8,5.06 -0.31,1.89 -1.36,3.73 -3.14,5.51zm15.52 -15.52l-2.89 -2.88c1.18,-1.18 1.72,-2.46 1.63,-3.85 -0.09,-1.38 -0.82,-2.75 -2.17,-4.11l-14.37 -14.37 2.98 -2.97 14.36 14.36c2.31,2.31 3.47,4.69 3.47,7.14 0,2.45 -1.01,4.68 -3.01,6.68zm6.44 -37.29l-2.98 2.97 7.99 7.99c3.04,3.04 3.32,5.79 0.85,8.26 -2.47,2.47 -5.22,2.19 -8.26,-0.85l-7.99 -7.99 -2.98 2.98 7.99 7.99c2.47,2.47 4.94,3.72 7.4,3.75 2.46,0.03 4.7,-0.97 6.73,-2.99 2.02,-2.03 3.02,-4.27 2.99,-6.73 -0.03,-2.46 -1.28,-4.93 -3.75,-7.4l-7.99 -7.98zm20.29 10.08l-2.98 2.97 -21.26 -21.26 2.98 -2.97 21.26 21.26zm-13.03 -21.54c-0.53,0.53 -1.14,0.79 -1.84,0.78 -0.7,-0.01 -1.3,-0.27 -1.81,-0.78 -0.5,-0.5 -0.76,-1.1 -0.77,-1.8 -0.01,-0.7 0.25,-1.31 0.77,-1.84 0.51,-0.51 1.11,-0.75 1.81,-0.74 0.7,0.01 1.3,0.26 1.81,0.77 0.5,0.51 0.76,1.11 0.77,1.81 0.01,0.7 -0.24,1.3 -0.74,1.8zm15.79 18.77l-15.19 -15.18 2.98 -2.98 15.19 15.19 -2.98 2.97zm-117.7 113.64c-3.03,-0.01 -5.63,-1.1 -7.79,-3.27 -2.17,-2.16 -3.28,-4.76 -3.33,-7.79 -0.05,-3.02 1.01,-5.62 3.17,-7.79 2.07,-2.06 4.56,-3.17 7.49,-3.32 2.93,-0.15 5.56,0.86 7.91,3.05 0.51,0.51 0.93,0.99 1.28,1.46l-12.27 12.27c1.25,1.01 2.66,1.46 4.22,1.33 1.56,-0.12 2.94,-0.79 4.16,-2 1.5,-1.5 2.21,-3.22 2.13,-5.16l3.58 -3.53c0.65,1.99 0.73,4.02 0.26,6.09 -0.48,2.08 -1.48,3.88 -2.99,5.39 -2.19,2.19 -4.8,3.28 -7.82,3.27zm-5.97 -7.82l9.17 -9.17c-1.34,-0.77 -2.76,-1.08 -4.28,-0.91 -1.52,0.16 -2.82,0.77 -3.89,1.85 -1.15,1.15 -1.81,2.47 -1.96,3.96 -0.15,1.49 0.17,2.91 0.96,4.27zm46.04 -43.37c2.17,2.16 3.26,4.77 3.27,7.82 0.01,3.05 -1.07,5.65 -3.24,7.82 -2.17,2.17 -4.78,3.25 -7.83,3.25 -3.06,0 -5.67,-1.08 -7.84,-3.25 -2.17,-2.17 -3.25,-4.78 -3.25,-7.84 0,-3.05 1.08,-5.67 3.25,-7.83 1.96,-1.97 4.29,-2.84 6.98,-2.61l-8.01 -8.02 3 -3.01 13.67 13.67zm-12.76 2.85c-1.37,1.38 -2.05,3.01 -2.03,4.89 0.02,1.89 0.73,3.53 2.13,4.92 1.39,1.4 3.03,2.11 4.9,2.14 1.87,0.03 3.51,-0.65 4.91,-2.05 1.37,-1.37 2.05,-3 2.03,-4.89 -0.02,-1.88 -0.73,-3.52 -2.13,-4.92 -1.37,-1.37 -3.01,-2.07 -4.92,-2.09 -1.9,-0.02 -3.53,0.65 -4.89,2zm30.1 -4.52c-2.16,2.16 -4.78,3.25 -7.83,3.25 -3.06,0 -5.67,-1.09 -7.84,-3.25 -2.17,-2.17 -3.25,-4.78 -3.25,-7.84 0,-3.06 1.08,-5.67 3.25,-7.83 2.17,-2.17 4.77,-3.25 7.82,-3.24 3.05,0.01 5.66,1.1 7.82,3.27l7.6 7.59 -2.98 2.98 -2.4 -2.4c0.38,1.11 0.38,2.37 -0.02,3.78 -0.39,1.41 -1.11,2.63 -2.17,3.69zm-7.77 -0.88c1.9,0.02 3.54,-0.66 4.92,-2.04 1.37,-1.37 2.05,-3 2.02,-4.87 -0.03,-1.88 -0.75,-3.51 -2.14,-4.91 -1.4,-1.39 -3.04,-2.11 -4.91,-2.14 -1.87,-0.03 -3.5,0.64 -4.87,2.02 -1.4,1.4 -2.09,3.04 -2.07,4.92 0.02,1.88 0.73,3.52 2.13,4.92 1.37,1.38 3.01,2.08 4.92,2.1zm68.33 -85.26c-1.39,1.4 -2.08,3.04 -2.06,4.92 0.02,1.89 0.73,3.53 2.12,4.92 1.38,1.38 3.02,2.08 4.92,2.1 1.91,0.02 3.55,-0.66 4.92,-2.03 1.38,-1.38 2.06,-3.01 2.02,-4.88 -0.03,-1.87 -0.74,-3.51 -2.14,-4.9 -1.39,-1.4 -3.03,-2.12 -4.9,-2.15 -1.87,-0.03 -3.5,0.65 -4.88,2.02zm-6.89 234.76l29.19 -29.2 -89.88 -89.88 -29.2 29.19 89.89 89.89zm37.69 -37.69l14.33 -14.33 -89.89 -89.88 -14.33 14.33 89.89 89.88zm24.94 -24.94l14.33 -14.33 -89.89 -89.89 -14.33 14.33 89.89 89.89zm30.25 -30.26l14.33 -14.32 -89.89 -89.89 -14.32 14.33 89.88 89.88zm22.29 -22.29l29.2 -29.19 -89.89 -89.88 -29.19 29.19 89.88 89.88zm-146.48 146.49l14.33 -14.33 -89.89 -89.89 -14.33 14.33 89.89 89.89zm17.21 17.14l-2.71 -2.71 11.32 -11.31 2.7 2.7 -11.31 11.32zm25.57 -0.7l-10.79 -10.79 2.77 -2.77 10.79 10.79 -2.77 2.77zm-10.58 -13.37c-0.49,0.5 -1.09,0.74 -1.79,0.74 -0.71,0 -1.31,-0.24 -1.8,-0.74 -0.5,-0.49 -0.74,-1.09 -0.73,-1.78 0.01,-0.7 0.26,-1.3 0.75,-1.79 0.49,-0.49 1.08,-0.74 1.78,-0.74 0.69,0 1.28,0.25 1.77,0.74 0.5,0.49 0.75,1.09 0.75,1.79 0.01,0.69 -0.23,1.29 -0.73,1.78zm21.51 3.11c-1.09,1.09 -2.3,1.81 -3.65,2.17 -1.34,0.36 -2.69,0.35 -4.04,-0.02 -1.34,-0.38 -2.57,-1.11 -3.67,-2.21 -1.03,-1.03 -1.74,-2.22 -2.13,-3.58 -0.4,-1.35 -0.44,-2.71 -0.14,-4.07 0.3,-1.36 0.99,-2.57 2.06,-3.64 1.16,-1.16 2.38,-1.89 3.66,-2.18 1.28,-0.3 2.54,-0.24 3.78,0.18 1.23,0.41 2.35,1.12 3.35,2.12 0.22,0.23 0.41,0.43 0.56,0.61 0.15,0.17 0.25,0.3 0.3,0.39l-9.26 9.26 -1.96 -1.97 6.66 -6.66c-0.26,-0.22 -0.57,-0.4 -0.96,-0.53 -0.38,-0.12 -0.79,-0.18 -1.22,-0.17 -0.44,0.02 -0.88,0.12 -1.33,0.3 -0.46,0.18 -0.89,0.48 -1.29,0.89 -0.54,0.53 -0.89,1.16 -1.05,1.89 -0.16,0.73 -0.12,1.47 0.13,2.22 0.24,0.76 0.71,1.48 1.4,2.17 0.72,0.72 1.47,1.19 2.23,1.43 0.77,0.23 1.52,0.25 2.23,0.05 0.72,-0.2 1.36,-0.58 1.93,-1.14 0.66,-0.67 1.07,-1.37 1.24,-2.11 0.16,-0.74 0.15,-1.45 -0.04,-2.14l3.35 -1.15c0.38,1.4 0.41,2.76 0.11,4.1 -0.3,1.33 -1.05,2.59 -2.25,3.79zm7.02 -7.7l-10.78 -10.78 2.6 -2.6 1.35 1.35 0.17 -0.17c-0.2,-0.84 -0.15,-1.71 0.14,-2.61 0.29,-0.89 0.78,-1.69 1.47,-2.38 1.32,-1.32 2.72,-1.92 4.18,-1.77 1.47,0.14 2.87,0.88 4.21,2.22l6.7 6.7 -2.77 2.77 -6.36 -6.37c-0.71,-0.7 -1.42,-1.06 -2.16,-1.07 -0.73,-0.02 -1.41,0.29 -2.03,0.91 -0.51,0.5 -0.81,1.08 -0.91,1.73 -0.1,0.65 -0.02,1.3 0.24,1.97 0.25,0.66 0.66,1.27 1.22,1.84l5.5 5.49 -2.77 2.77zm17.64 -16.96c-0.99,0.99 -2.12,1.64 -3.4,1.94 -1.27,0.3 -2.57,0.25 -3.89,-0.15 -1.32,-0.4 -2.54,-1.16 -3.67,-2.29 -1.13,-1.13 -1.89,-2.35 -2.29,-3.67 -0.4,-1.32 -0.45,-2.62 -0.15,-3.89 0.3,-1.28 0.95,-2.41 1.94,-3.4 0.52,-0.52 1.07,-0.91 1.64,-1.18 0.58,-0.27 1.15,-0.43 1.72,-0.49 0.56,-0.05 1.07,-0.03 1.52,0.09l0.17 -0.17 -1.69 -1.36 -4.15 -4.14 2.75 -2.75 15.14 15.14 -2.58 2.58 -1.29 -1.29 -0.17 0.17c0.12,0.45 0.14,0.96 0.08,1.51 -0.07,0.56 -0.23,1.13 -0.5,1.71 -0.27,0.57 -0.66,1.12 -1.18,1.64zm-2.1 -3.02c0.52,-0.52 0.87,-1.14 1.05,-1.85 0.18,-0.71 0.17,-1.44 -0.03,-2.19 -0.2,-0.75 -0.62,-1.44 -1.25,-2.07 -0.63,-0.64 -1.32,-1.05 -2.07,-1.25 -0.75,-0.2 -1.48,-0.2 -2.18,-0.02 -0.7,0.18 -1.32,0.54 -1.84,1.06 -0.51,0.51 -0.85,1.11 -1.04,1.82 -0.18,0.7 -0.18,1.42 0.01,2.16 0.19,0.74 0.61,1.44 1.26,2.09 0.64,0.63 1.33,1.05 2.09,1.26 0.75,0.2 1.48,0.21 2.18,0.03 0.71,-0.19 1.32,-0.53 1.82,-1.04zm14 -8.88c-0.76,0.76 -1.58,1.28 -2.47,1.56 -0.89,0.29 -1.78,0.32 -2.67,0.11 -0.88,-0.21 -1.69,-0.68 -2.41,-1.4 -0.74,-0.74 -1.19,-1.58 -1.34,-2.5 -0.15,-0.93 -0.04,-1.86 0.32,-2.81 0.36,-0.96 0.94,-1.83 1.74,-2.64 0.44,-0.43 0.86,-0.81 1.27,-1.12 0.41,-0.31 0.79,-0.57 1.14,-0.78 0.36,-0.21 0.67,-0.37 0.93,-0.47l-0.46 -0.46c-0.58,-0.58 -1.27,-0.84 -2.08,-0.77 -0.82,0.06 -1.6,0.47 -2.36,1.23 -0.51,0.51 -0.88,1.12 -1.12,1.82 -0.24,0.71 -0.33,1.41 -0.26,2.1l-3.17 0.38c-0.1,-0.81 -0.07,-1.6 0.07,-2.38 0.15,-0.78 0.43,-1.54 0.83,-2.26 0.4,-0.73 0.91,-1.4 1.53,-2.02 1.65,-1.65 3.29,-2.53 4.91,-2.63 1.62,-0.09 3.16,0.59 4.63,2.05l6.64 6.65 -2.73 2.72 -1.1 -1.1 -0.17 0.17c0.06,0.45 0.05,0.94 -0.03,1.45 -0.08,0.52 -0.25,1.04 -0.51,1.57 -0.26,0.52 -0.63,1.04 -1.13,1.53zm-1.5 -2.81c0.56,-0.57 0.92,-1.17 1.06,-1.8 0.14,-0.64 0.11,-1.25 -0.08,-1.85 -0.19,-0.6 -0.5,-1.12 -0.94,-1.56 -0.46,0.16 -0.94,0.39 -1.42,0.69 -0.49,0.3 -0.94,0.66 -1.35,1.07 -0.81,0.82 -1.22,1.54 -1.22,2.16 0,0.62 0.22,1.15 0.67,1.6 0.43,0.43 0.93,0.63 1.52,0.61 0.58,-0.02 1.17,-0.33 1.76,-0.92zm14.06 -9.75c-0.93,0.93 -1.85,1.59 -2.78,1.98 -0.92,0.38 -1.81,0.56 -2.65,0.53 -0.85,-0.02 -1.63,-0.2 -2.35,-0.52l1.4 -3.56c0.74,0.27 1.45,0.33 2.12,0.18 0.67,-0.15 1.28,-0.49 1.83,-1.04 0.45,-0.45 0.79,-0.94 1.01,-1.45 0.21,-0.52 0.13,-0.97 -0.27,-1.37 -0.28,-0.28 -0.6,-0.4 -0.95,-0.38 -0.35,0.03 -0.72,0.14 -1.09,0.33 -0.37,0.19 -0.74,0.41 -1.09,0.65l-1.54 0.99c-0.64,0.41 -1.33,0.7 -2.08,0.88 -0.76,0.17 -1.5,0.18 -2.24,0.03 -0.73,-0.16 -1.38,-0.52 -1.96,-1.1 -0.65,-0.65 -1.03,-1.4 -1.13,-2.25 -0.11,-0.86 0.02,-1.74 0.4,-2.65 0.37,-0.91 0.95,-1.75 1.72,-2.52 0.72,-0.72 1.45,-1.29 2.2,-1.69 0.75,-0.41 1.51,-0.66 2.27,-0.73 0.77,-0.08 1.55,0.02 2.34,0.3l-1.33 3.41c-0.65,-0.2 -1.24,-0.2 -1.77,-0.01 -0.53,0.19 -0.99,0.49 -1.4,0.9 -0.48,0.47 -0.77,0.95 -0.87,1.41 -0.1,0.47 -0.02,0.83 0.23,1.08 0.27,0.27 0.64,0.36 1.12,0.28 0.48,-0.09 0.97,-0.28 1.46,-0.58l1.97 -1.2c1.32,-0.82 2.54,-1.22 3.65,-1.2 1.1,0.03 2.05,0.43 2.84,1.22 0.71,0.7 1.12,1.53 1.24,2.46 0.12,0.94 -0.02,1.9 -0.43,2.88 -0.4,0.98 -1.02,1.89 -1.87,2.74zm10.81 -10.81c-1.2,1.2 -2.57,1.92 -4.12,2.16 -1.55,0.24 -3.07,-0.03 -4.55,-0.8l1.54 -3.71c0.85,0.48 1.65,0.69 2.4,0.63 0.76,-0.06 1.43,-0.39 2.02,-0.98 0.65,-0.65 0.95,-1.38 0.9,-2.17 -0.05,-0.8 -0.45,-1.58 -1.21,-2.34l-10.37 -10.36 2.86 -2.86 10.34 10.35c1.13,1.12 1.85,2.29 2.17,3.49 0.31,1.21 0.29,2.38 -0.07,3.52 -0.36,1.13 -0.99,2.16 -1.91,3.07zm11.46 -11.46c-1.32,1.33 -2.73,1.91 -4.21,1.76 -1.48,-0.16 -2.92,-0.94 -4.33,-2.35l-6.56 -6.56 2.77 -2.77 6.22 6.22c0.73,0.73 1.49,1.13 2.26,1.18 0.78,0.06 1.45,-0.19 2.01,-0.76 0.55,-0.55 0.88,-1.15 0.98,-1.81 0.11,-0.65 0.03,-1.31 -0.23,-1.98 -0.26,-0.67 -0.67,-1.29 -1.24,-1.85l-5.49 -5.5 2.77 -2.77 10.78 10.78 -2.6 2.6 -1.35 -1.35 -0.17 0.17c0.12,0.55 0.15,1.12 0.06,1.71 -0.08,0.59 -0.26,1.17 -0.54,1.73 -0.27,0.55 -0.65,1.07 -1.13,1.55zm8.46 -9.13l-15.14 -15.15 2.77 -2.77 15.14 15.15 -2.77 2.77zm5.67 -5.67l-10.79 -10.79 2.77 -2.77 10.79 10.79 -2.77 2.77zm-10.58 -13.37c-0.49,0.5 -1.09,0.74 -1.79,0.74 -0.71,0 -1.31,-0.24 -1.8,-0.74 -0.49,-0.49 -0.74,-1.09 -0.73,-1.78 0.01,-0.7 0.26,-1.3 0.75,-1.79 0.49,-0.49 1.09,-0.74 1.78,-0.74 0.69,0 1.28,0.25 1.77,0.74 0.5,0.49 0.75,1.09 0.75,1.79 0.01,0.69 -0.23,1.29 -0.73,1.78zm21.62 3.01c-1.13,1.12 -2.38,1.87 -3.75,2.24 -1.36,0.36 -2.73,0.36 -4.08,-0.02 -1.35,-0.38 -2.57,-1.12 -3.66,-2.2 -1.08,-1.09 -1.82,-2.31 -2.2,-3.66 -0.38,-1.35 -0.38,-2.71 -0.02,-4.08 0.37,-1.37 1.12,-2.62 2.24,-3.75 1.13,-1.12 2.38,-1.86 3.75,-2.22 1.36,-0.35 2.72,-0.34 4.07,0.04 1.34,0.37 2.56,1.1 3.65,2.18 1.08,1.09 1.81,2.31 2.2,3.66 0.38,1.36 0.39,2.71 0.03,4.07 -0.36,1.36 -1.11,2.61 -2.23,3.74zm-2.58 -2.58c0.53,-0.54 0.9,-1.15 1.1,-1.84 0.19,-0.69 0.19,-1.41 0,-2.16 -0.2,-0.75 -0.63,-1.45 -1.29,-2.12 -0.67,-0.66 -1.37,-1.08 -2.11,-1.27 -0.74,-0.2 -1.46,-0.2 -2.16,0 -0.69,0.19 -1.3,0.54 -1.82,1.06 -0.54,0.54 -0.91,1.16 -1.11,1.87 -0.21,0.72 -0.22,1.44 -0.03,2.18 0.19,0.74 0.62,1.44 1.28,2.11 0.67,0.66 1.37,1.09 2.12,1.29 0.74,0.19 1.47,0.19 2.18,-0.02 0.7,-0.22 1.31,-0.58 1.84,-1.1zm11.88 -7.15c-0.51,0.51 -1.12,0.76 -1.84,0.76 -0.72,0 -1.33,-0.25 -1.84,-0.76 -0.51,-0.51 -0.76,-1.12 -0.75,-1.83 0.01,-0.71 0.26,-1.32 0.77,-1.83 0.51,-0.51 1.12,-0.76 1.83,-0.77 0.71,-0.01 1.32,0.24 1.83,0.75 0.51,0.51 0.76,1.12 0.76,1.84 0,0.72 -0.25,1.33 -0.76,1.84zm9.66 -9.24c-1.09,1.1 -2.31,1.83 -3.65,2.2 -1.34,0.36 -2.69,0.36 -4.04,-0.02 -1.36,-0.38 -2.59,-1.13 -3.7,-2.25 -1.12,-1.11 -1.86,-2.34 -2.23,-3.69 -0.38,-1.34 -0.39,-2.69 -0.03,-4.04 0.36,-1.34 1.09,-2.56 2.19,-3.66 1.2,-1.2 2.48,-1.98 3.85,-2.33 1.37,-0.35 2.72,-0.24 4.06,0.34l-1.48 3.59c-0.72,-0.26 -1.4,-0.31 -2.04,-0.13 -0.64,0.17 -1.24,0.54 -1.81,1.11 -0.55,0.55 -0.91,1.17 -1.09,1.87 -0.17,0.7 -0.15,1.4 0.06,2.12 0.21,0.72 0.64,1.41 1.29,2.05 0.65,0.65 1.33,1.09 2.06,1.3 0.72,0.22 1.44,0.24 2.13,0.07 0.7,-0.18 1.33,-0.54 1.88,-1.09 0.62,-0.62 0.99,-1.27 1.13,-1.96 0.13,-0.68 0.08,-1.39 -0.14,-2.12l3.57 -1.38c0.48,1.33 0.57,2.7 0.26,4.11 -0.31,1.41 -1.07,2.71 -2.27,3.91zm12.1 -12.1c-1.13,1.13 -2.38,1.88 -3.74,2.24 -1.37,0.37 -2.73,0.36 -4.08,-0.02 -1.36,-0.38 -2.58,-1.11 -3.66,-2.2 -1.09,-1.08 -1.82,-2.3 -2.2,-3.66 -0.38,-1.35 -0.39,-2.71 -0.02,-4.08 0.36,-1.36 1.11,-2.61 2.24,-3.74 1.13,-1.13 2.37,-1.87 3.74,-2.22 1.37,-0.35 2.73,-0.34 4.07,0.03 1.35,0.38 2.56,1.1 3.65,2.19 1.09,1.09 1.82,2.31 2.2,3.66 0.38,1.35 0.39,2.71 0.03,4.07 -0.36,1.36 -1.1,2.6 -2.23,3.73zm-2.58 -2.58c0.54,-0.53 0.9,-1.15 1.1,-1.84 0.2,-0.69 0.2,-1.41 0,-2.15 -0.2,-0.75 -0.63,-1.46 -1.29,-2.12 -0.66,-0.66 -1.36,-1.09 -2.1,-1.28 -0.74,-0.19 -1.46,-0.19 -2.16,0 -0.7,0.19 -1.31,0.55 -1.83,1.07 -0.54,0.53 -0.91,1.16 -1.11,1.87 -0.2,0.71 -0.21,1.44 -0.02,2.18 0.19,0.74 0.62,1.44 1.28,2.1 0.66,0.67 1.37,1.1 2.11,1.29 0.75,0.2 1.48,0.19 2.18,-0.02 0.71,-0.21 1.32,-0.58 1.84,-1.1zm9.88 -5.39l-10.79 -10.79 2.6 -2.6 1.36 1.36 0.16 -0.17c-0.11,-0.57 -0.13,-1.14 -0.06,-1.72 0.07,-0.57 0.24,-1.14 0.52,-1.7 0.27,-0.55 0.65,-1.07 1.13,-1.55 0.79,-0.79 1.65,-1.28 2.57,-1.47 0.92,-0.19 1.77,-0.13 2.53,0.18 -0.2,-0.85 -0.19,-1.76 0.04,-2.73 0.23,-0.97 0.78,-1.9 1.67,-2.79 1.26,-1.26 2.58,-1.82 3.97,-1.68 1.38,0.13 2.71,0.83 3.98,2.1l6.94 6.94 -2.75 2.75 -6.43 -6.43c-0.69,-0.69 -1.38,-1.06 -2.06,-1.09 -0.69,-0.04 -1.3,0.22 -1.85,0.77 -0.48,0.48 -0.77,1.03 -0.87,1.65 -0.1,0.62 -0.01,1.26 0.27,1.91 0.27,0.66 0.72,1.3 1.34,1.92l5.43 5.43 -2.77 2.77 -6.43 -6.43c-0.69,-0.69 -1.38,-1.05 -2.07,-1.07 -0.69,-0.03 -1.34,0.26 -1.94,0.86 -0.46,0.45 -0.72,0.98 -0.81,1.59 -0.08,0.61 0.02,1.23 0.3,1.88 0.28,0.65 0.73,1.28 1.35,1.9l5.44 5.44 -2.77 2.77z"/>
   </g>
  </g>
  <polygon class="fil1" points="0,0 388.85,0 388.85,388.85 0,388.85 "/>
 </g>
</svg>
