<?xml version="1.0" encoding="UTF-8"?>
<!DOCTYPE svg PUBLIC "-//W3C//DTD SVG 1.1//EN" "http://www.w3.org/Graphics/SVG/1.1/DTD/svg11.dtd">
<!-- Creator: CorelDRAW -->
<svg xmlns="http://www.w3.org/2000/svg" xml:space="preserve" width="488px" height="136px" version="1.1" style="shape-rendering:geometricPrecision; text-rendering:geometricPrecision; image-rendering:optimizeQuality; fill-rule:evenodd; clip-rule:evenodd"
viewBox="0 0 488 136.52"
 xmlns:xlink="http://www.w3.org/1999/xlink"
 xmlns:xodm="http://www.corel.com/coreldraw/odm/2003">
 <defs>
  <style type="text/css">
   <![CDATA[
    .fil2 {fill:none}
    .fil0 {fill:#027DFD}
    .fil1 {fill:#4A4A4A;fill-rule:nonzero}
   ]]>
  </style>
   <clipPath id="id0">
    <path d="M0 136.52l488 0 0 -136.52 -488 0 0 136.52z"/>
   </clipPath>
 </defs>
 <g id="Capa_x0020_1">
  <metadata id="CorelCorpID_0Corel-Layer"/>
  <g>
  </g>
  <g style="clip-path:url(#id0)">
   <g id="_3108004703904">
    <g>
     <path class="fil0" d="M72.3 132.56c-5,5 -13.19,5 -18.19,0l-44.1 -44.11c-5,-5 -5,-13.18 0,-18.18 22.33,-22.34 44.67,-44.67 67,-67.01 1.88,-1.9 4.5,-3.07 7.39,-3.05l47.1 0.37c5.75,0.04 10.49,4.78 10.53,10.53l0.37 47c0.02,2.89 -1.15,5.51 -3.05,7.39 -22.35,22.35 -44.7,44.7 -67.05,67.06zm50.34 -112.63c3.8,3.79 3.8,9.94 0,13.73 -3.79,3.79 -9.93,3.79 -13.73,0 -3.79,-3.79 -3.79,-9.94 0,-13.73 3.8,-3.8 9.94,-3.8 13.73,0zm-55.31 107.51l-4.8 -4.8 1 -1 4.8 4.8 -1 1zm-0.65 -100.28c0,-1.07 0.38,-1.99 1.14,-2.74 0.76,-0.76 1.68,-1.14 2.75,-1.14 1.07,0 1.98,0.38 2.74,1.14 0.76,0.75 1.14,1.67 1.14,2.74 0,1.07 -0.38,1.98 -1.14,2.74 -0.76,0.76 -1.67,1.14 -2.74,1.14 -1.07,0 -1.99,-0.38 -2.75,-1.14 -0.76,-0.76 -1.14,-1.67 -1.14,-2.74zm5.51 -6.39l-1.97 -1.98 -0.73 0.75 -0.43 -0.44 1.91 -1.92 0.41 0.44 -0.68 0.7 1.96 1.98 -0.47 0.47zm1.58 -1.58l-2.41 -2.4 0.65 -0.65 2.41 1.07 0.02 -0.03 -1.06 -2.41 0.64 -0.64 2.42 2.4 -0.46 0.45 -1.28 -1.27 -0.45 -0.5 -0.03 0.02 1.05 2.47 -0.33 0.33 -2.48 -1.04 -0.02 0.02 0.51 0.45 1.26 1.29 -0.44 0.44zm-56.03 51.23l1.01 1.01 -2.08 2.08 6.43 6.43 -1.04 1.04 -6.44 -6.43 -2.08 2.09 -1.01 -1.01 5.21 -5.21zm2.46 0.32c-0.19,0.19 -0.4,0.28 -0.65,0.28 -0.24,-0.01 -0.45,-0.1 -0.63,-0.28 -0.18,-0.17 -0.27,-0.38 -0.27,-0.63 0,-0.24 0.09,-0.46 0.27,-0.64 0.18,-0.18 0.39,-0.27 0.63,-0.26 0.25,0 0.46,0.09 0.64,0.27 0.17,0.18 0.26,0.39 0.27,0.63 0,0.25 -0.09,0.46 -0.26,0.63zm5.53 6.58l-5.32 -5.32 1.04 -1.04 5.32 5.31 -1.04 1.05zm12.44 -12.44l-2.8 -2.8c-0.87,-0.87 -1.73,-1.3 -2.59,-1.31 -0.86,-0.02 -1.64,0.33 -2.35,1.04 -0.71,0.71 -1.06,1.5 -1.05,2.36 0.01,0.86 0.45,1.72 1.31,2.59l2.8 2.79 1.04 -1.04 -2.8 -2.79c-1.06,-1.07 -1.16,-2.03 -0.29,-2.9 0.86,-0.86 1.82,-0.76 2.89,0.3l2.79 2.8 1.05 -1.04zm14.82 -14.66c-0.58,0.58 -1.22,0.93 -1.93,1.03 -0.71,0.1 -1.32,-0.11 -1.83,-0.62l0.99 -1c0.23,0.22 0.52,0.3 0.86,0.23 0.34,-0.08 0.68,-0.27 1,-0.59 0.32,-0.33 0.51,-0.65 0.56,-0.95 0.05,-0.31 -0.03,-0.56 -0.25,-0.78 -0.22,-0.22 -0.49,-0.28 -0.81,-0.18 -0.32,0.09 -0.66,0.26 -1.02,0.5 -0.36,0.23 -0.73,0.46 -1.11,0.68 -0.38,0.21 -0.78,0.31 -1.22,0.3 -0.43,-0.02 -0.84,-0.22 -1.23,-0.61 -0.44,-0.43 -0.61,-0.98 -0.51,-1.64 0.09,-0.65 0.42,-1.26 0.98,-1.82 0.57,-0.57 1.18,-0.89 1.82,-0.97 0.65,-0.09 1.23,0.12 1.72,0.62l-1 1c-0.2,-0.2 -0.45,-0.27 -0.76,-0.2 -0.32,0.06 -0.61,0.22 -0.88,0.49 -0.26,0.27 -0.41,0.54 -0.46,0.83 -0.05,0.29 0.02,0.54 0.21,0.73 0.19,0.19 0.44,0.23 0.75,0.13 0.31,-0.1 0.64,-0.28 0.99,-0.52 0.36,-0.24 0.73,-0.46 1.11,-0.67 0.39,-0.21 0.8,-0.3 1.24,-0.28 0.44,0.02 0.86,0.22 1.25,0.59 0.53,0.52 0.74,1.11 0.63,1.77 -0.11,0.67 -0.48,1.31 -1.1,1.93zm5.43 -5.43l-1.01 -1.01c0.41,-0.41 0.6,-0.86 0.57,-1.35 -0.03,-0.48 -0.28,-0.96 -0.76,-1.44l-5.03 -5.03 1.04 -1.04 5.03 5.03c0.81,0.81 1.22,1.64 1.22,2.5 0,0.86 -0.35,1.64 -1.06,2.34zm2.26 -13.06l-1.05 1.04 2.8 2.8c1.06,1.06 1.16,2.03 0.3,2.89 -0.87,0.87 -1.83,0.77 -2.89,-0.29l-2.8 -2.8 -1.04 1.04 2.8 2.8c0.86,0.86 1.72,1.3 2.58,1.31 0.87,0.01 1.65,-0.34 2.36,-1.05 0.71,-0.71 1.06,-1.49 1.05,-2.35 -0.01,-0.86 -0.45,-1.73 -1.32,-2.59l-2.79 -2.8zm7.1 3.53l-1.04 1.04 -7.44 -7.44 1.04 -1.04 7.44 7.44zm-4.56 -7.54c-0.19,0.19 -0.4,0.28 -0.64,0.27 -0.25,0 -0.46,-0.09 -0.64,-0.27 -0.17,-0.17 -0.26,-0.38 -0.27,-0.63 0,-0.24 0.09,-0.46 0.27,-0.64 0.18,-0.18 0.39,-0.27 0.64,-0.26 0.24,0 0.45,0.09 0.63,0.27 0.18,0.17 0.27,0.39 0.27,0.63 0,0.25 -0.08,0.46 -0.26,0.63zm5.53 6.57l-5.32 -5.31 1.04 -1.04 5.32 5.31 -1.04 1.04zm-41.21 39.79c-1.06,-0.01 -1.97,-0.39 -2.73,-1.14 -0.76,-0.76 -1.14,-1.67 -1.16,-2.73 -0.02,-1.06 0.35,-1.97 1.11,-2.73 0.72,-0.72 1.59,-1.11 2.62,-1.16 1.02,-0.06 1.95,0.3 2.77,1.06 0.18,0.18 0.33,0.35 0.45,0.52l-4.3 4.29c0.44,0.36 0.93,0.51 1.48,0.47 0.54,-0.04 1.03,-0.28 1.46,-0.7 0.52,-0.53 0.77,-1.13 0.74,-1.81l1.25 -1.23c0.23,0.69 0.26,1.4 0.09,2.13 -0.16,0.72 -0.51,1.35 -1.04,1.89 -0.77,0.76 -1.68,1.14 -2.74,1.14zm-2.09 -2.74l3.21 -3.21c-0.47,-0.27 -0.97,-0.38 -1.5,-0.32 -0.53,0.06 -0.98,0.27 -1.36,0.65 -0.4,0.4 -0.63,0.86 -0.69,1.39 -0.05,0.52 0.06,1.02 0.34,1.49zm16.12 -15.18c0.76,0.75 1.14,1.67 1.14,2.73 0.01,1.07 -0.37,1.98 -1.13,2.74 -0.76,0.76 -1.67,1.14 -2.74,1.14 -1.07,0 -1.99,-0.38 -2.75,-1.14 -0.76,-0.76 -1.13,-1.67 -1.13,-2.74 0,-1.07 0.37,-1.99 1.13,-2.74 0.69,-0.69 1.51,-1 2.45,-0.92l-2.81 -2.81 1.05 -1.05 4.79 4.79zm-4.47 1c-0.48,0.48 -0.72,1.05 -0.71,1.71 0.01,0.66 0.26,1.23 0.75,1.72 0.48,0.49 1.06,0.74 1.71,0.75 0.66,0.01 1.23,-0.23 1.72,-0.72 0.48,-0.48 0.72,-1.05 0.71,-1.71 -0.01,-0.66 -0.25,-1.23 -0.74,-1.72 -0.48,-0.49 -1.06,-0.73 -1.72,-0.74 -0.67,0 -1.24,0.23 -1.72,0.71zm10.54 -1.59c-0.76,0.76 -1.67,1.14 -2.74,1.14 -1.07,0 -1.99,-0.38 -2.75,-1.14 -0.75,-0.76 -1.13,-1.67 -1.13,-2.74 0,-1.07 0.38,-1.99 1.13,-2.75 0.76,-0.75 1.67,-1.13 2.74,-1.13 1.07,0.01 1.98,0.39 2.74,1.14l2.66 2.66 -1.04 1.05 -0.84 -0.84c0.13,0.38 0.13,0.83 -0.01,1.32 -0.14,0.49 -0.39,0.92 -0.76,1.29zm-2.72 -0.31c0.67,0.01 1.24,-0.23 1.72,-0.71 0.48,-0.48 0.72,-1.05 0.71,-1.71 -0.01,-0.65 -0.26,-1.22 -0.75,-1.71 -0.49,-0.49 -1.06,-0.74 -1.72,-0.75 -0.65,-0.01 -1.22,0.22 -1.71,0.7 -0.48,0.49 -0.72,1.07 -0.72,1.73 0.01,0.66 0.26,1.23 0.75,1.72 0.48,0.48 1.05,0.73 1.72,0.73zm23.92 -29.84c-0.49,0.48 -0.73,1.06 -0.72,1.72 0.01,0.66 0.26,1.23 0.75,1.72 0.48,0.48 1.05,0.73 1.72,0.73 0.66,0.01 1.24,-0.23 1.72,-0.71 0.48,-0.48 0.72,-1.05 0.71,-1.7 -0.01,-0.66 -0.26,-1.23 -0.75,-1.72 -0.49,-0.49 -1.06,-0.74 -1.72,-0.75 -0.66,-0.01 -1.22,0.22 -1.71,0.71zm-2.41 82.18l10.22 -10.22 -31.47 -31.47 -10.22 10.22 31.47 31.47zm13.19 -13.19l5.02 -5.02 -31.47 -31.47 -5.02 5.02 31.47 31.47zm8.74 -8.73l5.01 -5.02 -31.47 -31.47 -5.01 5.02 31.47 31.47zm10.59 -10.59l5.02 -5.02 -31.47 -31.47 -5.02 5.02 31.47 31.47zm7.8 -7.81l10.22 -10.22 -31.47 -31.47 -10.22 10.22 31.47 31.47zm-51.28 51.29l5.01 -5.02 -31.47 -31.47 -5.01 5.02 31.47 31.47zm6.02 6l-0.94 -0.95 3.96 -3.96 0.94 0.95 -3.96 3.96zm8.95 -0.25l-3.77 -3.77 0.97 -0.97 3.77 3.77 -0.97 0.97zm-3.7 -4.68c-0.17,0.18 -0.38,0.26 -0.63,0.26 -0.24,0 -0.45,-0.08 -0.63,-0.26 -0.17,-0.17 -0.25,-0.38 -0.25,-0.62 0,-0.25 0.09,-0.46 0.26,-0.63 0.17,-0.17 0.38,-0.26 0.62,-0.26 0.24,0 0.45,0.09 0.63,0.26 0.17,0.17 0.26,0.38 0.26,0.63 0,0.24 -0.08,0.45 -0.26,0.62zm7.53 1.09c-0.38,0.38 -0.8,0.63 -1.28,0.76 -0.47,0.13 -0.94,0.12 -1.41,-0.01 -0.47,-0.13 -0.9,-0.39 -1.28,-0.77 -0.36,-0.36 -0.61,-0.78 -0.75,-1.25 -0.14,-0.48 -0.16,-0.95 -0.05,-1.43 0.11,-0.47 0.35,-0.9 0.72,-1.28 0.41,-0.4 0.83,-0.65 1.28,-0.76 0.45,-0.1 0.89,-0.08 1.32,0.07 0.44,0.14 0.83,0.39 1.18,0.74 0.08,0.08 0.14,0.15 0.19,0.21 0.06,0.06 0.09,0.11 0.11,0.14l-3.24 3.24 -0.69 -0.69 2.33 -2.33c-0.09,-0.08 -0.2,-0.14 -0.33,-0.18 -0.13,-0.05 -0.28,-0.07 -0.43,-0.06 -0.15,0 -0.31,0.03 -0.47,0.1 -0.15,0.06 -0.3,0.17 -0.45,0.31 -0.19,0.19 -0.31,0.41 -0.36,0.66 -0.06,0.26 -0.05,0.52 0.04,0.78 0.09,0.26 0.25,0.52 0.49,0.76 0.25,0.25 0.51,0.42 0.78,0.5 0.27,0.08 0.53,0.09 0.78,0.02 0.26,-0.07 0.48,-0.21 0.68,-0.4 0.23,-0.23 0.37,-0.48 0.43,-0.74 0.06,-0.26 0.05,-0.51 -0.01,-0.75l1.17 -0.4c0.13,0.49 0.15,0.97 0.04,1.43 -0.1,0.47 -0.37,0.91 -0.79,1.33zm2.46 -2.69l-3.78 -3.78 0.92 -0.91 0.47 0.47 0.06 -0.06c-0.07,-0.29 -0.05,-0.6 0.05,-0.91 0.1,-0.31 0.27,-0.59 0.51,-0.83 0.46,-0.47 0.95,-0.67 1.47,-0.62 0.51,0.04 1,0.3 1.47,0.77l2.35 2.35 -0.97 0.97 -2.23 -2.23c-0.25,-0.25 -0.5,-0.37 -0.76,-0.38 -0.25,0 -0.49,0.1 -0.71,0.32 -0.17,0.18 -0.28,0.38 -0.32,0.61 -0.03,0.23 0,0.45 0.09,0.69 0.09,0.23 0.23,0.44 0.43,0.64l1.92 1.93 -0.97 0.97zm6.18 -5.94c-0.35,0.34 -0.75,0.57 -1.19,0.68 -0.45,0.1 -0.9,0.08 -1.37,-0.06 -0.46,-0.14 -0.89,-0.4 -1.28,-0.8 -0.4,-0.39 -0.66,-0.82 -0.8,-1.28 -0.14,-0.46 -0.16,-0.92 -0.06,-1.37 0.11,-0.44 0.34,-0.84 0.68,-1.18 0.19,-0.19 0.38,-0.33 0.58,-0.42 0.2,-0.09 0.4,-0.15 0.6,-0.17 0.2,-0.02 0.37,-0.01 0.53,0.03l0.06 -0.06 -0.59 -0.47 -1.45 -1.45 0.96 -0.97 5.3 5.3 -0.9 0.91 -0.45 -0.45 -0.06 0.05c0.04,0.16 0.05,0.34 0.02,0.53 -0.02,0.2 -0.08,0.4 -0.17,0.6 -0.09,0.2 -0.23,0.4 -0.41,0.58zm-0.74 -1.06c0.19,-0.18 0.31,-0.4 0.37,-0.65 0.06,-0.25 0.06,-0.5 -0.01,-0.76 -0.07,-0.27 -0.22,-0.51 -0.44,-0.73 -0.22,-0.22 -0.46,-0.37 -0.72,-0.44 -0.27,-0.07 -0.52,-0.07 -0.77,0 -0.24,0.06 -0.46,0.18 -0.64,0.37 -0.18,0.17 -0.3,0.39 -0.36,0.63 -0.07,0.25 -0.07,0.5 0,0.76 0.07,0.26 0.21,0.5 0.44,0.73 0.22,0.22 0.46,0.37 0.73,0.44 0.26,0.07 0.52,0.08 0.77,0.01 0.24,-0.06 0.45,-0.18 0.63,-0.36zm4.9 -3.11c-0.26,0.27 -0.55,0.45 -0.86,0.55 -0.31,0.1 -0.62,0.11 -0.94,0.04 -0.31,-0.08 -0.59,-0.24 -0.84,-0.49 -0.26,-0.27 -0.42,-0.56 -0.47,-0.88 -0.05,-0.32 -0.01,-0.65 0.11,-0.99 0.13,-0.33 0.33,-0.64 0.61,-0.92 0.15,-0.15 0.3,-0.28 0.45,-0.39 0.14,-0.11 0.27,-0.2 0.4,-0.27 0.12,-0.08 0.23,-0.13 0.32,-0.17l-0.16 -0.16c-0.2,-0.2 -0.45,-0.29 -0.73,-0.27 -0.28,0.02 -0.56,0.17 -0.83,0.43 -0.17,0.18 -0.3,0.39 -0.39,0.64 -0.08,0.25 -0.11,0.49 -0.09,0.73l-1.11 0.14c-0.03,-0.28 -0.02,-0.56 0.03,-0.84 0.05,-0.27 0.15,-0.54 0.29,-0.79 0.14,-0.25 0.32,-0.49 0.53,-0.71 0.58,-0.57 1.15,-0.88 1.72,-0.91 0.57,-0.04 1.11,0.2 1.62,0.71l2.33 2.33 -0.96 0.95 -0.38 -0.38 -0.06 0.06c0.02,0.16 0.01,0.32 -0.01,0.51 -0.03,0.18 -0.09,0.36 -0.18,0.54 -0.09,0.19 -0.22,0.37 -0.4,0.54zm-0.52 -0.98c0.2,-0.2 0.32,-0.41 0.37,-0.63 0.05,-0.23 0.04,-0.44 -0.03,-0.65 -0.06,-0.21 -0.17,-0.39 -0.33,-0.55 -0.16,0.06 -0.33,0.14 -0.5,0.24 -0.17,0.11 -0.32,0.24 -0.47,0.38 -0.28,0.29 -0.43,0.54 -0.43,0.75 0,0.22 0.08,0.41 0.24,0.57 0.15,0.14 0.32,0.21 0.53,0.21 0.2,-0.01 0.41,-0.12 0.62,-0.32zm4.92 -3.42c-0.32,0.33 -0.65,0.56 -0.97,0.69 -0.33,0.14 -0.64,0.2 -0.93,0.19 -0.3,-0.01 -0.57,-0.07 -0.82,-0.18l0.49 -1.25c0.26,0.1 0.5,0.12 0.74,0.07 0.23,-0.05 0.45,-0.18 0.64,-0.37 0.16,-0.16 0.28,-0.33 0.35,-0.51 0.08,-0.18 0.05,-0.33 -0.09,-0.47 -0.1,-0.1 -0.21,-0.15 -0.33,-0.14 -0.13,0.01 -0.26,0.05 -0.39,0.12 -0.13,0.06 -0.25,0.14 -0.38,0.22l-0.54 0.35c-0.22,0.14 -0.46,0.25 -0.73,0.31 -0.26,0.06 -0.52,0.06 -0.78,0.01 -0.25,-0.05 -0.48,-0.18 -0.69,-0.38 -0.22,-0.23 -0.36,-0.49 -0.39,-0.79 -0.04,-0.3 0.01,-0.61 0.14,-0.93 0.13,-0.32 0.33,-0.61 0.6,-0.88 0.25,-0.26 0.51,-0.45 0.77,-0.6 0.26,-0.14 0.53,-0.22 0.8,-0.25 0.27,-0.03 0.54,0.01 0.82,0.11l-0.47 1.19c-0.23,-0.07 -0.43,-0.07 -0.62,-0.01 -0.18,0.07 -0.35,0.18 -0.49,0.32 -0.17,0.17 -0.27,0.33 -0.3,0.49 -0.04,0.17 -0.01,0.29 0.08,0.38 0.09,0.1 0.22,0.13 0.39,0.1 0.17,-0.03 0.34,-0.1 0.51,-0.2l0.69 -0.42c0.46,-0.29 0.89,-0.43 1.28,-0.42 0.38,0.01 0.71,0.15 0.99,0.42 0.25,0.25 0.39,0.54 0.43,0.87 0.05,0.33 0,0.66 -0.14,1 -0.14,0.35 -0.36,0.67 -0.66,0.96zm3.78 -3.78c-0.42,0.42 -0.9,0.67 -1.44,0.75 -0.54,0.09 -1.07,-0.01 -1.59,-0.28l0.54 -1.29c0.3,0.17 0.58,0.24 0.84,0.22 0.26,-0.03 0.5,-0.14 0.71,-0.35 0.22,-0.23 0.33,-0.48 0.31,-0.76 -0.02,-0.28 -0.16,-0.55 -0.42,-0.82l-3.63 -3.62 1 -1 3.62 3.62c0.39,0.39 0.65,0.8 0.76,1.22 0.11,0.42 0.1,0.83 -0.03,1.23 -0.12,0.4 -0.35,0.76 -0.67,1.08zm4.02 -4.01c-0.47,0.46 -0.96,0.66 -1.48,0.61 -0.51,-0.05 -1.02,-0.33 -1.51,-0.82l-2.3 -2.3 0.97 -0.97 2.18 2.18c0.25,0.26 0.52,0.4 0.79,0.42 0.27,0.01 0.51,-0.07 0.7,-0.27 0.2,-0.19 0.31,-0.4 0.35,-0.63 0.03,-0.23 0.01,-0.47 -0.08,-0.7 -0.1,-0.23 -0.24,-0.45 -0.44,-0.65l-1.92 -1.92 0.97 -0.97 3.77 3.77 -0.91 0.91 -0.47 -0.47 -0.06 0.06c0.04,0.19 0.05,0.39 0.02,0.6 -0.03,0.21 -0.09,0.41 -0.19,0.6 -0.09,0.2 -0.23,0.38 -0.39,0.55zm2.96 -3.2l-5.3 -5.3 0.97 -0.97 5.3 5.3 -0.97 0.97zm1.98 -1.99l-3.77 -3.77 0.97 -0.97 3.77 3.77 -0.97 0.97zm-3.7 -4.68c-0.17,0.18 -0.38,0.26 -0.63,0.26 -0.25,0 -0.45,-0.08 -0.63,-0.26 -0.17,-0.17 -0.26,-0.38 -0.25,-0.62 0,-0.25 0.09,-0.45 0.26,-0.63 0.17,-0.17 0.38,-0.26 0.62,-0.26 0.24,0 0.45,0.09 0.62,0.26 0.18,0.18 0.26,0.38 0.27,0.63 0,0.24 -0.09,0.45 -0.26,0.62zm7.57 1.06c-0.4,0.39 -0.83,0.65 -1.31,0.78 -0.48,0.13 -0.96,0.13 -1.43,-0.01 -0.48,-0.13 -0.9,-0.39 -1.28,-0.77 -0.38,-0.38 -0.64,-0.8 -0.77,-1.28 -0.14,-0.47 -0.14,-0.95 -0.01,-1.43 0.13,-0.48 0.39,-0.91 0.78,-1.31 0.4,-0.39 0.84,-0.65 1.31,-0.77 0.48,-0.13 0.96,-0.12 1.43,0.01 0.47,0.13 0.9,0.38 1.28,0.76 0.38,0.38 0.63,0.81 0.77,1.28 0.13,0.48 0.13,0.95 0.01,1.43 -0.13,0.48 -0.39,0.91 -0.78,1.31zm-0.91 -0.91c0.19,-0.19 0.32,-0.4 0.39,-0.64 0.07,-0.24 0.07,-0.49 0,-0.76 -0.07,-0.26 -0.22,-0.5 -0.45,-0.74 -0.23,-0.23 -0.48,-0.38 -0.74,-0.44 -0.26,-0.07 -0.51,-0.07 -0.75,0 -0.25,0.06 -0.46,0.19 -0.64,0.37 -0.19,0.19 -0.32,0.41 -0.39,0.65 -0.07,0.25 -0.08,0.51 -0.01,0.77 0.07,0.26 0.22,0.5 0.45,0.73 0.23,0.24 0.48,0.39 0.74,0.46 0.26,0.06 0.51,0.06 0.76,-0.01 0.25,-0.08 0.46,-0.2 0.64,-0.39zm4.16 -2.5c-0.17,0.18 -0.39,0.27 -0.64,0.27 -0.25,0 -0.47,-0.09 -0.64,-0.27 -0.18,-0.18 -0.27,-0.39 -0.27,-0.64 0.01,-0.25 0.1,-0.46 0.27,-0.64 0.18,-0.18 0.4,-0.27 0.65,-0.27 0.24,0 0.46,0.08 0.63,0.26 0.18,0.18 0.27,0.39 0.27,0.65 0,0.25 -0.09,0.46 -0.27,0.64zm3.39 -3.23c-0.39,0.38 -0.81,0.64 -1.28,0.76 -0.47,0.13 -0.94,0.13 -1.42,0 -0.47,-0.14 -0.9,-0.4 -1.29,-0.79 -0.39,-0.39 -0.65,-0.82 -0.78,-1.29 -0.13,-0.47 -0.14,-0.94 -0.01,-1.41 0.13,-0.47 0.38,-0.9 0.77,-1.29 0.42,-0.42 0.86,-0.69 1.34,-0.81 0.48,-0.13 0.96,-0.09 1.42,0.12l-0.51 1.26c-0.25,-0.1 -0.49,-0.11 -0.72,-0.05 -0.22,0.06 -0.43,0.19 -0.63,0.39 -0.19,0.19 -0.32,0.41 -0.38,0.65 -0.06,0.25 -0.06,0.49 0.02,0.75 0.07,0.25 0.22,0.49 0.45,0.71 0.22,0.23 0.47,0.38 0.72,0.46 0.25,0.08 0.5,0.08 0.75,0.02 0.24,-0.06 0.46,-0.19 0.65,-0.38 0.22,-0.22 0.35,-0.45 0.4,-0.69 0.05,-0.23 0.03,-0.48 -0.05,-0.74l1.25 -0.48c0.17,0.46 0.2,0.94 0.09,1.44 -0.11,0.49 -0.37,0.95 -0.79,1.37zm4.23 -4.24c-0.39,0.39 -0.83,0.66 -1.31,0.79 -0.48,0.12 -0.95,0.12 -1.43,-0.01 -0.47,-0.14 -0.9,-0.39 -1.28,-0.77 -0.38,-0.38 -0.63,-0.81 -0.77,-1.28 -0.13,-0.48 -0.13,-0.95 0,-1.43 0.12,-0.48 0.39,-0.92 0.78,-1.31 0.4,-0.4 0.83,-0.66 1.31,-0.78 0.48,-0.12 0.96,-0.12 1.43,0.01 0.47,0.13 0.89,0.39 1.27,0.77 0.38,0.38 0.64,0.8 0.77,1.28 0.14,0.47 0.14,0.95 0.01,1.42 -0.12,0.48 -0.38,0.92 -0.78,1.31zm-0.9 -0.9c0.19,-0.19 0.32,-0.41 0.38,-0.65 0.07,-0.24 0.07,-0.49 0,-0.75 -0.06,-0.26 -0.21,-0.51 -0.45,-0.74 -0.23,-0.24 -0.47,-0.38 -0.73,-0.45 -0.26,-0.07 -0.51,-0.07 -0.76,0 -0.24,0.07 -0.46,0.19 -0.64,0.37 -0.19,0.19 -0.32,0.41 -0.39,0.66 -0.07,0.25 -0.07,0.5 0,0.76 0.06,0.26 0.21,0.51 0.44,0.74 0.24,0.23 0.48,0.38 0.74,0.45 0.26,0.07 0.52,0.07 0.77,-0.01 0.24,-0.07 0.46,-0.2 0.64,-0.38zm3.46 -1.89l-3.78 -3.78 0.91 -0.91 0.48 0.48 0.06 -0.06c-0.04,-0.2 -0.05,-0.4 -0.03,-0.6 0.03,-0.2 0.09,-0.4 0.18,-0.6 0.1,-0.19 0.23,-0.37 0.4,-0.54 0.28,-0.28 0.58,-0.45 0.9,-0.52 0.32,-0.06 0.62,-0.04 0.88,0.07 -0.06,-0.3 -0.06,-0.62 0.02,-0.96 0.08,-0.34 0.27,-0.67 0.59,-0.98 0.43,-0.44 0.9,-0.63 1.38,-0.58 0.49,0.04 0.95,0.29 1.4,0.73l2.43 2.43 -0.97 0.96 -2.25 -2.25c-0.24,-0.24 -0.48,-0.37 -0.72,-0.38 -0.24,-0.01 -0.45,0.08 -0.65,0.27 -0.16,0.17 -0.27,0.36 -0.3,0.58 -0.03,0.22 0,0.44 0.09,0.67 0.1,0.23 0.26,0.45 0.47,0.67l1.91 1.9 -0.97 0.97 -2.26 -2.25c-0.24,-0.24 -0.48,-0.37 -0.72,-0.38 -0.24,-0.01 -0.47,0.09 -0.68,0.31 -0.16,0.15 -0.25,0.34 -0.28,0.55 -0.03,0.21 0,0.43 0.1,0.66 0.1,0.23 0.26,0.45 0.47,0.67l1.91 1.9 -0.97 0.97z"/>
     <path class="fil1" d="M435.75 63.54c2.74,-2.74 6.06,-4.11 9.95,-4.11 3.89,0 7.2,1.37 9.94,4.11 2.75,2.75 4.12,6.06 4.12,9.95 0,3.89 -1.37,7.21 -4.12,9.95 -2.74,2.74 -6.05,4.12 -9.94,4.12 -3.89,0 -7.21,-1.38 -9.95,-4.12 -2.75,-2.74 -4.12,-6.06 -4.12,-9.95 0,-3.89 1.37,-7.2 4.12,-9.95zm30.5 -2.26l0 -10.14 -3.76 0.05 0 -2.23 9.81 0 -0.06 2.18 -3.54 0.05 -0.05 10.09 -2.4 0zm8.07 0l0 -12.32 3.32 0 3.44 8.89 0.11 0 3.49 -8.89 3.27 0 0.05 12.32 -2.34 0 0 -6.54 0.11 -2.46 -0.11 0 -3.66 9 -1.69 0 -3.7 -9 -0.11 0 0.16 2.46 -0.05 6.54 -2.29 0zm-274.93 -12.32l0 5.18 -10.69 0 0 32.98 -5.34 0 0 -32.98 -10.68 0 0 -5.18 26.71 0zm5.45 7.14c-0.94,0 -1.73,-0.32 -2.34,-0.95 -0.62,-0.64 -0.93,-1.41 -0.93,-2.32 0,-0.91 0.31,-1.68 0.93,-2.32 0.61,-0.63 1.4,-0.95 2.34,-0.95 0.91,0 1.67,0.32 2.29,0.95 0.62,0.64 0.93,1.41 0.93,2.32 0,0.91 -0.31,1.68 -0.93,2.32 -0.62,0.63 -1.38,0.95 -2.29,0.95zm-2.67 31.02l0 -27.26 5.34 0 0 27.26 -5.34 0zm63.78 0l0 -14.34c0,-4.43 -1.09,-7.77 -3.27,-10 -2.18,-2.24 -5.08,-3.35 -8.72,-3.35 -3.63,0 -6.54,1.11 -8.72,3.35 -2.18,2.23 -3.27,5.57 -3.27,10l0 14.34 5.34 0 0 -14.34c0,-5.45 2.22,-8.17 6.65,-8.17 4.43,0 6.65,2.72 6.65,8.17l0 14.34 5.34 0zm75.56 0.44c-2.98,0 -5.5,-0.78 -7.57,-2.32 -2.08,-1.55 -3.11,-3.64 -3.11,-6.3l5.12 0c0,1.17 0.54,2.09 1.61,2.78 1.07,0.69 2.43,1.04 4.06,1.04 1.67,0 2.97,-0.33 3.87,-0.98 0.91,-0.66 1.37,-1.53 1.37,-2.62 0,-1.13 -0.54,-1.98 -1.61,-2.56 -1.07,-0.58 -2.37,-1.03 -3.9,-1.34 -1.53,-0.31 -3.05,-0.67 -4.58,-1.09 -1.52,-0.42 -2.82,-1.21 -3.9,-2.37 -1.07,-1.16 -1.6,-2.72 -1.6,-4.69 0,-2.25 0.96,-4.1 2.88,-5.53 1.93,-1.44 4.33,-2.15 7.2,-2.15 2.91,0 5.3,0.72 7.17,2.18 1.87,1.45 2.81,3.45 2.81,5.99l-5.13 0c0,-1.01 -0.48,-1.84 -1.44,-2.48 -0.97,-0.63 -2.14,-0.95 -3.52,-0.95 -1.34,0 -2.45,0.31 -3.32,0.93 -0.88,0.61 -1.31,1.41 -1.31,2.39 0,0.99 0.52,1.74 1.58,2.27 1.05,0.52 2.34,0.93 3.87,1.22 1.53,0.29 3.05,0.67 4.58,1.12 1.53,0.46 2.82,1.27 3.9,2.45 1.07,1.19 1.62,2.76 1.66,4.72 0.04,2.69 -0.94,4.74 -2.92,6.16 -1.98,1.42 -4.57,2.13 -7.77,2.13zm27.86 0l0 -5.18c2.11,0 3.75,-0.67 4.91,-1.99 1.16,-1.33 1.74,-3.21 1.74,-5.64l0 -25.79 5.35 0 0 25.79c0,4.14 -1.1,7.31 -3.3,9.51 -2.2,2.2 -5.1,3.3 -8.7,3.3zm39.25 -27.7l-5.34 0 0 14.34c0,5.45 -2.22,8.18 -6.65,8.18 -4.43,0 -6.65,-2.73 -6.65,-8.18l0 -14.34 -5.34 0 0 14.34c0,4.43 1.09,7.77 3.27,10 2.18,2.24 5.09,3.36 8.72,3.36 3.64,0 6.54,-1.12 8.72,-3.36 2.18,-2.23 3.27,-5.57 3.27,-10l0 -14.34zm9.16 27.26l-5.34 0 0 -38.16 5.34 0 0 38.16zm7.64 -31.02c-0.95,0 -1.73,-0.32 -2.35,-0.95 -0.62,-0.64 -0.92,-1.41 -0.92,-2.32 0,-0.91 0.3,-1.68 0.92,-2.32 0.62,-0.63 1.4,-0.95 2.35,-0.95 0.9,0 1.67,0.32 2.29,0.95 0.61,0.64 0.92,1.41 0.92,2.32 0,0.91 -0.31,1.68 -0.92,2.32 -0.62,0.63 -1.39,0.95 -2.29,0.95zm-2.68 31.02l0 -27.26 5.35 0 0 27.26 -5.35 0zm-207.62 -3.65c-2.71,-2.73 -4.06,-6.04 -4.06,-9.92 0,-3.89 1.33,-7.22 4,-9.98 2.67,-2.76 5.95,-4.14 9.84,-4.14 3.71,0 6.94,1.24 9.71,3.73 2.76,2.49 4.21,5.77 4.36,9.84 0,0.91 -0.06,1.73 -0.17,2.45l-22.02 0c0.22,2.04 1.08,3.7 2.59,4.99 1.51,1.29 3.35,1.94 5.53,1.94 2.69,0 4.87,-0.91 6.55,-2.73l6.37 0.06c-1.2,2.36 -2.94,4.26 -5.23,5.69 -2.29,1.44 -4.8,2.16 -7.52,2.16 -3.93,0 -7.24,-1.37 -9.95,-4.09zm1.66 -12.38l16.46 0c-0.51,-1.89 -1.51,-3.44 -3.02,-4.66 -1.51,-1.22 -3.23,-1.82 -5.15,-1.82 -2.07,0 -3.84,0.59 -5.32,1.79 -1.47,1.2 -2.46,2.77 -2.97,4.69zm80.25 2.4c0,3.89 -1.36,7.21 -4.09,9.95 -2.73,2.74 -6.03,4.12 -9.92,4.12 -3.89,0 -7.21,-1.38 -9.95,-4.12 -2.74,-2.74 -4.12,-6.06 -4.12,-9.95 0,-3.89 1.38,-7.2 4.12,-9.95 2.74,-2.74 6.06,-4.11 9.95,-4.11 3.52,0 6.4,1.3 8.61,3.92l0 -14.39 5.4 0 0 24.53zm-14.01 -8.88c-2.47,0 -4.54,0.85 -6.22,2.56 -1.67,1.71 -2.5,3.81 -2.5,6.32 0,2.51 0.82,4.62 2.48,6.33 1.65,1.7 3.73,2.56 6.24,2.56 2.47,0 4.54,-0.86 6.21,-2.56 1.67,-1.71 2.51,-3.82 2.51,-6.33 0,-2.47 -0.84,-4.57 -2.53,-6.3 -1.69,-1.72 -3.76,-2.58 -6.19,-2.58zm31.07 22.95c-3.89,0 -7.2,-1.38 -9.95,-4.12 -2.74,-2.74 -4.11,-6.06 -4.11,-9.95 0,-3.89 1.37,-7.2 4.11,-9.95 2.75,-2.74 6.06,-4.11 9.95,-4.11 3.89,0 7.2,1.37 9.92,4.11 2.73,2.75 4.09,6.06 4.09,9.95l0 13.63 -5.34 0 0 -4.31c-0.65,1.35 -1.79,2.48 -3.41,3.38 -1.61,0.91 -3.37,1.37 -5.26,1.37zm-6.18 -7.77c1.68,1.72 3.77,2.59 6.24,2.59 2.47,0 4.53,-0.86 6.18,-2.56 1.66,-1.71 2.49,-3.82 2.49,-6.33 0,-2.51 -0.83,-4.61 -2.49,-6.32 -1.65,-1.71 -3.71,-2.56 -6.18,-2.56 -2.51,0 -4.6,0.85 -6.27,2.56 -1.67,1.71 -2.51,3.81 -2.51,6.32 0,2.47 0.85,4.57 2.54,6.3zm137.84 -15.18c-2.51,0 -4.6,0.85 -6.27,2.56 -1.67,1.71 -2.51,3.81 -2.51,6.32 0,2.47 0.85,4.57 2.54,6.3 1.69,1.72 3.77,2.59 6.24,2.59 2.47,0 4.53,-0.86 6.19,-2.56 1.65,-1.71 2.48,-3.82 2.48,-6.33 0,-2.51 -0.83,-4.61 -2.48,-6.32 -1.66,-1.71 -3.72,-2.56 -6.19,-2.56z"/>
    </g>
   </g>
  </g>
  <polygon class="fil2" points="0,136.52 488,136.52 488,0 0,0 "/>
 </g>
</svg>
