<?xml version="1.0" encoding="UTF-8"?>
<!DOCTYPE svg PUBLIC "-//W3C//DTD SVG 1.1//EN" "http://www.w3.org/Graphics/SVG/1.1/DTD/svg11.dtd">
<!-- Creator: CorelDRAW -->
<svg xmlns="http://www.w3.org/2000/svg" xml:space="preserve" width="488px" height="136px" version="1.1" style="shape-rendering:geometricPrecision; text-rendering:geometricPrecision; image-rendering:optimizeQuality; fill-rule:evenodd; clip-rule:evenodd"
viewBox="0 0 559.75 156.59"
 xmlns:xlink="http://www.w3.org/1999/xlink"
 xmlns:xodm="http://www.corel.com/coreldraw/odm/2003">
 <defs>
  <style type="text/css">
   <![CDATA[
    .fil1 {fill:none}
    .fil0 {fill:white;fill-rule:nonzero}
   ]]>
  </style>
   <clipPath id="id0">
    <path d="M0 156.59l559.75 0 0 -156.59 -559.75 0 0 156.59z"/>
   </clipPath>
 </defs>
 <g id="Capa_x0020_1">
  <metadata id="CorelCorpID_0Corel-Layer"/>
  <g>
  </g>
  <g style="clip-path:url(#id0)">
   <g id="_3108851415888">
    <path class="fil0" d="M468.23 70.03c4.81,-4.8 10.62,-7.21 17.43,-7.21 6.81,0 12.62,2.41 17.42,7.21 4.81,4.81 7.21,10.62 7.21,17.43 0,6.81 -2.4,12.62 -7.21,17.43 -4.8,4.8 -10.61,7.21 -17.42,7.21 -6.81,0 -12.62,-2.41 -17.43,-7.21 -4.8,-4.81 -7.21,-10.62 -7.21,-17.43 0,-6.81 2.41,-12.62 7.21,-17.43zm53.43 -3.96l0 -17.76 -6.59 0.1 0 -3.92 17.18 0 -0.09 3.82 -6.21 0.1 -0.09 17.66 -4.2 0zm14.13 0l0 -21.58 5.82 0 6.02 15.57 0.19 0 6.11 -15.57 5.73 0 0.09 21.58 -4.1 0 0 -11.46 0.19 -4.29 -0.19 0 -6.4 15.75 -2.96 0 -6.49 -15.75 -0.19 0 0.28 4.29 -0.09 11.46 -4.01 0zm-481.54 -21.58l0 9.07 -18.72 0 0 57.77 -9.35 0 0 -57.77 -18.72 0 0 -9.07 46.79 0zm9.55 12.51c-1.66,0 -3.03,-0.56 -4.11,-1.67 -1.08,-1.11 -1.62,-2.47 -1.62,-4.06 0,-1.59 0.54,-2.94 1.62,-4.06 1.08,-1.11 2.45,-1.67 4.11,-1.67 1.59,0 2.93,0.56 4.01,1.67 1.08,1.12 1.62,2.47 1.62,4.06 0,1.59 -0.54,2.95 -1.62,4.06 -1.08,1.11 -2.42,1.67 -4.01,1.67zm-4.68 54.33l0 -47.74 9.36 0 0 47.74 -9.36 0zm111.72 0l0 -25.11c0,-7.77 -1.91,-13.61 -5.73,-17.52 -3.82,-3.92 -8.91,-5.88 -15.28,-5.88 -6.36,0 -11.46,1.96 -15.28,5.88 -3.81,3.91 -5.72,9.75 -5.72,17.52l0 25.11 9.35 0 0 -25.11c0,-9.55 3.89,-14.32 11.65,-14.32 7.77,0 11.65,4.77 11.65,14.32l0 25.11 9.36 0zm132.34 0.77c-5.22,0 -9.64,-1.36 -13.27,-4.06 -3.63,-2.71 -5.44,-6.38 -5.44,-11.03l8.97 0c0,2.04 0.94,3.66 2.82,4.87 1.88,1.21 4.25,1.81 7.11,1.81 2.93,0 5.19,-0.57 6.78,-1.72 1.59,-1.14 2.39,-2.67 2.39,-4.58 0,-1.97 -0.94,-3.47 -2.82,-4.49 -1.87,-1.02 -4.15,-1.8 -6.82,-2.34 -2.68,-0.54 -5.35,-1.17 -8.03,-1.91 -2.67,-0.73 -4.94,-2.11 -6.82,-4.15 -1.88,-2.04 -2.82,-4.77 -2.82,-8.21 0,-3.95 1.69,-7.18 5.06,-9.69 3.38,-2.52 7.58,-3.78 12.61,-3.78 5.09,0 9.27,1.28 12.55,3.82 3.28,2.55 4.92,6.05 4.92,10.51l-8.98 0c0,-1.78 -0.84,-3.23 -2.53,-4.35 -1.68,-1.11 -3.74,-1.67 -6.15,-1.67 -2.36,0 -4.3,0.54 -5.83,1.63 -1.53,1.08 -2.29,2.48 -2.29,4.2 0,1.72 0.92,3.04 2.77,3.96 1.84,0.92 4.1,1.64 6.78,2.15 2.67,0.51 5.34,1.16 8.02,1.96 2.67,0.79 4.95,2.22 6.83,4.29 1.87,2.07 2.84,4.82 2.91,8.26 0.06,4.71 -1.64,8.31 -5.11,10.79 -3.47,2.49 -8.01,3.73 -13.61,3.73zm48.8 0l0 -9.08c3.69,0 6.55,-1.16 8.59,-3.48 2.04,-2.32 3.06,-5.62 3.06,-9.88l0 -45.17 9.35 0 0 45.17c0,7.25 -1.92,12.81 -5.77,16.66 -3.86,3.85 -8.93,5.78 -15.23,5.78zm68.75 -48.51l-9.36 0 0 25.11c0,9.55 -3.88,14.32 -11.65,14.32 -7.77,0 -11.65,-4.77 -11.65,-14.32l0 -25.11 -9.36 0 0 25.11c0,7.77 1.91,13.61 5.73,17.52 3.82,3.92 8.91,5.88 15.28,5.88 6.37,0 11.46,-1.96 15.28,-5.88 3.82,-3.91 5.73,-9.75 5.73,-17.52l0 -25.11zm16.04 47.74l-9.36 0 0 -66.84 9.36 0 0 66.84zm13.37 -54.33c-1.66,0 -3.03,-0.56 -4.11,-1.67 -1.08,-1.11 -1.62,-2.47 -1.62,-4.06 0,-1.59 0.54,-2.94 1.62,-4.06 1.08,-1.11 2.45,-1.67 4.11,-1.67 1.59,0 2.93,0.56 4.01,1.67 1.08,1.12 1.62,2.47 1.62,4.06 0,1.59 -0.54,2.95 -1.62,4.06 -1.08,1.11 -2.42,1.67 -4.01,1.67zm-4.68 54.33l0 -47.74 9.36 0 0 47.74 -9.36 0zm-363.66 -6.4c-4.74,-4.77 -7.12,-10.56 -7.12,-17.37 0,-6.82 2.35,-12.64 7.02,-17.48 4.68,-4.84 10.43,-7.26 17.24,-7.26 6.49,0 12.16,2.18 16.99,6.54 4.84,4.37 7.39,10.11 7.64,17.24 0,1.59 -0.09,3.02 -0.28,4.3l-38.58 0c0.38,3.56 1.9,6.47 4.54,8.73 2.64,2.26 5.87,3.39 9.69,3.39 4.71,0 8.53,-1.59 11.46,-4.77l11.17 0.1c-2.1,4.13 -5.16,7.46 -9.17,9.97 -4.01,2.52 -8.4,3.78 -13.18,3.78 -6.87,0 -12.68,-2.39 -17.42,-7.17zm2.91 -21.67l28.84 0c-0.9,-3.31 -2.66,-6.03 -5.3,-8.17 -2.64,-2.13 -5.65,-3.19 -9.03,-3.19 -3.62,0 -6.73,1.05 -9.3,3.15 -2.58,2.1 -4.32,4.83 -5.21,8.21zm140.56 4.2c0,6.81 -2.39,12.62 -7.17,17.43 -4.77,4.8 -10.56,7.21 -17.38,7.21 -6.81,0 -12.61,-2.41 -17.42,-7.21 -4.81,-4.81 -7.21,-10.62 -7.21,-17.43 0,-6.81 2.4,-12.62 7.21,-17.43 4.81,-4.8 10.61,-7.21 17.42,-7.21 6.18,0 11.21,2.3 15.09,6.88l0 -25.21 9.46 0 0 42.97zm-24.55 -15.56c-4.32,0 -7.95,1.49 -10.88,4.48 -2.93,3 -4.39,6.69 -4.39,11.08 0,4.39 1.45,8.08 4.34,11.08 2.9,2.99 6.54,4.48 10.93,4.48 4.33,0 7.96,-1.49 10.89,-4.48 2.93,-3 4.39,-6.69 4.39,-11.08 0,-4.33 -1.48,-8.01 -4.44,-11.03 -2.96,-3.02 -6.57,-4.53 -10.84,-4.53zm54.43 40.2c-6.81,0 -12.62,-2.41 -17.42,-7.21 -4.81,-4.81 -7.21,-10.62 -7.21,-17.43 0,-6.81 2.4,-12.62 7.21,-17.43 4.8,-4.8 10.61,-7.21 17.42,-7.21 6.82,0 12.61,2.41 17.38,7.21 4.78,4.81 7.16,10.62 7.16,17.43l0 23.87 -9.35 0 0 -7.54c-1.15,2.35 -3.14,4.33 -5.97,5.92 -2.83,1.59 -5.91,2.39 -9.22,2.39zm-10.83 -13.61c2.96,3.02 6.6,4.53 10.93,4.53 4.33,0 7.94,-1.49 10.84,-4.48 2.89,-3 4.34,-6.69 4.34,-11.08 0,-4.39 -1.45,-8.08 -4.34,-11.08 -2.9,-2.99 -6.51,-4.48 -10.84,-4.48 -4.39,0 -8.05,1.49 -10.98,4.48 -2.93,3 -4.39,6.69 -4.39,11.08 0,4.33 1.48,8.01 4.44,11.03zm241.43 -26.59c-4.39,0 -8.05,1.49 -10.98,4.48 -2.93,3 -4.39,6.69 -4.39,11.08 0,4.33 1.48,8.01 4.44,11.03 2.96,3.02 6.61,4.53 10.93,4.53 4.33,0 7.94,-1.49 10.84,-4.48 2.9,-3 4.35,-6.69 4.35,-11.08 0,-4.39 -1.45,-8.08 -4.35,-11.08 -2.9,-2.99 -6.51,-4.48 -10.84,-4.48z"/>
   </g>
  </g>
  <polygon class="fil1" points="0,156.59 559.75,156.59 559.75,0 0,0 "/>
 </g>
</svg>
