<?xml version="1.0" encoding="UTF-8"?>
<!DOCTYPE svg PUBLIC "-//W3C//DTD SVG 1.1//EN" "http://www.w3.org/Graphics/SVG/1.1/DTD/svg11.dtd">
<!-- Creator: CorelDRAW -->
<svg xmlns="http://www.w3.org/2000/svg" xml:space="preserve" width="126px" height="86px" version="1.1" style="shape-rendering:geometricPrecision; text-rendering:geometricPrecision; image-rendering:optimizeQuality; fill-rule:evenodd; clip-rule:evenodd"
viewBox="0 0 62.65 42.76"
 xmlns:xlink="http://www.w3.org/1999/xlink"
 xmlns:xodm="http://www.corel.com/coreldraw/odm/2003">
 <defs>
  <style type="text/css">
   <![CDATA[
    .fil1 {fill:none}
    .fil0 {fill:#027DFD}
   ]]>
  </style>
   <clipPath id="id0">
    <path d="M0 0l62.65 0 0 42.76 -62.65 0 0 -42.76z"/>
   </clipPath>
 </defs>
 <g id="Capa_x0020_1">
  <metadata id="CorelCorpID_0Corel-Layer"/>
  <g>
  </g>
  <g style="clip-path:url(#id0)">
   <g id="_3108845136816">
    <path class="fil0" d="M20.85 38.29c-1.32,1.32 -3.47,1.32 -4.78,0l-11.6 -11.6c-1.32,-1.31 -1.32,-3.46 0,-4.78 5.87,-5.87 11.74,-11.75 17.62,-17.62 0.49,-0.5 1.18,-0.81 1.94,-0.8l12.39 0.09c1.51,0.02 2.75,1.26 2.77,2.77l0.09 12.36c0.01,0.76 -0.3,1.45 -0.8,1.95 -5.88,5.88 -11.75,11.75 -17.63,17.63zm13.24 -29.62c1,1 1,2.62 0,3.61 -1,1 -2.62,1 -3.61,0 -1,-0.99 -1,-2.61 0,-3.61 0.99,-1 2.61,-1 3.61,0zm-14.55 28.28l-1.26 -1.27 0.26 -0.26 1.26 1.26 -0.26 0.27zm-0.17 -26.38c0,-0.28 0.1,-0.52 0.3,-0.72 0.2,-0.2 0.44,-0.3 0.72,-0.3 0.28,0 0.52,0.1 0.72,0.3 0.2,0.2 0.3,0.44 0.3,0.72 0,0.29 -0.1,0.53 -0.3,0.73 -0.2,0.2 -0.44,0.3 -0.72,0.3 -0.28,-0.01 -0.52,-0.1 -0.72,-0.3 -0.2,-0.2 -0.3,-0.44 -0.3,-0.73zm1.45 -1.68l-0.52 -0.52 -0.19 0.2 -0.11 -0.12 0.5 -0.5 0.11 0.12 -0.18 0.18 0.51 0.52 -0.12 0.12zm0.41 -0.41l-0.63 -0.63 0.17 -0.17 0.64 0.28 0 -0.01 -0.28 -0.63 0.17 -0.17 0.64 0.63 -0.12 0.12 -0.34 -0.34 -0.12 -0.13 -0.01 0.01 0.28 0.65 -0.09 0.08 -0.65 -0.27 -0.01 0.01 0.14 0.11 0.33 0.34 -0.12 0.12zm-14.73 13.47l0.27 0.27 -0.55 0.54 1.69 1.69 -0.27 0.28 -1.7 -1.69 -0.54 0.55 -0.27 -0.27 1.37 -1.37zm0.65 0.09c-0.05,0.04 -0.11,0.07 -0.17,0.07 -0.07,0 -0.12,-0.03 -0.17,-0.07 -0.05,-0.05 -0.07,-0.11 -0.07,-0.17 0,-0.06 0.02,-0.12 0.07,-0.17 0.05,-0.05 0.1,-0.07 0.17,-0.07 0.06,0 0.12,0.03 0.16,0.07 0.05,0.05 0.07,0.11 0.08,0.17 0,0.06 -0.03,0.12 -0.07,0.17zm1.45 1.72l-1.4 -1.39 0.28 -0.28 1.39 1.4 -0.27 0.27zm3.27 -3.27l-0.73 -0.73c-0.23,-0.23 -0.46,-0.35 -0.68,-0.35 -0.23,0 -0.44,0.09 -0.62,0.28 -0.19,0.18 -0.28,0.39 -0.28,0.62 0,0.22 0.12,0.45 0.35,0.68l0.73 0.73 0.28 -0.27 -0.74 -0.74c-0.28,-0.28 -0.31,-0.53 -0.08,-0.76 0.23,-0.22 0.48,-0.2 0.76,0.08l0.74 0.74 0.27 -0.28zm3.9 -3.85c-0.15,0.15 -0.32,0.24 -0.51,0.27 -0.18,0.03 -0.34,-0.03 -0.48,-0.16l0.26 -0.27c0.06,0.06 0.14,0.08 0.23,0.06 0.09,-0.02 0.18,-0.07 0.26,-0.15 0.09,-0.09 0.13,-0.17 0.15,-0.25 0.01,-0.08 -0.01,-0.15 -0.07,-0.21 -0.05,-0.05 -0.13,-0.07 -0.21,-0.04 -0.09,0.02 -0.17,0.06 -0.27,0.13 -0.09,0.06 -0.19,0.12 -0.29,0.18 -0.1,0.05 -0.21,0.08 -0.32,0.07 -0.12,0 -0.22,-0.05 -0.32,-0.15 -0.12,-0.12 -0.17,-0.26 -0.14,-0.44 0.03,-0.17 0.11,-0.33 0.26,-0.48 0.15,-0.14 0.31,-0.23 0.48,-0.25 0.17,-0.02 0.32,0.03 0.45,0.16l-0.26 0.27c-0.05,-0.06 -0.12,-0.07 -0.2,-0.06 -0.09,0.02 -0.16,0.06 -0.23,0.13 -0.07,0.07 -0.11,0.15 -0.13,0.22 -0.01,0.08 0.01,0.14 0.06,0.19 0.05,0.05 0.12,0.06 0.2,0.04 0.08,-0.03 0.16,-0.07 0.26,-0.14 0.09,-0.06 0.19,-0.12 0.29,-0.18 0.1,-0.05 0.21,-0.08 0.33,-0.07 0.11,0.01 0.22,0.06 0.32,0.16 0.14,0.13 0.2,0.29 0.17,0.46 -0.03,0.18 -0.13,0.35 -0.29,0.51zm1.43 -1.43l-0.27 -0.27c0.11,-0.1 0.16,-0.22 0.15,-0.35 -0.01,-0.13 -0.07,-0.25 -0.2,-0.38l-1.32 -1.32 0.27 -0.27 1.33 1.32c0.21,0.21 0.32,0.43 0.32,0.66 0,0.22 -0.1,0.43 -0.28,0.61zm0.59 -3.43l-0.27 0.27 0.73 0.74c0.28,0.28 0.31,0.53 0.08,0.76 -0.23,0.22 -0.48,0.2 -0.76,-0.08l-0.73 -0.74 -0.28 0.28 0.74 0.73c0.22,0.23 0.45,0.34 0.68,0.35 0.22,0 0.43,-0.09 0.62,-0.28 0.18,-0.18 0.28,-0.39 0.27,-0.62 0,-0.22 -0.12,-0.45 -0.34,-0.68l-0.74 -0.73zm1.87 0.93l-0.27 0.27 -1.96 -1.96 0.27 -0.27 1.96 1.96zm-1.2 -1.99c-0.05,0.05 -0.1,0.07 -0.17,0.07 -0.06,0 -0.12,-0.02 -0.17,-0.07 -0.04,-0.04 -0.07,-0.1 -0.07,-0.16 0,-0.07 0.03,-0.12 0.07,-0.17 0.05,-0.05 0.11,-0.07 0.17,-0.07 0.07,0 0.12,0.02 0.17,0.07 0.04,0.05 0.07,0.1 0.07,0.17 0,0.06 -0.02,0.12 -0.07,0.16zm1.45 1.73l-1.39 -1.4 0.27 -0.27 1.4 1.4 -0.28 0.27zm-10.83 10.46c-0.28,0 -0.52,-0.1 -0.72,-0.3 -0.2,-0.2 -0.3,-0.44 -0.31,-0.72 0,-0.27 0.1,-0.51 0.3,-0.71 0.19,-0.19 0.42,-0.29 0.69,-0.31 0.26,-0.01 0.51,0.08 0.72,0.28 0.05,0.05 0.09,0.09 0.12,0.14l-1.13 1.13c0.12,0.09 0.25,0.13 0.39,0.12 0.14,-0.01 0.27,-0.07 0.38,-0.18 0.14,-0.14 0.21,-0.3 0.2,-0.48l0.33 -0.32c0.06,0.18 0.07,0.36 0.02,0.56 -0.04,0.19 -0.13,0.35 -0.27,0.49 -0.2,0.2 -0.44,0.3 -0.72,0.3zm-0.55 -0.72l0.84 -0.84c-0.12,-0.07 -0.25,-0.1 -0.39,-0.09 -0.14,0.02 -0.26,0.08 -0.36,0.17 -0.11,0.11 -0.17,0.23 -0.18,0.37 -0.01,0.14 0.01,0.27 0.09,0.39zm4.24 -3.99c0.2,0.2 0.3,0.44 0.3,0.72 0,0.28 -0.1,0.52 -0.3,0.72 -0.2,0.2 -0.44,0.3 -0.72,0.3 -0.28,0 -0.52,-0.1 -0.72,-0.3 -0.2,-0.2 -0.3,-0.44 -0.3,-0.72 0,-0.28 0.1,-0.52 0.3,-0.72 0.18,-0.18 0.39,-0.26 0.64,-0.24l-0.74 -0.74 0.28 -0.28 1.26 1.26zm-1.18 0.26c-0.12,0.13 -0.19,0.28 -0.19,0.45 0.01,0.18 0.07,0.33 0.2,0.46 0.13,0.12 0.28,0.19 0.45,0.19 0.17,0.01 0.33,-0.06 0.45,-0.19 0.13,-0.12 0.19,-0.27 0.19,-0.45 0,-0.17 -0.07,-0.32 -0.19,-0.45 -0.13,-0.13 -0.28,-0.19 -0.46,-0.19 -0.17,0 -0.32,0.06 -0.45,0.18zm2.77 -0.41c-0.2,0.2 -0.44,0.3 -0.72,0.3 -0.28,0 -0.52,-0.1 -0.72,-0.3 -0.2,-0.2 -0.3,-0.44 -0.3,-0.73 0,-0.28 0.1,-0.52 0.3,-0.72 0.2,-0.2 0.44,-0.3 0.72,-0.29 0.28,0 0.52,0.1 0.72,0.3l0.7 0.7 -0.27 0.27 -0.22 -0.22c0.03,0.1 0.03,0.22 -0.01,0.35 -0.03,0.13 -0.1,0.24 -0.2,0.34zm-0.71 -0.08c0.17,0 0.32,-0.07 0.45,-0.19 0.13,-0.13 0.19,-0.28 0.19,-0.45 -0.01,-0.17 -0.07,-0.32 -0.2,-0.45 -0.13,-0.13 -0.28,-0.2 -0.45,-0.2 -0.17,0 -0.32,0.06 -0.45,0.19 -0.13,0.12 -0.19,0.28 -0.19,0.45 0,0.17 0.07,0.32 0.2,0.45 0.12,0.13 0.27,0.19 0.45,0.2zm6.29 -7.85c-0.13,0.12 -0.19,0.28 -0.19,0.45 0,0.17 0.07,0.32 0.19,0.45 0.13,0.13 0.28,0.19 0.46,0.19 0.17,0.01 0.32,-0.06 0.45,-0.18 0.13,-0.13 0.19,-0.28 0.19,-0.45 -0.01,-0.17 -0.07,-0.32 -0.2,-0.45 -0.13,-0.13 -0.28,-0.2 -0.45,-0.2 -0.17,0 -0.32,0.06 -0.45,0.19zm-0.64 21.61l2.69 -2.69 -8.27 -8.27 -2.69 2.68 8.27 8.28zm3.47 -3.47l1.32 -1.32 -8.27 -8.28 -1.32 1.32 8.27 8.28zm2.3 -2.3l1.32 -1.32 -8.28 -8.27 -1.31 1.32 8.27 8.27zm2.79 -2.78l1.32 -1.32 -8.28 -8.28 -1.32 1.32 8.28 8.28zm2.05 -2.05l2.69 -2.69 -8.28 -8.28 -2.69 2.69 8.28 8.28zm-13.49 13.48l1.32 -1.32 -8.27 -8.27 -1.32 1.32 8.27 8.27zm1.59 1.58l-0.25 -0.25 1.04 -1.04 0.25 0.25 -1.04 1.04zm2.35 -0.06l-0.99 -1 0.25 -0.25 1 0.99 -0.26 0.26zm-0.97 -1.24c-0.05,0.05 -0.1,0.07 -0.17,0.07 -0.06,0 -0.12,-0.02 -0.16,-0.07 -0.05,-0.04 -0.07,-0.09 -0.07,-0.16 0,-0.06 0.02,-0.12 0.07,-0.16 0.04,-0.05 0.1,-0.07 0.16,-0.07 0.06,0 0.12,0.02 0.17,0.07 0.04,0.04 0.06,0.1 0.06,0.16 0,0.07 -0.02,0.12 -0.06,0.16zm1.98 0.29c-0.1,0.1 -0.21,0.17 -0.34,0.2 -0.12,0.03 -0.25,0.03 -0.37,0 -0.12,-0.04 -0.24,-0.1 -0.34,-0.2 -0.09,-0.1 -0.16,-0.21 -0.2,-0.33 -0.03,-0.13 -0.04,-0.25 -0.01,-0.38 0.03,-0.12 0.09,-0.24 0.19,-0.33 0.11,-0.11 0.22,-0.18 0.34,-0.2 0.12,-0.03 0.23,-0.03 0.35,0.01 0.11,0.04 0.21,0.11 0.31,0.2 0.02,0.02 0.03,0.04 0.05,0.05 0.01,0.02 0.02,0.03 0.03,0.04l-0.86 0.85 -0.18 -0.18 0.61 -0.61c-0.02,-0.02 -0.05,-0.04 -0.08,-0.05 -0.04,-0.01 -0.08,-0.02 -0.12,-0.02 -0.04,0 -0.08,0.01 -0.12,0.03 -0.04,0.02 -0.08,0.04 -0.12,0.08 -0.05,0.05 -0.08,0.11 -0.09,0.18 -0.02,0.06 -0.02,0.13 0.01,0.2 0.02,0.07 0.06,0.14 0.13,0.2 0.06,0.07 0.13,0.11 0.2,0.13 0.07,0.02 0.14,0.03 0.21,0.01 0.06,-0.02 0.12,-0.06 0.17,-0.11 0.07,-0.06 0.1,-0.12 0.12,-0.19 0.01,-0.07 0.01,-0.14 0,-0.2l0.3 -0.1c0.04,0.12 0.04,0.25 0.01,0.37 -0.02,0.12 -0.09,0.24 -0.2,0.35zm0.64 -0.71l-0.99 -0.99 0.24 -0.24 0.12 0.12 0.02 -0.01c-0.02,-0.08 -0.01,-0.16 0.01,-0.24 0.03,-0.08 0.07,-0.16 0.14,-0.22 0.12,-0.12 0.25,-0.18 0.38,-0.16 0.14,0.01 0.27,0.08 0.39,0.2l0.62 0.62 -0.26 0.25 -0.58 -0.58c-0.07,-0.07 -0.13,-0.1 -0.2,-0.1 -0.07,0 -0.13,0.02 -0.19,0.08 -0.04,0.05 -0.07,0.1 -0.08,0.16 -0.01,0.06 0,0.12 0.02,0.18 0.02,0.06 0.06,0.12 0.11,0.17l0.51 0.51 -0.26 0.25zm1.63 -1.56c-0.09,0.09 -0.2,0.15 -0.32,0.18 -0.11,0.03 -0.23,0.02 -0.35,-0.01 -0.12,-0.04 -0.24,-0.11 -0.34,-0.22 -0.1,-0.1 -0.18,-0.21 -0.21,-0.33 -0.04,-0.12 -0.04,-0.24 -0.02,-0.36 0.03,-0.12 0.09,-0.22 0.18,-0.31 0.05,-0.05 0.1,-0.09 0.15,-0.11 0.06,-0.03 0.11,-0.04 0.16,-0.05 0.05,0 0.1,0 0.14,0.01l0.02 -0.02 -0.16 -0.12 -0.38 -0.38 0.25 -0.25 1.4 1.39 -0.24 0.24 -0.12 -0.12 -0.01 0.01c0.01,0.05 0.01,0.09 0,0.14 0,0.05 -0.02,0.11 -0.04,0.16 -0.03,0.05 -0.06,0.1 -0.11,0.15zm-0.2 -0.28c0.05,-0.04 0.08,-0.1 0.1,-0.17 0.02,-0.06 0.02,-0.13 0,-0.2 -0.02,-0.07 -0.06,-0.13 -0.12,-0.19 -0.06,-0.06 -0.12,-0.1 -0.19,-0.11 -0.07,-0.02 -0.13,-0.02 -0.2,-0.01 -0.06,0.02 -0.12,0.05 -0.17,0.1 -0.04,0.05 -0.08,0.1 -0.09,0.17 -0.02,0.06 -0.02,0.13 0,0.2 0.02,0.07 0.05,0.13 0.11,0.19 0.06,0.06 0.13,0.1 0.2,0.12 0.07,0.01 0.13,0.02 0.2,0 0.06,-0.02 0.12,-0.05 0.16,-0.1zm1.29 -0.81c-0.07,0.06 -0.14,0.11 -0.22,0.14 -0.09,0.03 -0.17,0.03 -0.25,0.01 -0.08,-0.02 -0.16,-0.06 -0.22,-0.13 -0.07,-0.07 -0.11,-0.15 -0.13,-0.23 -0.01,-0.09 0,-0.17 0.03,-0.26 0.04,-0.09 0.09,-0.17 0.16,-0.24 0.04,-0.04 0.08,-0.08 0.12,-0.1 0.04,-0.03 0.07,-0.06 0.11,-0.08 0.03,-0.02 0.06,-0.03 0.08,-0.04l-0.04 -0.04c-0.05,-0.06 -0.12,-0.08 -0.19,-0.07 -0.08,0 -0.15,0.04 -0.22,0.11 -0.05,0.05 -0.08,0.1 -0.1,0.17 -0.02,0.06 -0.03,0.13 -0.03,0.19l-0.29 0.04c-0.01,-0.08 0,-0.15 0.01,-0.22 0.01,-0.08 0.04,-0.15 0.07,-0.21 0.04,-0.07 0.09,-0.13 0.15,-0.19 0.15,-0.15 0.3,-0.23 0.45,-0.24 0.15,-0.01 0.29,0.05 0.42,0.19l0.62 0.61 -0.26 0.25 -0.1 -0.1 -0.01 0.02c0,0.04 0,0.08 -0.01,0.13 0,0.05 -0.02,0.1 -0.04,0.14 -0.03,0.05 -0.06,0.1 -0.11,0.15zm-0.13 -0.26c0.05,-0.06 0.08,-0.11 0.09,-0.17 0.02,-0.06 0.01,-0.11 0,-0.17 -0.02,-0.06 -0.05,-0.1 -0.09,-0.14 -0.04,0.01 -0.09,0.03 -0.13,0.06 -0.05,0.03 -0.09,0.06 -0.13,0.1 -0.07,0.07 -0.11,0.14 -0.11,0.2 0,0.05 0.02,0.1 0.06,0.15 0.04,0.03 0.09,0.05 0.14,0.05 0.06,0 0.11,-0.03 0.17,-0.08zm1.29 -0.9c-0.09,0.08 -0.17,0.14 -0.26,0.18 -0.08,0.04 -0.16,0.05 -0.24,0.05 -0.08,0 -0.15,-0.02 -0.22,-0.05l0.13 -0.33c0.07,0.03 0.14,0.03 0.2,0.02 0.06,-0.01 0.12,-0.04 0.17,-0.1 0.04,-0.04 0.07,-0.08 0.09,-0.13 0.02,-0.05 0.01,-0.09 -0.03,-0.12 -0.02,-0.03 -0.05,-0.04 -0.08,-0.04 -0.04,0 -0.07,0.01 -0.1,0.03 -0.04,0.02 -0.07,0.04 -0.1,0.06l-0.15 0.09c-0.05,0.04 -0.12,0.07 -0.19,0.08 -0.07,0.02 -0.14,0.02 -0.2,0.01 -0.07,-0.02 -0.13,-0.05 -0.18,-0.11 -0.06,-0.06 -0.1,-0.12 -0.11,-0.2 -0.01,-0.08 0,-0.16 0.04,-0.25 0.03,-0.08 0.09,-0.16 0.16,-0.23 0.06,-0.07 0.13,-0.12 0.2,-0.15 0.07,-0.04 0.14,-0.06 0.21,-0.07 0.07,-0.01 0.14,0 0.21,0.03l-0.12 0.31c-0.06,-0.02 -0.11,-0.02 -0.16,0 -0.05,0.02 -0.09,0.04 -0.13,0.08 -0.04,0.05 -0.07,0.09 -0.08,0.13 -0.01,0.04 0,0.08 0.02,0.1 0.03,0.03 0.06,0.03 0.1,0.03 0.05,-0.01 0.09,-0.03 0.14,-0.06l0.18 -0.11c0.12,-0.07 0.23,-0.11 0.34,-0.11 0.1,0 0.18,0.04 0.26,0.12 0.06,0.06 0.1,0.14 0.11,0.22 0.01,0.09 0,0.18 -0.04,0.27 -0.03,0.09 -0.09,0.17 -0.17,0.25zm0.99 -1c-0.11,0.11 -0.23,0.18 -0.37,0.2 -0.15,0.02 -0.29,0 -0.42,-0.07l0.14 -0.34c0.08,0.04 0.15,0.06 0.22,0.06 0.07,-0.01 0.13,-0.04 0.19,-0.1 0.06,-0.06 0.08,-0.12 0.08,-0.19 -0.01,-0.08 -0.04,-0.15 -0.11,-0.22l-0.96 -0.95 0.26 -0.27 0.96 0.96c0.1,0.1 0.17,0.21 0.2,0.32 0.03,0.11 0.02,0.22 -0.01,0.32 -0.03,0.1 -0.09,0.2 -0.18,0.28zm1.06 -1.05c-0.12,0.12 -0.25,0.17 -0.39,0.16 -0.13,-0.01 -0.27,-0.09 -0.4,-0.22l-0.6 -0.6 0.25 -0.25 0.58 0.57c0.06,0.07 0.13,0.1 0.21,0.11 0.07,0 0.13,-0.02 0.18,-0.07 0.05,-0.05 0.08,-0.11 0.09,-0.17 0.01,-0.06 0,-0.12 -0.02,-0.18 -0.02,-0.06 -0.06,-0.12 -0.11,-0.17l-0.51 -0.51 0.25 -0.25 1 0.99 -0.24 0.24 -0.13 -0.13 -0.01 0.02c0.01,0.05 0.01,0.1 0,0.16 0,0.05 -0.02,0.1 -0.05,0.16 -0.02,0.05 -0.06,0.09 -0.1,0.14zm0.78 -0.84l-1.39 -1.4 0.25 -0.25 1.39 1.39 -0.25 0.26zm0.52 -0.52l-0.99 -1 0.25 -0.25 1 0.99 -0.26 0.26zm-0.97 -1.24c-0.05,0.05 -0.1,0.07 -0.17,0.07 -0.06,0 -0.12,-0.02 -0.16,-0.07 -0.05,-0.04 -0.07,-0.1 -0.07,-0.16 0,-0.06 0.02,-0.12 0.07,-0.16 0.04,-0.05 0.1,-0.07 0.16,-0.07 0.07,0 0.12,0.02 0.17,0.07 0.04,0.04 0.06,0.1 0.06,0.16 0.01,0.06 -0.02,0.12 -0.06,0.16zm1.99 0.28c-0.11,0.11 -0.22,0.17 -0.35,0.21 -0.12,0.03 -0.25,0.03 -0.37,0 -0.13,-0.04 -0.24,-0.11 -0.34,-0.21 -0.1,-0.1 -0.17,-0.21 -0.2,-0.33 -0.04,-0.13 -0.04,-0.25 0,-0.38 0.03,-0.12 0.1,-0.24 0.2,-0.34 0.11,-0.11 0.22,-0.18 0.35,-0.21 0.12,-0.03 0.25,-0.03 0.37,0 0.12,0.04 0.24,0.11 0.34,0.21 0.1,0.1 0.16,0.21 0.2,0.33 0.03,0.13 0.04,0.25 0,0.38 -0.03,0.12 -0.1,0.24 -0.2,0.34zm-0.24 -0.24c0.05,-0.05 0.08,-0.1 0.1,-0.17 0.02,-0.06 0.02,-0.13 0,-0.19 -0.02,-0.07 -0.06,-0.14 -0.12,-0.2 -0.06,-0.06 -0.12,-0.1 -0.19,-0.12 -0.07,-0.01 -0.14,-0.01 -0.2,0 -0.06,0.02 -0.12,0.05 -0.17,0.1 -0.05,0.05 -0.08,0.11 -0.1,0.17 -0.02,0.07 -0.02,0.14 0,0.2 0.01,0.07 0.05,0.14 0.11,0.2 0.07,0.06 0.13,0.1 0.2,0.12 0.07,0.02 0.14,0.01 0.2,0 0.07,-0.02 0.12,-0.06 0.17,-0.11zm1.09 -0.65c-0.04,0.04 -0.1,0.07 -0.17,0.07 -0.06,0 -0.12,-0.03 -0.17,-0.07 -0.04,-0.05 -0.06,-0.11 -0.06,-0.17 0,-0.07 0.02,-0.12 0.07,-0.17 0.04,-0.05 0.1,-0.07 0.17,-0.07 0.06,0 0.12,0.02 0.16,0.07 0.05,0.04 0.07,0.1 0.07,0.17 0,0.06 -0.02,0.12 -0.07,0.17zm0.89 -0.85c-0.1,0.1 -0.21,0.16 -0.33,0.2 -0.13,0.03 -0.25,0.03 -0.38,0 -0.12,-0.04 -0.23,-0.11 -0.34,-0.21 -0.1,-0.1 -0.17,-0.22 -0.2,-0.34 -0.04,-0.12 -0.04,-0.25 0,-0.37 0.03,-0.13 0.1,-0.24 0.2,-0.34 0.11,-0.11 0.23,-0.18 0.35,-0.21 0.13,-0.04 0.25,-0.03 0.38,0.03l-0.14 0.33c-0.07,-0.03 -0.13,-0.03 -0.19,-0.01 -0.06,0.01 -0.11,0.05 -0.16,0.1 -0.06,0.05 -0.09,0.11 -0.1,0.17 -0.02,0.06 -0.02,0.13 0,0.2 0.02,0.06 0.06,0.12 0.12,0.18 0.06,0.06 0.12,0.1 0.19,0.12 0.07,0.02 0.13,0.03 0.2,0.01 0.06,-0.02 0.12,-0.05 0.17,-0.1 0.06,-0.06 0.09,-0.12 0.1,-0.18 0.01,-0.06 0.01,-0.13 -0.01,-0.2l0.33 -0.12c0.04,0.12 0.05,0.24 0.02,0.37 -0.03,0.13 -0.1,0.25 -0.21,0.37zm1.12 -1.12c-0.11,0.11 -0.22,0.17 -0.35,0.21 -0.12,0.03 -0.25,0.03 -0.37,0 -0.13,-0.04 -0.24,-0.11 -0.34,-0.21 -0.1,-0.1 -0.17,-0.21 -0.2,-0.33 -0.04,-0.13 -0.04,-0.25 0,-0.38 0.03,-0.13 0.1,-0.24 0.2,-0.34 0.11,-0.11 0.22,-0.18 0.35,-0.21 0.12,-0.03 0.25,-0.03 0.37,0 0.13,0.04 0.24,0.11 0.34,0.21 0.1,0.1 0.16,0.21 0.2,0.33 0.03,0.13 0.04,0.25 0,0.38 -0.03,0.12 -0.1,0.24 -0.2,0.34zm-0.24 -0.24c0.05,-0.05 0.08,-0.1 0.1,-0.17 0.02,-0.06 0.02,-0.12 0,-0.19 -0.02,-0.07 -0.06,-0.14 -0.12,-0.2 -0.06,-0.06 -0.12,-0.1 -0.19,-0.12 -0.07,-0.01 -0.14,-0.01 -0.2,0 -0.06,0.02 -0.12,0.05 -0.17,0.1 -0.05,0.05 -0.08,0.11 -0.1,0.17 -0.02,0.07 -0.02,0.14 0,0.2 0.01,0.07 0.05,0.14 0.11,0.2 0.07,0.06 0.13,0.1 0.2,0.12 0.07,0.02 0.14,0.01 0.2,0 0.07,-0.02 0.12,-0.06 0.17,-0.11zm0.91 -0.49l-0.99 -1 0.24 -0.24 0.12 0.13 0.02 -0.02c-0.01,-0.05 -0.02,-0.1 -0.01,-0.15 0.01,-0.06 0.02,-0.11 0.05,-0.16 0.02,-0.05 0.06,-0.1 0.1,-0.14 0.07,-0.08 0.15,-0.12 0.24,-0.14 0.08,-0.02 0.16,-0.01 0.23,0.02 -0.02,-0.08 -0.02,-0.16 0,-0.25 0.03,-0.09 0.08,-0.18 0.16,-0.26 0.11,-0.12 0.24,-0.17 0.36,-0.16 0.13,0.02 0.25,0.08 0.37,0.2l0.64 0.64 -0.25 0.25 -0.6 -0.59c-0.06,-0.07 -0.12,-0.1 -0.19,-0.1 -0.06,-0.01 -0.12,0.02 -0.17,0.07 -0.04,0.04 -0.07,0.09 -0.08,0.15 0,0.06 0,0.12 0.03,0.18 0.02,0.06 0.06,0.12 0.12,0.17l0.5 0.5 -0.25 0.26 -0.59 -0.59c-0.07,-0.07 -0.13,-0.1 -0.2,-0.1 -0.06,0 -0.12,0.02 -0.17,0.08 -0.05,0.04 -0.07,0.09 -0.08,0.14 -0.01,0.06 0,0.12 0.03,0.18 0.02,0.06 0.07,0.11 0.12,0.17l0.5 0.5 -0.25 0.26z"/>
   </g>
  </g>
  <polygon class="fil1" points="0,0 62.65,0 62.65,42.76 0,42.76 "/>
 </g>
</svg>
